<?xml version="1.0" encoding="utf-8"?>
<!-- Generator: Adobe Illustrator 23.0.4, SVG Export Plug-In . SVG Version: 6.00 Build 0)  -->
<svg version="1.1" id="Capa_1" xmlns="http://www.w3.org/2000/svg" xmlns:xlink="http://www.w3.org/1999/xlink" x="0px" y="0px"
	 viewBox="0 0 211 57" style="enable-background:new 0 0 211 57;" xml:space="preserve">
<style type="text/css">
	.st0{fill:#FFAE8B;}
	.st1{fill:#FF9568;}
	.st2{fill:#FF7D43;}
	.st3{fill:#AD5E2E;}
	.st4{fill:#A05528;}
	.st5{fill:#DD8858;}
	.st6{fill:#D97F4A;}
	.st7{fill:#FFCB9D;}
	.st8{fill:#FFBA7E;}
	.st9{fill:#433F43;}
	.st10{fill:#CA6D36;}
	.st11{fill:#FFFFFF;}
	.st12{fill:#FA759E;}
	.st13{fill:#FFD7E5;}
	.st14{fill:#3A2C60;}
	.st15{fill:#FFC61B;}
	.st16{fill:#D48B07;}
	.st17{fill:#C86031;}
	.st18{fill:#AA431B;}
	.st19{fill:#915F4E;}
	.st20{fill:#724438;}
	.st21{fill:#FFC192;}
	.st22{fill:#E09563;}
	.st23{fill:#121149;}
	.st24{fill:#965A50;}
	.st25{fill:#EBC9A0;}
	.st26{fill:#AF6E5A;}
	.st27{fill:#FAEBC8;}
	.st28{fill:#F5DCB4;}
	.st29{fill:#5D5360;}
	.st30{fill:#4B3F4E;}
	.st31{fill:none;}
	.st32{fill:none;stroke:#3A2C60;stroke-miterlimit:10;}
	.st33{enable-background:new    ;}
	.st34{fill:#694ED6;}
</style>
<g>
	<path class="st0" d="M-358-75.2c0-0.1,0.1-0.3,0.1-0.4c-0.3-0.1-0.6-0.1-1-0.1c-2.5,0-4.5,2-4.5,4.5s2,4.5,4.5,4.5
		c0.5,0,1.1-0.1,1.6-0.3C-358.5-69.2-358.8-71.9-358-75.2z"/>
	<path class="st1" d="M-358.8-69.8c-1.9,0-3.6-1.2-4.2-3c-0.2,0.5-0.3,1-0.3,1.6c0,2.5,2,4.5,4.5,4.5c0.5,0,1.1-0.1,1.6-0.3
		c-0.5-0.9-0.8-1.8-1-2.9C-358.5-69.8-358.7-69.8-358.8-69.8z"/>
	<path class="st0" d="M-322.6-75.2c0-0.1-0.1-0.3-0.1-0.4c0.3-0.1,0.6-0.1,1-0.1c2.5,0,4.5,2,4.5,4.5s-2,4.5-4.5,4.5
		c-0.5,0-1.1-0.1-1.6-0.3C-322.1-69.2-321.7-71.9-322.6-75.2z"/>
	<path class="st1" d="M-321.7-69.8c1.9,0,3.6-1.2,4.2-3c0.2,0.5,0.3,1,0.3,1.6c0,2.5-2,4.5-4.5,4.5c-0.5,0-1.1-0.1-1.6-0.3
		c0.5-0.9,0.8-1.8,1-2.9C-322.1-69.8-321.9-69.8-321.7-69.8z"/>
	<path class="st2" d="M-357.9-72.3c-0.4-0.3-0.9-0.3-1.2,0.1c-0.4,0.4-1.2,0.3-1.4,0.3c-0.5-0.1-0.9,0.2-1,0.7s0.2,0.9,0.7,1
		c0,0,0.4,0.1,0.8,0.1c0.1,0,0.2,0,0.2,0c0.9,0,1.6-0.4,2-0.9C-357.5-71.4-357.5-72-357.9-72.3z"/>
	<path class="st2" d="M-319-71.3c-0.1-0.5-0.6-0.8-1-0.7c-0.3,0.1-1.1,0.1-1.4-0.3c-0.3-0.4-0.9-0.4-1.2-0.1
		c-0.4,0.3-0.4,0.9-0.1,1.2c0.5,0.5,1.2,0.9,2,0.9c0.1,0,0.2,0,0.2,0c0.5,0,0.8-0.1,0.8-0.1C-319.2-70.4-318.9-70.8-319-71.3z"/>
	<path class="st3" d="M-314.1-44.1c-1.3-0.3-2.7,0.4-3.2,1.7c-0.6,1.5-1.7,3.1-3.9,3.1c-2.3,0-5.7-2-8.3-3.8c-0.1,1.5-0.3,3-0.8,4.5
		c1.9,2.1,4.9,4,9.4,4c5.1-0.1,7.6-3.1,8.7-5.6C-311.4-41.8-312.3-43.7-314.1-44.1z"/>
	<path class="st4" d="M-320.9-37c-4.2,0.1-7-1.6-9-3.5c-0.1,0.7-0.3,1.3-0.5,1.9c1.9,2.1,4.9,4,9.4,4c5.1-0.1,7.6-3.1,8.7-5.6
		c0.4-0.8,0.3-1.7,0-2.4C-313.3-40.1-315.8-37.1-320.9-37z"/>
	<path class="st5" d="M-324.2-52.4c-0.6-3.9-2.8-7.5-4.6-9.8c-3.2,1.5-7.3,2.2-11.5,2.2c-4.5,0-8.8-0.8-12.2-2.5
		c-1.8,2.3-4.2,6-4.8,10.1c-1.2,7.6,5.3,8.6,5.3,8.6l0,0c0.1,2.3,0.5,4.8,1.5,7.1c0.5,1.3,1.8,2.1,3.1,2.1c1.6,0,3.1-1.2,3.3-2.8
		l0.7-3.6h5.2l0.7,3.6c0.3,1.6,1.7,2.8,3.3,2.8c1.4,0,2.6-0.8,3.1-2.1c1-2.3,1.4-4.8,1.5-7.1l0,0C-329.5-43.7-323-44.7-324.2-52.4z"
		/>
	<g>
		<path class="st6" d="M-351.5-49.4c-2.7,0.1-4.5-1.2-5.7-3c-1.2,7.6,5.3,8.6,5.3,8.6C-352-45.8-351.8-47.7-351.5-49.4z"/>
		<path class="st6" d="M-329.9-49.4c2.7,0.1,4.5-1.2,5.7-3c1.2,7.6-5.3,8.6-5.3,8.6C-329.4-45.8-329.6-47.7-329.9-49.4z"/>
		<path class="st6" d="M-347.2-38.6c-1.8-0.2-3.4-1.2-4.4-2.1c0.2,1.4,0.6,2.7,1.2,4c0.5,1.3,1.8,2.1,3.1,2.1c1.6,0,3.1-1.2,3.3-2.8
			l0.3-1.4C-344.6-38.5-345.8-38.4-347.2-38.6z"/>
		<path class="st6" d="M-334.2-38.6c1.8-0.2,3.4-1.2,4.4-2.1c-0.2,1.4-0.6,2.7-1.2,4c-0.5,1.3-1.8,2.1-3.1,2.1
			c-1.6,0-3.1-1.2-3.3-2.8l-0.3-1.4C-336.8-38.5-335.7-38.4-334.2-38.6z"/>
	</g>
	<path class="st7" d="M-322.6-75.2c-1-4-3.1-6.9-5.6-9c-1.8-1.6-3.9-2.7-6-3.5l0,0c-3.3-1.7-9.3-2.7-11.1-2.8
		c-1.4-0.1-2.2-0.6-2.7-1.2c-0.4-0.5-1.2-0.4-1.5,0.2c-1.1,2-0.9,4.3-0.6,5.5c-0.8,0.5-1.6,1.1-2.3,1.7c-2.4,2.1-4.5,5-5.6,9
		c-2.8,10.9,7.1,15.2,17.7,15.2S-319.8-64.4-322.6-75.2z"/>
	<path class="st8" d="M-340.3-63.1c-8.8,0-17.1-3-18.1-10.2c-1.2,9.5,8.1,13.3,18.1,13.3s19.3-3.8,18.1-13.3
		C-323.2-66.1-331.5-63.1-340.3-63.1z"/>
	<path class="st5" d="M-322.6-75.2c-1-4-3.1-6.9-5.6-9c-1.8-1.6-3.9-2.7-6-3.5l0,0c-3.3-1.7-9.3-2.7-11.1-2.8
		c-1.4-0.1-2.2-0.6-2.7-1.2c-0.4-0.5-1.2-0.4-1.5,0.2c-1.1,2-0.9,4.3-0.6,5.5c-0.8,0.5-1.6,1.1-2.3,1.7c-2.4,2.1-4.5,5-5.6,9
		c-0.3,1.3-0.5,2.5-0.5,3.6c1.1-0.3,2.5-1,3.8-2.7c2.8-3.4,2.6-7,6.5-7.1c2.9-0.1,3.6,2.5,7.8,2.5s5-2.6,7.8-2.5
		c3.9,0.1,3.7,3.7,6.5,7.1c1.4,1.7,2.8,2.4,3.8,2.7C-322.1-72.8-322.3-74-322.6-75.2z"/>
	<path class="st9" d="M-348.6-76.1c-1,0-1.8,1-1.8,2.2c0,1.2,0.8,2.2,1.8,2.2s1.8-1,1.8-2.2C-346.9-75.2-347.7-76.1-348.6-76.1z"/>
	<path class="st9" d="M-332.2-76.1c-1,0-1.8,1-1.8,2.2c0,1.2,0.8,2.2,1.8,2.2s1.8-1,1.8-2.2C-330.4-75.2-331.2-76.1-332.2-76.1z"/>
	<path class="st10" d="M-349.9-55.2c-0.4-0.2-1,0-1.1,0.4c-0.1,0.1-1.2,2.8-2,6.5c-0.3,1.4-0.5,2.7-0.6,3.9c0.9,0.4,1.6,0.6,1.7,0.6
		c0.3-5.4,2.4-10.2,2.5-10.3C-349.3-54.5-349.5-55-349.9-55.2z"/>
	<path class="st10" d="M-328.3-48.2c-0.8-3.7-2-6.4-2-6.5c-0.2-0.4-0.7-0.6-1.1-0.4c-0.4,0.2-0.6,0.7-0.4,1.1
		c0,0.1,2.1,4.8,2.5,10.3c0.1,0,0.8-0.1,1.7-0.6C-327.9-45.5-328.1-46.8-328.3-48.2z"/>
	<path class="st3" d="M-337.8-71.6c0-0.3-0.1-1-1.2-1.3c-0.4-0.1-0.8-0.1-1.5-0.1s-1.1,0-1.5,0.1c-1.1,0.3-1.2,1-1.2,1.3
		c0,0.8,0.8,1.6,1.8,1.9v1.9c0,0.5,0.4,0.9,0.9,0.9s0.9-0.4,0.9-0.9v-1.9C-338.5-70-337.8-70.8-337.8-71.6z"/>
</g>
<g>
	<ellipse class="st11" cx="-526.4" cy="-133.3" rx="24.9" ry="24.9"/>
	<path class="st12" d="M-495.5-104.9c-2-1.8-3.7-3.3-4.2-5.7c-0.2-1.1,0-2.2,0.6-3c0.5-0.6,1.2-1.2,2.1-0.9c0.9,0.3,1.1,1.5,1.1,1.5
		c0.7,2.9,5.1,2.3,4.8-0.7v-0.1c-0.3-2.7-2.6-5.5-5.9-5.5c-2.3,0-4.4,0.9-5.8,2.6c-1.5,1.9-2.1,4.5-1.6,7c0.8,3.9,3.4,6.2,5.7,8.3
		c0.7,0.7,1.4,1.3,2.1,1.9c2.1,2.2,3.5,4.9,3.6,6.8c0.1,3.1-1.7,4.8-3.3,5.8c-2,1.2-4.4,1.4-6.5,1.2c0.3-3.1-0.2-6.4-1.2-9.6
		c-0.3-1-0.6-1.9-0.9-2.6l0,0c-1.9-4.7-4.8-9-7.8-12.2l-0.1-0.1c6.2-4,10.4-10.6,11.2-18.3c1.5,1.1,3.3,1.8,5.3,1.8
		c4.9,0,8.9-4,8.9-8.9c0-4.9-4-8.9-8.9-8.9c-2.6,0-4.9,1.1-6.5,2.9c0.5,1.5,0.9,3,1.1,4.6c0.1,0.5,0.1,1,0.2,1.6c0,0.1,0,0.2,0,0.2
		c0,0.6,0.1,1.2,0.1,1.8c0,0.1,0,0.1,0,0.2c0,0.3,0,0.6,0,1c-0.5-10.9-8.1-20-18.2-22.8c1.8-1.4,3.2-3.4,1.1-5.5
		c-2-1.9-5.8,4.2-5.8,4.2s2-4.6,0-5.1c-3.2-0.8-3.9,4.9-3.9,4.9v0.7c-12.5,1-22.3,11.1-22.9,23.7c0-0.3,0-0.6,0-1c0-0.1,0-0.1,0-0.2
		c0-0.6,0-1.2,0.1-1.8c0-0.1,0-0.2,0-0.2c0-0.5,0.1-1.1,0.2-1.6c0.2-1.6,0.6-3.1,1.1-4.6c-1.6-1.8-3.9-2.9-6.5-2.9
		c-4.9,0-8.9,4-8.9,8.9c0,4.9,4,8.9,8.9,8.9c2,0,3.8-0.7,5.3-1.8c0.8,7.7,5.1,14.3,11.3,18.3c-6.6,7-12.6,19.7-9,28.8
		c0.1,0.3,0.1,0.6,0.2,0.8c0.5,1.6,1.2,3.1,2,4.5c-1,0.2-2.1,0.7-2.9,1.7c-1.3,1.5-0.2,3.8,1.8,3.8h8.3c1.1,0.2,2.3,0.2,3.4-0.2
		h19.8c1.1,0.4,2.3,0.4,3.4,0.2h8.2c2.2,0,3.2-3,1.4-4.4c-0.7-0.6-1.6-0.9-2.4-1.1c0.8-1.3,1.5-2.8,2-4.4c0-0.1,0.1-0.3,0.1-0.4
		c2.9,0.3,6.6,0,9.7-1.9c3.6-2.3,5.6-5.8,5.5-10c-0.1-4.7-3.8-8.9-4.9-10C-494-103.5-494.8-104.2-495.5-104.9z"/>
	<circle class="st13" cx="-526.1" cy="-83.8" r="6.3"/>
	<ellipse class="st13" cx="-556.4" cy="-135.5" rx="5.7" ry="5.7"/>
	<ellipse class="st13" cx="-496.3" cy="-135.5" rx="5.7" ry="5.7"/>
	<path class="st13" d="M-543-114.8c4.4,4,10.2,6.4,16.6,6.4c6.4,0,12.2-2.4,16.6-6.4c1-2.2,1.5-4.7,1.5-7.3c0-4-1.3-7.6-3.4-10.6
		c1.5-1.6,2.3-3.8,2.3-6.1c0-5.1-4.1-9.3-9.3-9.3c-3.3,0-6.2,1.7-7.8,4.3c-1.6-2.6-4.5-4.3-7.8-4.3c-5.1,0-9.3,4.1-9.3,9.3
		c0,2.4,0.9,4.5,2.3,6.1c-2.2,3-3.4,6.7-3.4,10.6C-544.5-119.5-544-117-543-114.8z"/>
	<path class="st12" d="M-538.5-129.9c-0.8,0-1.5,0.5-1.5,1c0,0.6,0.7,1,1.5,1s1.5-0.5,1.5-1S-537.7-129.9-538.5-129.9z"/>
	<path class="st12" d="M-514.4-129.9c-0.8,0-1.5,0.5-1.5,1c0,0.6,0.7,1,1.5,1c0.8,0,1.5-0.5,1.5-1S-513.5-129.9-514.4-129.9z"/>
	<g>
		<path class="st14" d="M-495-105.5c-2-1.8-3.5-3.1-4-5.3c-0.2-0.9,0-1.8,0.5-2.3c0.3-0.3,0.7-0.8,1.2-0.6c0.3,0.1,0.6,0.7,0.7,1
			c0.5,1.9,2.2,2.7,3.7,2.4c1.4-0.2,2.8-1.4,2.6-3.4v-0.1c-0.3-3-2.9-6.2-6.7-6.2c-2.6,0-4.8,1-6.4,2.9c-1.7,2.1-2.3,4.9-1.7,7.6
			c0.9,4.2,3.6,6.6,6,8.7c0.7,0.6,1.4,1.2,2,1.9c2,2,3.3,4.6,3.4,6.3c0.1,2.7-1.5,4.3-2.9,5.1c-1.6,1-3.5,1.2-5.3,1.2
			c0.2-2.8-0.3-5.9-1.3-9.1c-0.3-1.1-0.6-2-1-2.7l0,0c-1.8-4.5-4.7-9-7.9-12.4c-0.4,0.3-0.9,0.6-1.3,0.9c3.2,3.3,6,7.7,7.8,12.2v0.1
			c0.3,0.7,0.6,1.5,0.9,2.5c1.1,3.6,1.5,7,1.1,10.1c-0.1,1.6-0.3,3-0.7,4.2c-0.4,1.5-1.1,2.9-1.9,4.2c-0.1,0.2-0.2,0.5-0.1,0.7
			c0.1,0.2,0.3,0.4,0.5,0.5c0.8,0.2,1.5,0.5,2.1,0.9l0,0c0.7,0.5,0.7,1.3,0.5,1.9c-0.2,0.5-0.7,1.1-1.5,1.1h-3.6
			c0.1-0.2,0.2-0.3,0.3-0.5c2.8-5.7,2.6-21.1-1.5-31c-0.2-0.4-0.6-0.6-1-0.4s-0.6,0.6-0.4,1c4.2,10.2,3.8,25.1,1.5,29.8
			c-0.4,0.9-0.8,1.2-1.1,1.3h-1.4v-2.4c0-0.4-0.3-0.8-0.8-0.8c-0.4,0-0.8,0.3-0.8,0.8v2.5h-1.5v-2.5c0-0.4-0.3-0.8-0.8-0.8
			s-0.8,0.3-0.8,0.8v2.6l-1.7,0.1c-0.7,0-1.3-0.9-1.4-1.9c2.3-8.8,2.5-15.7,0.8-21.3c-0.1-0.4-0.6-0.6-1-0.5c-0.4,0.1-0.6,0.6-0.5,1
			c1.7,5.3,1.4,12.1-0.8,20.6c0,0.1,0,0.1,0,0.2c0,0.5,0.1,1,0.2,1.4h-10.7c0.2-0.4,0.2-0.9,0.2-1.4c0-0.1,0-0.1,0-0.2
			c-2.2-8.5-2.5-15.2-0.8-20.6c0.1-0.4-0.1-0.8-0.5-1c-0.4-0.1-0.8,0.1-1,0.5c-1.7,5.6-1.5,12.6,0.8,21.3c0,1-0.6,1.9-1.3,1.9
			l-1.8-0.1v-2.6c0-0.4-0.3-0.8-0.8-0.8c-0.4,0-0.8,0.3-0.8,0.8v2.5h-1.5v-2.5c0-0.4-0.3-0.8-0.8-0.8s-0.8,0.3-0.8,0.8v2.4h-1.4
			c-0.2-0.1-0.6-0.4-1.1-1.3c-2.3-4.7-2.7-19.6,1.5-29.8c0.2-0.4,0-0.8-0.4-1c-0.4-0.2-0.8,0-1,0.4c-4.1,9.9-4.2,25.4-1.5,31
			c0.1,0.2,0.2,0.3,0.3,0.5h-3.8c-0.6,0-1.1-0.3-1.4-0.9c-0.3-0.6-0.2-1.2,0.2-1.6c0.6-0.7,1.4-1.2,2.5-1.4c0.2-0.1,0.4-0.2,0.5-0.5
			c0.1-0.2,0.1-0.5-0.1-0.7c-0.8-1.3-1.5-2.7-1.9-4.3c-0.1-0.3-0.1-0.5-0.2-0.8v-0.1c-3.7-9.2,2.9-21.8,8.9-28.1
			c-0.5-0.3-0.9-0.6-1.3-0.9c-6.2,6.7-12.9,19.7-9,29.5c0.1,0.3,0.1,0.6,0.2,0.8c0.4,1.3,0.9,2.6,1.6,3.8c-1,0.4-1.8,0.9-2.3,1.6
			c-0.8,0.9-0.9,2.2-0.4,3.3c0.5,1.1,1.6,1.8,2.8,1.8h5.3c0.1,0,0.2,0.1,0.3,0.1c0.1,0,0.1,0,0.2,0l7.9,0.3c0.6,0,1.1-0.2,1.6-0.6
			h12.9c0.5,0.4,1,0.6,1.6,0.6l0,0l7.8-0.3c0.1,0,0.1,0,0.2,0c0.1,0,0.2-0.1,0.3-0.1h5.1c1.3,0,2.5-0.8,2.9-2.1
			c0.5-1.3,0-2.8-1.1-3.6c-0.5-0.4-1.1-0.7-1.7-0.9c0.6-1.1,1.1-2.3,1.5-3.6c0.4,0,0.9,0,1.4,0c2.6,0,5.6-0.5,8.2-2.1
			c3.9-2.4,6-6.2,5.9-10.6c-0.1-5-4-9.3-5.1-10.5C-493.5-104.1-494.3-104.8-495-105.5L-495-105.5z M-494.2-83.4
			c-2.6,1.7-5.7,2-8.4,1.9c0.2-1,0.3-2.1,0.4-3.2l0,0c2,0.1,4.3-0.2,6.2-1.4c1.7-1.1,3.7-3.1,3.6-6.5c-0.1-2.2-1.5-5-3.8-7.3
			c-0.7-0.7-1.4-1.3-2.1-2c-2.2-2-4.7-4.2-5.5-7.9c-0.5-2.3,0.1-4.7,1.4-6.4c1.3-1.5,3.1-2.4,5.2-2.3c2.9,0,4.9,2.5,5.2,4.9
			c0.1,1.1-0.7,1.6-1.4,1.7c-0.8,0.1-1.7-0.2-2-1.3c0-0.2-0.4-1.6-1.6-2.1c-1-0.3-2,0.1-2.9,1.1c-0.8,0.9-1.1,2.3-0.8,3.6
			c0.6,2.7,2.5,4.3,4.5,6.1c0.7,0.7,1.5,1.4,2.3,2.1c1.1,1.1,4.6,5.1,4.7,9.5C-489-88.8-490.8-85.5-494.2-83.4L-494.2-83.4z"/>
		<path class="st14" d="M-529.2-117.3c-1.1,0-2-0.9-2-2c0-0.4-0.3-0.8-0.8-0.8s-0.8,0.3-0.8,0.8c0,2,1.6,3.6,3.6,3.6
			c1.1,0,2.2-0.5,2.8-1.4c0.7,0.8,1.7,1.4,2.8,1.4c2,0,3.6-1.6,3.6-3.6c0-0.4-0.3-0.8-0.8-0.8s-0.8,0.3-0.8,0.8c0,1.1-0.9,2-2,2
			c-1.1,0-2-0.9-2-2v-8.3c1.6-0.4,2.8-1.8,2.8-3.5c0-0.4-0.3-0.8-0.8-0.8s-0.8,0.3-0.8,0.8c0,1.1-0.9,2-2,2c-1.1,0-2-0.9-2-2
			c0-0.4-0.3-0.8-0.8-0.8c-0.4,0-0.8,0.3-0.8,0.8c0,1.7,1.2,3.1,2.8,3.5v8.3C-527.2-118.2-528.1-117.3-529.2-117.3L-529.2-117.3z"/>
		<path class="st14" d="M-502.2-127.4c-0.4-0.1-0.8,0.1-0.9,0.5c-0.3,1.1-0.7,2.3-1.2,3.4c-0.2,0.4,0,0.8,0.4,1
			c0.1,0,0.2,0.1,0.3,0.1c0.3,0,0.6-0.2,0.7-0.5c0.5-1.2,0.9-2.4,1.3-3.6C-501.5-126.9-501.8-127.3-502.2-127.4L-502.2-127.4z"/>
		<path class="st14" d="M-526.4-107.6c8.9,0,17.1-4.5,21.8-12.1c0.2-0.4,0.1-0.8-0.2-1.1c-0.4-0.2-0.8-0.1-1.1,0.2
			c-4.4,7.2-12.1,11.4-20.5,11.4c-13.3,0-24.1-10.8-24.1-24.1c0-12.4,9.4-22.6,21.5-24c-0.1,0.3-0.1,0.5-0.1,0.6
			c-0.1,0.4,0.2,0.8,0.7,0.9c0.4,0.1,0.8-0.2,0.9-0.7c0.1-0.9,0.7-3.3,1.8-4c0.3-0.2,0.7-0.3,1.1-0.2c0.1,0,0.2,0.1,0.2,0.2
			c0.4,0.7-0.2,2.7-0.7,3.9c-0.2,0.4,0,0.8,0.4,1c0.4,0.2,0.8,0.1,1-0.3c1-1.7,3-4.1,4.2-4.2c0.2,0,0.3,0,0.4,0.1
			c0.7,0.7,1,1.3,0.8,2c-0.3,1.9-3.6,3.6-4.9,4.1c-0.4,0.2-0.6,0.6-0.4,1c0.1,0.3,0.4,0.5,0.7,0.5c0.1,0,0.2,0,0.3-0.1
			c0.4-0.2,3.3-1.4,4.9-3.4c9.1,3.5,15.5,12.2,15.5,22.5c0,1.2-0.1,2.4-0.3,3.5c-0.1,0.4,0.2,0.8,0.7,0.9c0.1,0,0.2,0,0.3,0
			c0,0.5-0.1,1-0.1,1.4c1.5,1,3.4,1.7,5.4,1.7c5.3,0,9.7-4.3,9.7-9.7c0-5.3-4.3-9.7-9.7-9.7c-2.4,0-4.5,0.9-6.2,2.3
			c-2.6-6.5-7.9-11.7-14.5-14.3c0.1-0.2,0.1-0.3,0.1-0.5c0.2-1.2-0.2-2.3-1.3-3.4c-0.5-0.5-1.1-0.6-1.7-0.6c-1,0.1-2.1,1-3,1.9
			c0-0.5-0.1-1-0.3-1.5s-0.7-0.8-1.2-1c-0.9-0.2-1.7-0.1-2.4,0.4c-1,0.6-1.6,1.8-1.9,2.9c-9.8,0.9-18.1,7.2-21.6,16
			c-1.7-1.4-3.9-2.3-6.2-2.3c-5.3,0-9.7,4.3-9.7,9.7c0,5.4,4.3,9.7,9.7,9.7c1.9,0,3.6-0.5,5.1-1.5
			C-548.6-116.1-538.5-107.6-526.4-107.6z M-496.3-143.6c4.5,0,8.1,3.6,8.1,8.1s-3.6,8.1-8.1,8.1c-1.9,0-3.6-0.6-4.9-1.7
			c0.1-0.1,0.3-0.3,0.3-0.5c0.2-1.2,0.3-2.5,0.3-3.7c0-2.8-0.4-5.5-1.3-8C-500.5-142.7-498.5-143.6-496.3-143.6z M-556.4-127.4
			c-4.5,0-8.1-3.6-8.1-8.1s3.6-8.1,8.1-8.1c2.2,0,4.2,0.9,5.7,2.3c-0.8,2.5-1.3,5.2-1.3,8c0,1.5,0.1,2.9,0.4,4.4
			C-553-128-554.7-127.4-556.4-127.4L-556.4-127.4z"/>
		<path class="st14" d="M-536.9-138.1c0,1.1,0.9,2.1,2.1,2.1s2.1-0.9,2.1-2.1c0-1.1-0.9-2.1-2.1-2.1S-536.9-139.3-536.9-138.1z"/>
		<path class="st14" d="M-519.9-138.1c0,1.1,0.9,2.1,2.1,2.1c1.1,0,2.1-0.9,2.1-2.1c0-1.1-0.9-2.1-2.1-2.1S-519.9-139.3-519.9-138.1
			z"/>
	</g>
</g>
<g>
	<circle class="st15" cx="-530.5" cy="79.5" r="39.2"/>
	<g>
		<polygon class="st16" points="-555.4,83.1 -546.5,92.7 -545.4,84.3 		"/>
		<path class="st16" d="M-506,71.3l-38.5,25.4l21.3,21.3c16.2-3.1,28.9-16.1,31.4-32.5L-506,71.3z"/>
	</g>
	<circle class="st17" cx="-549.6" cy="77.3" r="8.2"/>
	<circle class="st18" cx="-511.5" cy="77.3" r="8.2"/>
	<ellipse class="st19" cx="-530.5" cy="82.7" rx="20.1" ry="19.5"/>
	<path class="st20" d="M-530.5,63.2c-0.1,0-0.1,0-0.2,0v38.9c0.1,0,0.1,0,0.2,0c11.1,0,20.1-8.7,20.1-19.5
		C-510.4,71.9-519.4,63.2-530.5,63.2z"/>
	<path class="st21" d="M-516.1,80.2c0-4.3-3.5-7.8-7.8-7.8c-2.8,0-5.3,1.5-6.7,3.7c-1.4-2.2-3.8-3.7-6.7-3.7c-4.3,0-7.8,3.5-7.8,7.8
		c0,3.9,2.9,7.2,6.7,7.7v2.6c0,4.3,3.5,7.8,7.8,7.8c4.3,0,7.8-3.5,7.8-7.8v-2.6C-519,87.4-516.1,84.2-516.1,80.2z"/>
	<path class="st22" d="M-523.9,72.4c-2.8,0-5.3,1.5-6.7,3.7c-0.1-0.1-0.1-0.2-0.2-0.3v22.5c0.1,0,0.1,0,0.2,0c4.3,0,7.8-3.5,7.8-7.8
		v-2.6c3.8-0.6,6.7-3.8,6.7-7.7C-516.1,75.9-519.6,72.4-523.9,72.4z"/>
	<g>
		<circle class="st23" cx="-537.1" cy="80.2" r="1.2"/>
		<circle class="st23" cx="-523.8" cy="80.2" r="1.2"/>
		<circle class="st23" cx="-529.2" cy="89.1" r="0.9"/>
		<circle class="st23" cx="-531.8" cy="89.1" r="0.9"/>
	</g>
</g>
<g>
	<circle class="st15" cx="27.9" cy="28.5" r="27.9"/>
	<g>
		<polygon class="st16" points="10.2,31.1 16.5,37.9 17.3,31.9 		"/>
		<path class="st16" d="M45.4,22.7L18,40.8L33.2,56c11.6-2.2,20.6-11.5,22.4-23.2L45.4,22.7z"/>
	</g>
	<circle class="st17" cx="14.3" cy="26.9" r="5.8"/>
	<circle class="st18" cx="41.5" cy="26.9" r="5.8"/>
	<ellipse class="st19" cx="27.9" cy="30.8" rx="14.3" ry="13.9"/>
	<path class="st20" d="M27.9,16.9c-0.1,0-0.1,0-0.1,0v27.7c0.1,0,0.1,0,0.1,0c7.9,0,14.3-6.2,14.3-13.9
		C42.3,23.1,35.9,16.9,27.9,16.9z"/>
	<path class="st21" d="M38.2,29c0-3.1-2.5-5.6-5.6-5.6c-2,0-3.8,1.1-4.8,2.6c-1-1.6-2.7-2.6-4.8-2.6c-3.1,0-5.6,2.5-5.6,5.6
		c0,2.8,2.1,5.1,4.8,5.5v1.9c0,3.1,2.5,5.6,5.6,5.6s5.6-2.5,5.6-5.6v-1.9C36.1,34.1,38.2,31.9,38.2,29z"/>
	<path class="st22" d="M32.7,23.4c-2,0-3.8,1.1-4.8,2.6c-0.1-0.1-0.1-0.1-0.1-0.2v16c0.1,0,0.1,0,0.1,0c3.1,0,5.6-2.5,5.6-5.6v-1.9
		c2.7-0.4,4.8-2.7,4.8-5.5C38.2,25.9,35.7,23.4,32.7,23.4z"/>
	<g>
		<circle class="st23" cx="23.2" cy="29" r="0.9"/>
		<circle class="st23" cx="32.7" cy="29" r="0.9"/>
		<circle class="st23" cx="28.9" cy="35.3" r="0.6"/>
		<circle class="st23" cx="27" cy="35.3" r="0.6"/>
	</g>
</g>
<g>
	<circle class="st24" cx="-361" cy="90.5" r="7.2"/>
	<circle class="st25" cx="-361" cy="90.5" r="4.5"/>
	<circle class="st24" cx="-319.6" cy="90.5" r="7.2"/>
	<circle class="st25" cx="-319.6" cy="90.5" r="4.5"/>
	<path class="st26" d="M-319.9,94.7c-0.9-1.6-1.4-3.3-1.4-5.2l0,0c0-7.9-4.8-14.6-11.7-17.5v-3.2l-4.5,1.8l-0.9-3.6
		c-2.4,0.8-4.4,2.5-5.9,4.1c-8.5,1.9-14.8,9.4-14.8,18.4c0,1.8-0.5,3.6-1.4,5.2c-1.4,2.4-2.2,5.1-2.2,7.9
		c0,10.2,10.1,18.4,22.5,18.4s22.5-8.3,22.5-18.4C-317.8,99.8-318.6,97.1-319.9,94.7z"/>
	<path class="st24" d="M-352.9,105.8c0-3.3,0.8-6.4,2.2-9.2c0.9-1.8,1.4-3.9,1.4-6c0-9.2,4.8-17,11.6-20.3l-0.8-3.2
		c-2.4,0.8-4.4,2.5-5.9,4.1c-8.5,1.9-14.8,9.4-14.8,18.4c0,1.8-0.5,3.6-1.4,5.2c-1.4,2.4-2.2,5.1-2.2,7.9c0,8.2,6.6,15.2,15.6,17.6
		C-350.7,116.4-352.9,111.3-352.9,105.8z"/>
	<path class="st27" d="M-340.3,117.4c7.5,0,13.5-4.8,13.5-10.8c0-1.2-0.3-2.4-0.7-3.5c-0.7-1.6-0.5-3.4,0.7-4.8
		c1.4-1.7,2.2-4,1.8-6.5c-0.5-3.4-3.3-6.2-6.7-6.7c-2.6-0.4-5,0.4-6.7,2c-0.5,0.4-1.1,0.7-1.8,0.7c-0.6,0-1.3-0.2-1.8-0.7
		c-1.7-1.6-4.1-2.4-6.7-2c-3.4,0.5-6.2,3.3-6.7,6.7c-0.4,2.5,0.3,4.8,1.8,6.5c1.1,1.3,1.4,3.2,0.7,4.8c-0.5,1.1-0.7,2.3-0.7,3.5
		C-353.8,112.6-347.7,117.4-340.3,117.4z"/>
	<path class="st28" d="M-353.8,106.6c0,2,0.7,3.9,1.9,5.5c-0.6-2-1-4.1-1-6.3c0-3.3,0.8-6.4,2.2-9.2c0.9-1.8,1.4-3.9,1.4-6
		c0-1.9,0.2-3.7,0.6-5.5h-0.1c-3.4,0.5-6.2,3.3-6.7,6.7c-0.4,2.5,0.3,4.8,1.8,6.5c1.1,1.3,1.4,3.2,0.7,4.8
		C-353.5,104.2-353.8,105.4-353.8,106.6z"/>
	<g>
		<path class="st29" d="M-342.1,102.2c-0.1,0-0.3,0-0.4-0.1l-1.8-0.9c-0.4-0.2-0.6-0.8-0.4-1.2c0.2-0.4,0.8-0.6,1.2-0.4l1.8,0.9
			c0.4,0.2,0.6,0.8,0.4,1.2C-341.4,102-341.7,102.2-342.1,102.2z"/>
		<path class="st29" d="M-338.5,102.2c-0.3,0-0.6-0.2-0.8-0.5c-0.2-0.4,0-1,0.4-1.2l1.8-0.9c0.4-0.2,1,0,1.2,0.4s0,1-0.4,1.2
			l-1.8,0.9C-338.2,102.1-338.3,102.2-338.5,102.2z"/>
	</g>
	<path class="st30" d="M-348.4,95.9L-348.4,95.9c-1.5,0-2.7-1.2-2.7-2.7v-0.9c0-1.5,1.2-2.7,2.7-2.7l0,0c1.5,0,2.7,1.2,2.7,2.7v0.9
		C-345.7,94.6-346.9,95.9-348.4,95.9z"/>
	<path class="st29" d="M-348.4,89.6v3.1c0,0.7,0.6,1.3,1.3,1.3c0.7,0,1.3-0.6,1.3-1.3v-0.4C-345.7,90.8-346.9,89.6-348.4,89.6z"/>
	<circle class="st11" cx="-348.4" cy="91.4" r="0.9"/>
	<path class="st30" d="M-332.2,95.9L-332.2,95.9c-1.5,0-2.7-1.2-2.7-2.7v-0.9c0-1.5,1.2-2.7,2.7-2.7l0,0c1.5,0,2.7,1.2,2.7,2.7v0.9
		C-329.5,94.6-330.7,95.9-332.2,95.9z"/>
	<path class="st29" d="M-332.2,89.6v3.1c0,0.7,0.6,1.3,1.3,1.3c0.7,0,1.3-0.6,1.3-1.3v-0.4C-329.5,90.8-330.7,89.6-332.2,89.6z"/>
	<circle class="st11" cx="-332.2" cy="91.4" r="0.9"/>
	<g>
		<path class="st24" d="M-355,115.6c-0.6,1.5-1.2,3.1-1.9,4.8c-0.4,1.2,0.4,2.4,1.7,2.4h6.5c0.7,0,1.3-0.4,1.6-1l0.4-0.8L-355,115.6
			z"/>
		<path class="st24" d="M-325.6,115.6c0.6,1.5,1.2,3.1,1.9,4.8c0.4,1.2-0.4,2.4-1.7,2.4h-6.5c-0.7,0-1.3-0.4-1.6-1l-0.5-0.8
			L-325.6,115.6z"/>
	</g>
	<path class="st28" d="M-326.4,103.1c-1.3,0.2-2.2,1.4-2.2,2.8v3.6l-2.9-2.9c-2.5-2.5-6.6-3-9.5-0.9c-3.6,2.7-3.9,7.9-0.9,10.9l4,4
		c2.7,2.7,7.1,2.7,9.7,0l1.2-1.2c2.4-2.4,3.7-5.6,3.7-8.9v-4.8C-323.1,104.1-324.7,102.8-326.4,103.1z"/>
	<path class="st25" d="M-338.2,104.5c-0.9,0.2-1.9,0.6-2.7,1.2c-3.6,2.7-3.9,7.9-0.9,10.9l2.8,2.8l1.5-1.5c1.9-1.9,2.8-4.4,2.6-7.1
		C-335.1,108.3-336.3,106-338.2,104.5z"/>
	<path class="st28" d="M-354.2,103.1c1.3,0.2,2.2,1.4,2.2,2.8v3.6l2.9-2.9c2.5-2.5,6.6-3,9.5-0.9c3.6,2.7,3.9,7.9,0.9,10.9l-4,4
		c-2.7,2.7-7.1,2.7-9.7,0l-1.2-1.2c-2.4-2.4-3.7-5.6-3.7-8.9v-4.8C-357.4,104.1-355.9,102.8-354.2,103.1z"/>
	<path class="st25" d="M-340,105.4c-2.9-1.8-6.7-1.3-9.1,1.1l-2.9,2.9v-3.6c0-1.3-0.9-2.5-2.2-2.8c-1.7-0.3-3.2,1-3.2,2.6v4.8
		c0,3.3,1.3,6.5,3.7,8.9l1.2,1.2C-353.5,117-348.4,105.6-340,105.4z"/>
</g>
<g>
	<circle class="st24" cx="-585.8" cy="224.1" r="9.8"/>
	<circle class="st25" cx="-585.8" cy="224.1" r="6.1"/>
	<circle class="st24" cx="-529.6" cy="224.1" r="9.8"/>
	<circle class="st25" cx="-529.6" cy="224.1" r="6.1"/>
	<path class="st26" d="M-530.1,229.9c-1.2-2.1-1.9-4.5-1.9-7l0,0c0-10.7-6.6-19.9-15.9-23.7v-4.4l-6.1,2.4l-1.2-4.9
		c-3.2,1.1-6,3.3-8,5.5c-11.5,2.6-20.1,12.8-20.1,25c0,2.5-0.7,4.9-1.9,7c-1.9,3.2-2.9,6.9-2.9,10.7c0,13.8,13.7,25.1,30.6,25.1
		s30.6-11.2,30.6-25.1C-527.2,236.8-528.2,233.2-530.1,229.9z"/>
	<path class="st24" d="M-574.8,245c0-4.5,1.1-8.7,2.9-12.5c1.2-2.5,1.9-5.3,1.9-8.2c0-12.4,6.5-23.1,15.8-27.6l-1.1-4.4
		c-3.2,1.1-6,3.3-8,5.5c-11.5,2.6-20.1,12.8-20.1,25c0,2.5-0.7,4.9-1.9,7c-1.9,3.2-2.9,6.9-2.9,10.7c0,11.2,8.9,20.6,21.2,23.9
		C-571.9,259.3-574.8,252.5-574.8,245z"/>
	<path class="st27" d="M-557.7,260.8c10.1,0,18.3-6.6,18.3-14.7c0-1.7-0.4-3.3-1-4.8c-0.9-2.2-0.6-4.7,0.9-6.5
		c1.9-2.3,2.9-5.5,2.4-8.8c-0.7-4.6-4.5-8.4-9.1-9.1c-3.5-0.6-6.8,0.6-9.2,2.7c-0.7,0.6-1.5,0.9-2.4,0.9s-1.7-0.3-2.4-0.9
		c-2.3-2.1-5.6-3.3-9.2-2.7c-4.6,0.7-8.4,4.5-9.1,9.1c-0.5,3.4,0.5,6.5,2.4,8.8c1.5,1.8,1.8,4.3,0.9,6.5c-0.7,1.5-1,3.1-1,4.8
		C-576.1,254.3-567.9,260.8-557.7,260.8z"/>
	<path class="st28" d="M-576.1,246.2c0,2.7,1,5.3,2.6,7.5c-0.9-2.7-1.4-5.6-1.4-8.6c0-4.5,1.1-8.7,2.9-12.5c1.2-2.5,1.9-5.3,1.9-8.2
		c0-2.6,0.3-5,0.8-7.4h-0.1c-4.6,0.7-8.4,4.5-9.1,9.1c-0.5,3.4,0.5,6.5,2.4,8.8c1.5,1.8,1.8,4.3,0.9,6.5
		C-575.7,242.9-576.1,244.5-576.1,246.2z"/>
	<g>
		<path class="st29" d="M-560.2,240c-0.2,0-0.4,0-0.5-0.1l-2.4-1.2c-0.6-0.3-0.8-1-0.5-1.6c0.3-0.6,1-0.8,1.6-0.5l2.4,1.2
			c0.6,0.3,0.8,1,0.5,1.6C-559.3,239.8-559.7,240-560.2,240z"/>
		<path class="st29" d="M-555.3,240c-0.4,0-0.9-0.2-1.1-0.7c-0.3-0.6-0.1-1.3,0.5-1.6l2.4-1.2c0.6-0.3,1.3-0.1,1.6,0.5
			c0.3,0.6,0.1,1.3-0.5,1.6l-2.4,1.2C-554.9,240-555.1,240-555.3,240z"/>
	</g>
	<path class="st30" d="M-568.7,231.5L-568.7,231.5c-2,0-3.7-1.6-3.7-3.7v-1.2c0-2,1.6-3.7,3.7-3.7l0,0c2,0,3.7,1.6,3.7,3.7v1.2
		C-565.1,229.8-566.7,231.5-568.7,231.5z"/>
	<path class="st29" d="M-568.7,222.9v4.3c0,1,0.8,1.8,1.8,1.8s1.8-0.8,1.8-1.8v-0.6C-565.1,224.6-566.7,222.9-568.7,222.9z"/>
	<circle class="st11" cx="-568.7" cy="225.4" r="1.2"/>
	<path class="st30" d="M-546.7,231.5L-546.7,231.5c-2,0-3.7-1.6-3.7-3.7v-1.2c0-2,1.6-3.7,3.7-3.7l0,0c2,0,3.7,1.6,3.7,3.7v1.2
		C-543.1,229.8-544.7,231.5-546.7,231.5z"/>
	<path class="st29" d="M-546.7,222.9v4.3c0,1,0.8,1.8,1.8,1.8s1.8-0.8,1.8-1.8v-0.6C-543.1,224.6-544.7,222.9-546.7,222.9z"/>
	<circle class="st11" cx="-546.7" cy="225.4" r="1.2"/>
	<g>
		<path class="st24" d="M-577.7,258.4c-0.8,2-1.7,4.1-2.5,6.5c-0.6,1.6,0.6,3.3,2.3,3.3h8.9c0.9,0,1.8-0.5,2.2-1.4l0.5-1.1
			L-577.7,258.4z"/>
		<path class="st24" d="M-537.8,258.4c0.8,2,1.7,4.1,2.5,6.5c0.6,1.6-0.6,3.3-2.3,3.3h-8.9c-0.9,0-1.8-0.5-2.2-1.4l-0.5-1.1
			L-537.8,258.4z"/>
	</g>
	<path class="st28" d="M-538.8,241.3c-1.7,0.3-2.9,2-2.9,3.7v4.9l-3.9-3.9c-3.4-3.4-8.9-4.1-12.9-1.2c-5,3.6-5.3,10.7-1.2,14.8
		l5.5,5.5c3.6,3.6,9.6,3.6,13.2,0l1.6-1.6c3.2-3.2,5-7.6,5-12.1v-6.5C-534.5,242.7-536.5,240.9-538.8,241.3z"/>
	<path class="st25" d="M-555,243.2c-1.3,0.3-2.5,0.8-3.7,1.6c-5,3.6-5.3,10.7-1.2,14.8l3.8,3.8l2.1-2.1c2.5-2.5,3.8-6,3.5-9.6
		C-550.7,248.4-552.3,245.3-555,243.2z"/>
	<path class="st28" d="M-576.6,241.3c1.7,0.3,2.9,2,2.9,3.7v4.9l3.9-3.9c3.4-3.4,8.9-4.1,12.9-1.2c5,3.6,5.3,10.7,1.2,14.8l-5.5,5.5
		c-3.6,3.6-9.6,3.6-13.2,0l-1.6-1.6c-3.2-3.2-5-7.6-5-12.1v-6.5C-581,242.7-578.9,240.9-576.6,241.3z"/>
	<path class="st25" d="M-557.4,244.5c-3.9-2.5-9.1-1.7-12.3,1.6l-3.9,3.9v-4.9c0-1.8-1.2-3.4-2.9-3.7c-2.3-0.5-4.4,1.3-4.4,3.6v6.5
		c0,4.5,1.8,8.9,5,12.1l1.6,1.6C-575.8,260.2-568.8,244.7-557.4,244.5z"/>
</g>
<rect x="-618.6" y="-77.5" class="st31" width="184.4" height="52.3"/>
<text transform="matrix(1 0 0 1 -618.5863 -27.0968)" class="st34" style="font-family:'LobsterTwo-Bold'; font-size:72px;">apedir </text>
<path class="st32" d="M-580.6-29.9c-1.2,0.9-3.6,2.5-4.9,2.8c-1.2,0.3-2.4,0.4-3.3,0.4c-2.5,0-4.5-0.6-5.8-1.8
	c-1.3-1.2-2.2-2.8-2.8-4.9c-0.4,0.8-0.8,1.6-1.4,2.4c-0.5,0.8-1.2,1.5-1.9,2.1s-1.6,1.1-2.6,1.5s-2.1,0.6-3.4,0.6
	c-1.5,0-3-0.3-4.5-0.9c-1.5-0.6-2.8-1.5-4.1-2.8c-1.2-1.3-2.2-3-3-5.1c-0.7-2.1-1.1-4.8-1.1-7.9c0-2.2,0.3-4.5,0.8-6.8
	c0.5-2.4,1.3-4.5,2.4-6.5c1.1-2,2.5-3.6,4.2-4.9c1.8-1.3,3.9-1.9,6.4-1.9c0.6,0,1.2,0,1.9,0.1s1.3,0.2,1.9,0.5
	c0.6,0.3,1.2,0.6,1.7,1.2c0.5,0.5,0.9,1.2,1.2,2.1v-3.5h10.4v24.5c0,2,0.3,3.3,0.8,4c0.6,0.6,1.5,1,2.9,1c1.4,0,3.5-1.8,4.4-3
	 M-598.8-56.2c0-0.2-0.1-0.4-0.3-0.8c-0.1-0.3-0.4-0.6-0.6-0.9c-0.3-0.3-0.6-0.6-1.1-0.8c-0.4-0.2-0.9-0.3-1.5-0.3
	c-1.2,0-2.1,0.5-3,1.5c-0.8,1-1.5,2.2-2,3.7s-0.9,3.1-1.1,4.8c-0.2,1.8-0.4,3.4-0.4,5c0,2.5,0.2,4.5,0.6,5.9
	c0.4,1.4,0.9,2.4,1.4,3.1c0.6,0.6,1.1,1,1.8,1.2c0.6,0.1,1.2,0.2,1.6,0.2c0.5,0,1.1-0.1,1.6-0.4c0.6-0.3,1.1-0.7,1.5-1.2
	c0.5-0.5,0.8-1.2,1.1-2s0.4-1.7,0.4-2.8V-56.2z"/>
<path class="st32" d="M-569.9-65.8v5.4c0.8-0.9,1.8-1.6,3.1-2.2c1.2-0.6,2.8-0.9,4.5-0.9c1.6,0,3.2,0.3,4.6,0.9
	c1.5,0.6,2.8,1.6,3.9,3c1.1,1.4,2,3.2,2.7,5.4c0.7,2.3,1,5,1,8.2c0,2.3-0.2,4.6-0.6,6.9c-0.4,2.3-1.1,4.4-2.1,6.2s-2.4,3.3-4.1,4.4
	c-1.7,1.1-3.8,1.7-6.4,1.7c-1.8,0-3.3-0.3-4.3-0.8c-1.1-0.5-1.8-1.1-2.4-1.8v17.5l-10.4,2.6V-66h10.5V-65.8z M-566.7-32.9
	c1.2,0,2.3-0.4,3.2-1.3c0.9-0.8,1.5-1.9,2.1-3.3c0.5-1.3,0.9-2.8,1.1-4.5s0.3-3.3,0.3-4.9c0-2.6-0.2-4.7-0.7-6.3
	c-0.5-1.5-1-2.7-1.6-3.4c-0.6-0.7-1.2-1.2-1.8-1.4c-0.6-0.2-1.1-0.3-1.4-0.3c-0.9,0-1.7,0.3-2.5,0.9c-0.8,0.6-1.4,1.5-1.8,2.7v20.1
	c0.2,0.4,0.6,0.8,1.2,1.1C-568.2-33.1-567.5-32.9-566.7-32.9z"/>
<path class="st32" d="M-518.9-35.1c-0.9,1.6-2.1,3-3.5,4.2c-1.4,1.2-3,2.3-4.8,3c-1.8,0.8-4,1.2-6.4,1.2c-2.1,0-4-0.3-5.7-0.9
	c-1.7-0.6-3.2-1.6-4.5-2.9c-1.3-1.3-2.3-3-3-5.1s-1-4.6-1-7.5c0-2.1,0.2-4.3,0.7-6.7s1.3-4.6,2.4-6.6c1.2-2,2.7-3.7,4.7-5
	s4.5-2,7.5-2c2.3,0,4.1,0.4,5.3,1.1c1.2,0.7,2.2,1.6,2.8,2.5c0.6,1,1,1.9,1.1,2.8c0.1,0.9,0.2,1.6,0.2,1.9c0,2.2-0.4,4.1-1.2,5.7
	c-0.8,1.6-1.8,3-3.2,4.1c-1.3,1.1-2.8,2-4.5,2.6s-3.4,0.9-5.2,1c0,3.2,0.6,5.5,1.6,6.9s2.8,2.1,5.4,2.1c1.4,0,2.7-0.2,3.8-0.6
	c1.1-0.4,2.1-0.9,3-1.5c0.9-0.6,2.9-2.8,3.6-3.7 M-528.6-55c0-1.7-0.3-2.9-0.9-3.5c-0.6-0.7-1.2-1-1.9-1c-0.8,0-1.6,0.4-2.2,1.2
	c-0.7,0.8-1.3,1.8-1.8,3.2c-0.5,1.3-0.9,2.9-1.2,4.6c-0.3,1.8-0.5,3.6-0.6,5.5c1.2-0.1,2.3-0.4,3.4-1c1.1-0.5,2-1.3,2.7-2.1
	c0.8-0.9,1.4-1.9,1.8-3C-528.9-52.4-528.6-53.6-528.6-55z"/>
<path class="st32" d="M-480-31.9c-1,1.8-1.4,2-2.6,3c-1.2,0.9-2.4,1.5-3.7,1.8c-1.2,0.3-2.4,0.4-3.3,0.4c-2.5,0-4.5-0.6-5.8-1.8
	c-1.3-1.2-2.2-2.8-2.8-4.9c-0.4,0.8-0.8,1.6-1.4,2.4c-0.5,0.8-1.2,1.5-1.9,2.1s-1.6,1.1-2.6,1.5s-2.1,0.6-3.4,0.6
	c-1.5,0-3-0.3-4.5-0.9c-1.5-0.6-2.8-1.5-4.1-2.8c-1.2-1.3-2.2-3-3-5.1c-0.7-2.1-1.1-4.8-1.1-7.9c0-2.2,0.3-4.5,0.8-6.8
	c0.5-2.4,1.3-4.5,2.4-6.5s2.5-3.6,4.2-4.9c1.8-1.3,3.9-1.9,6.4-1.9c0.6,0,1.2,0,1.9,0.1s1.3,0.2,1.9,0.5s1.2,0.6,1.7,1.2
	c0.5,0.5,0.9,1.2,1.2,2.1v-16.4l10.4-1.4v38.9c0,2,0.3,3.3,0.8,4c0.6,0.6,1.5,1,2.9,1c1.4,0,2.6-0.6,3.5-1.8c0.9-1.2,0.8-1.9,1-3.7
	 M-499.6-56.2c0-0.2-0.1-0.4-0.3-0.8c-0.1-0.3-0.4-0.6-0.6-0.9c-0.3-0.3-0.6-0.6-1.1-0.8c-0.4-0.2-0.9-0.3-1.5-0.3
	c-1.2,0-2.1,0.5-3,1.5c-0.8,1-1.5,2.2-2,3.7s-0.9,3.1-1.1,4.8c-0.2,1.8-0.4,3.4-0.4,5c0,2.5,0.2,4.5,0.6,5.9
	c0.4,1.4,0.9,2.4,1.4,3.1c0.6,0.6,1.1,1,1.8,1.2c0.6,0.1,1.2,0.2,1.6,0.2c0.5,0,1.1-0.1,1.6-0.4c0.6-0.3,1.1-0.7,1.5-1.2
	c0.5-0.5,0.8-1.2,1.1-2s0.4-1.7,0.4-2.8V-56.2z"/>
<path class="st32" d="M-481.8-72.7c0-1.6,0.6-2.9,1.7-4.1c1.1-1.1,2.4-1.7,4-1.7s2.9,0.6,4.1,1.7c1.1,1.1,1.7,2.5,1.7,4.1
	c0,1.6-0.6,2.9-1.7,4c-1.1,1.1-2.5,1.7-4.1,1.7s-2.9-0.6-4-1.7C-481.3-69.7-481.8-71.1-481.8-72.7z M-461.8-30.1
	c-1.2,0.9-4.7,2.7-5.9,3c-1.2,0.3-2.4,0.4-3.3,0.4c-3.7,0-6.3-1-7.8-3.1c-1.5-2-2.2-4.7-2.2-8.1v-25.3h10.4v24.5c0,2,0.3,3.3,0.8,4
	c0.6,0.6,1.5,1,2.9,1c1.4,0,2.6-0.6,3.5-1.8c0.9-1.2,1.5-2.7,1.6-4.5"/>
<path class="st32" d="M-451.5-63.1v4.5c1.1-1.2,2.2-2.4,3.5-3.3c1.3-1,2.7-1.5,4.2-1.5c0.9,0,1.7,0.2,2.5,0.6
	c0.7,0.4,1.4,0.9,1.9,1.5c0.6,0.6,1,1.3,1.3,2.1c0.3,0.7,0.5,1.5,0.5,2.3c0,1.1-0.3,2-1,2.9c-0.6,0.9-1.7,1.3-3.2,1.3
	c-1.1,0-1.9-0.2-2.3-0.7s-0.8-1-1-1.5c-0.2-0.6-0.5-1.1-0.8-1.5c-0.3-0.5-0.7-0.7-1.4-0.7c-0.7,0-1.4,0.3-2.1,0.8
	c-0.7,0.6-1.4,1.2-2.2,2.1v27.4H-462v-36h10.5V-63.1z"/>
<rect x="-512.1" y="212.4" class="st31" width="184.4" height="52.3"/>
<text transform="matrix(1 0 0 1 -512.0996 262.7817)" class="st34" style="font-family:'LobsterTwo-Bold'; font-size:72px;">apedir </text>
<path class="st32" d="M-474.2,260c-1.2,0.9-3.6,2.5-4.9,2.8c-1.2,0.3-2.4,0.4-3.3,0.4c-2.5,0-4.5-0.6-5.8-1.8
	c-1.3-1.2-2.2-2.8-2.8-4.9c-0.4,0.8-0.8,1.6-1.4,2.4c-0.5,0.8-1.2,1.5-1.9,2.1s-1.6,1.1-2.6,1.5s-2.1,0.6-3.4,0.6
	c-1.5,0-3-0.3-4.5-0.9s-2.8-1.5-4.1-2.8c-1.2-1.3-2.2-3-3-5.1c-0.7-2.1-1.1-4.8-1.1-7.9c0-2.2,0.3-4.5,0.8-6.8
	c0.5-2.4,1.3-4.5,2.4-6.5s2.5-3.6,4.2-4.9c1.8-1.3,3.9-1.9,6.4-1.9c0.6,0,1.2,0,1.9,0.1c0.7,0.1,1.3,0.2,1.9,0.5
	c0.6,0.3,1.2,0.6,1.7,1.2c0.5,0.5,0.9,1.2,1.2,2.1v-3.5h10.5v24.5c0,2,0.3,3.3,0.8,4c0.6,0.6,1.5,1,2.9,1c1.4,0,3.5-1.8,4.4-3
	 M-492.4,233.7c0-0.2-0.1-0.4-0.3-0.8c-0.1-0.3-0.4-0.6-0.6-0.9c-0.3-0.3-0.6-0.6-1.1-0.8c-0.4-0.2-0.9-0.3-1.5-0.3
	c-1.2,0-2.1,0.5-3,1.5c-0.8,1-1.5,2.2-2,3.7s-0.9,3.1-1.1,4.8c-0.2,1.8-0.4,3.4-0.4,5c0,2.5,0.2,4.5,0.6,5.9
	c0.4,1.4,0.9,2.4,1.4,3.1c0.6,0.6,1.1,1,1.8,1.2c0.6,0.1,1.2,0.2,1.6,0.2c0.5,0,1.1-0.1,1.6-0.4c0.6-0.3,1.1-0.7,1.5-1.2
	c0.5-0.5,0.8-1.2,1.1-2s0.4-1.7,0.4-2.8V233.7z"/>
<path class="st32" d="M-463.4,224.1v5.4c0.8-0.9,1.8-1.6,3.1-2.2c1.2-0.6,2.8-0.9,4.5-0.9c1.6,0,3.2,0.3,4.6,0.9
	c1.5,0.6,2.8,1.6,3.9,3c1.1,1.4,2,3.2,2.7,5.4c0.7,2.3,1,5,1,8.2c0,2.3-0.2,4.6-0.6,6.9c-0.4,2.3-1.1,4.4-2.1,6.2
	c-1,1.8-2.4,3.3-4.1,4.4c-1.7,1.1-3.8,1.7-6.4,1.7c-1.8,0-3.3-0.3-4.3-0.8c-1.1-0.5-1.8-1.1-2.4-1.8V278l-10.4,2.6v-56.7h10.5V224.1
	z M-460.2,256.9c1.2,0,2.3-0.4,3.2-1.3c0.9-0.8,1.5-1.9,2.1-3.3c0.5-1.3,0.9-2.8,1.1-4.5s0.3-3.3,0.3-4.9c0-2.6-0.2-4.7-0.7-6.3
	c-0.5-1.5-1-2.7-1.6-3.4c-0.6-0.7-1.2-1.2-1.8-1.4c-0.6-0.2-1.1-0.3-1.4-0.3c-0.9,0-1.7,0.3-2.5,0.9c-0.8,0.6-1.4,1.5-1.8,2.7v20.1
	c0.2,0.4,0.6,0.8,1.2,1.1C-461.7,256.8-461,256.9-460.2,256.9z"/>
<path class="st32" d="M-412.4,254.8c-0.9,1.6-2.1,3-3.5,4.2s-3,2.3-4.8,3c-1.8,0.8-4,1.2-6.4,1.2c-2.1,0-4-0.3-5.7-0.9
	s-3.2-1.6-4.5-2.9s-2.3-3-3-5.1s-1-4.6-1-7.5c0-2.1,0.2-4.3,0.7-6.7c0.5-2.4,1.3-4.6,2.4-6.6c1.2-2,2.7-3.7,4.7-5s4.5-2,7.5-2
	c2.3,0,4.1,0.4,5.3,1.1c1.2,0.7,2.2,1.6,2.8,2.5c0.6,1,1,1.9,1.1,2.8s0.2,1.6,0.2,1.9c0,2.2-0.4,4.1-1.2,5.7s-1.8,3-3.2,4.1
	c-1.3,1.1-2.8,2-4.5,2.6c-1.7,0.6-3.4,0.9-5.2,1c0,3.2,0.6,5.5,1.6,6.9s2.8,2.1,5.4,2.1c1.4,0,2.7-0.2,3.8-0.6
	c1.1-0.4,2.1-0.9,3-1.5c0.9-0.6,2.9-2.8,3.6-3.7 M-422.2,234.9c0-1.7-0.3-2.9-0.9-3.5c-0.6-0.7-1.2-1-1.9-1c-0.8,0-1.6,0.4-2.2,1.2
	c-0.7,0.8-1.3,1.8-1.8,3.2c-0.5,1.3-0.9,2.9-1.2,4.6c-0.3,1.8-0.5,3.6-0.6,5.5c1.2-0.1,2.3-0.4,3.4-1c1.1-0.5,2-1.3,2.7-2.1
	c0.8-0.9,1.4-1.9,1.8-3C-422.4,237.5-422.2,236.2-422.2,234.9z"/>
<path class="st32" d="M-373.5,258c-1,1.8-1.4,2-2.6,3c-1.2,0.9-2.4,1.5-3.7,1.8c-1.2,0.3-2.4,0.4-3.3,0.4c-2.5,0-4.5-0.6-5.8-1.8
	c-1.3-1.2-2.2-2.8-2.8-4.9c-0.4,0.8-0.8,1.6-1.4,2.4c-0.5,0.8-1.2,1.5-1.9,2.1c-0.7,0.6-1.6,1.1-2.6,1.5s-2.1,0.6-3.4,0.6
	c-1.5,0-3-0.3-4.5-0.9s-2.8-1.5-4.1-2.8c-1.2-1.3-2.2-3-3-5.1c-0.7-2.1-1.1-4.8-1.1-7.9c0-2.2,0.3-4.5,0.8-6.8
	c0.5-2.4,1.3-4.5,2.4-6.5s2.5-3.6,4.2-4.9c1.8-1.3,3.9-1.9,6.4-1.9c0.6,0,1.2,0,1.9,0.1c0.7,0.1,1.3,0.2,1.9,0.5
	c0.6,0.3,1.2,0.6,1.7,1.2c0.5,0.5,0.9,1.2,1.2,2.1v-16.4l10.4-1.4v38.9c0,2,0.3,3.3,0.8,4c0.6,0.6,1.5,1,2.9,1s2.6-0.6,3.5-1.8
	c0.9-1.2,0.8-1.9,1-3.7 M-393.1,233.7c0-0.2-0.1-0.4-0.3-0.8c-0.1-0.3-0.4-0.6-0.6-0.9c-0.3-0.3-0.6-0.6-1.1-0.8
	c-0.4-0.2-0.9-0.3-1.5-0.3c-1.2,0-2.1,0.5-3,1.5c-0.8,1-1.5,2.2-2,3.7s-0.9,3.1-1.1,4.8c-0.2,1.8-0.4,3.4-0.4,5
	c0,2.5,0.2,4.5,0.6,5.9c0.4,1.4,0.9,2.4,1.4,3.1c0.6,0.6,1.1,1,1.8,1.2c0.6,0.1,1.2,0.2,1.6,0.2c0.5,0,1.1-0.1,1.6-0.4
	c0.6-0.3,1.1-0.7,1.5-1.2c0.5-0.5,0.8-1.2,1.1-2s0.4-1.7,0.4-2.8V233.7z"/>
<path class="st32" d="M-375.4,217.2c0-1.6,0.6-2.9,1.7-4.1c1.1-1.1,2.4-1.7,4-1.7s2.9,0.6,4.1,1.7c1.1,1.1,1.7,2.5,1.7,4.1
	s-0.6,2.9-1.7,4s-2.5,1.7-4.1,1.7s-2.9-0.6-4-1.7S-375.4,218.8-375.4,217.2z M-355.3,259.8c-1.2,0.9-4.7,2.7-5.9,3
	c-1.2,0.3-2.4,0.4-3.3,0.4c-3.7,0-6.3-1-7.8-3.1c-1.5-2-2.2-4.7-2.2-8.1v-25.3h10.4v24.5c0,2,0.3,3.3,0.8,4c0.6,0.6,1.5,1,2.9,1
	s2.6-0.6,3.5-1.8c0.9-1.2,1.5-2.7,1.6-4.5"/>
<path class="st32" d="M-345,226.8v4.5c1.1-1.2,2.2-2.4,3.5-3.3c1.3-1,2.7-1.5,4.2-1.5c0.9,0,1.7,0.2,2.5,0.6
	c0.7,0.4,1.4,0.9,1.9,1.5c0.6,0.6,1,1.3,1.3,2.1c0.3,0.7,0.5,1.5,0.5,2.3c0,1.1-0.3,2-1,2.9c-0.6,0.9-1.7,1.3-3.2,1.3
	c-1.1,0-1.9-0.2-2.3-0.7s-0.8-1-1-1.5c-0.2-0.6-0.5-1.1-0.8-1.5c-0.3-0.5-0.7-0.7-1.4-0.7c-0.7,0-1.4,0.3-2.1,0.8
	c-0.7,0.6-1.4,1.2-2.2,2.1v27.4h-10.4v-36h10.5V226.8z"/>
<g>
	<circle class="st24" cx="-446.8" cy="365.2" r="9.8"/>
	<circle class="st25" cx="-446.8" cy="365.2" r="6.1"/>
	<circle class="st24" cx="-390.5" cy="365.2" r="9.8"/>
	<circle class="st25" cx="-390.5" cy="365.2" r="6.1"/>
	<path class="st26" d="M-391,371c-1.2-2.1-1.9-4.5-1.9-7l0,0c0-10.7-6.6-19.9-15.9-23.7v-4.4l-6.1,2.4l-1.2-4.9
		c-3.2,1.1-6,3.3-8,5.5c-11.5,2.6-20.1,12.8-20.1,25c0,2.5-0.7,4.9-1.9,7c-1.9,3.2-2.9,6.9-2.9,10.7c0,13.8,13.7,25.1,30.6,25.1
		c16.9,0,30.6-11.2,30.6-25.1C-388.1,377.9-389.2,374.2-391,371z"/>
	<path class="st24" d="M-435.8,386.1c0-4.5,1.1-8.7,2.9-12.5c1.2-2.5,1.9-5.3,1.9-8.2c0-12.4,6.5-23.1,15.8-27.6l-1.1-4.4
		c-3.2,1.1-6,3.3-8,5.5c-11.5,2.6-20.1,12.8-20.1,25c0,2.5-0.7,4.9-1.9,7c-1.9,3.2-2.9,6.9-2.9,10.7c0,11.2,8.9,20.6,21.2,23.9
		C-432.8,400.4-435.8,393.6-435.8,386.1z"/>
	<path class="st27" d="M-418.7,401.9c10.1,0,18.3-6.6,18.3-14.7c0-1.7-0.4-3.3-1-4.8c-0.9-2.2-0.6-4.7,0.9-6.5
		c1.9-2.3,2.9-5.5,2.4-8.8c-0.7-4.6-4.5-8.4-9.1-9.1c-3.5-0.6-6.8,0.6-9.2,2.7c-0.7,0.6-1.5,0.9-2.4,0.9c-0.9,0-1.7-0.3-2.4-0.9
		c-2.3-2.1-5.6-3.3-9.2-2.7c-4.6,0.7-8.4,4.5-9.1,9.1c-0.5,3.4,0.5,6.5,2.4,8.8c1.5,1.8,1.8,4.3,0.9,6.5c-0.7,1.5-1,3.1-1,4.8
		C-437,395.3-428.8,401.9-418.7,401.9z"/>
	<path class="st28" d="M-437,387.2c0,2.7,1,5.3,2.6,7.5c-0.9-2.7-1.4-5.6-1.4-8.6c0-4.5,1.1-8.7,2.9-12.5c1.2-2.5,1.9-5.3,1.9-8.2
		c0-2.6,0.3-5,0.8-7.4h-0.1c-4.6,0.7-8.4,4.5-9.1,9.1c-0.5,3.4,0.5,6.5,2.4,8.8c1.5,1.8,1.8,4.3,0.9,6.5
		C-436.7,383.9-437,385.5-437,387.2z"/>
	<g>
		<path class="st29" d="M-421.1,381.1c-0.2,0-0.4,0-0.5-0.1l-2.4-1.2c-0.6-0.3-0.8-1-0.5-1.6s1-0.8,1.6-0.5l2.4,1.2
			c0.6,0.3,0.8,1,0.5,1.6C-420.2,380.8-420.7,381.1-421.1,381.1z"/>
		<path class="st29" d="M-416.2,381.1c-0.4,0-0.9-0.2-1.1-0.7c-0.3-0.6-0.1-1.3,0.5-1.6l2.4-1.2c0.6-0.3,1.3-0.1,1.6,0.5
			c0.3,0.6,0.1,1.3-0.5,1.6l-2.4,1.2C-415.9,381.1-416,381.1-416.2,381.1z"/>
	</g>
	<path class="st30" d="M-429.7,372.5L-429.7,372.5c-2,0-3.7-1.6-3.7-3.7v-1.2c0-2,1.6-3.7,3.7-3.7l0,0c2,0,3.7,1.6,3.7,3.7v1.2
		C-426,370.9-427.6,372.5-429.7,372.5z"/>
	<path class="st29" d="M-429.7,364v4.3c0,1,0.8,1.8,1.8,1.8s1.8-0.8,1.8-1.8v-0.6C-426,365.6-427.6,364-429.7,364z"/>
	<circle class="st11" cx="-429.7" cy="366.4" r="1.2"/>
	<path class="st30" d="M-407.7,372.5L-407.7,372.5c-2,0-3.7-1.6-3.7-3.7v-1.2c0-2,1.6-3.7,3.7-3.7l0,0c2,0,3.7,1.6,3.7,3.7v1.2
		C-404,370.9-405.6,372.5-407.7,372.5z"/>
	<path class="st29" d="M-407.7,364v4.3c0,1,0.8,1.8,1.8,1.8s1.8-0.8,1.8-1.8v-0.6C-404,365.6-405.6,364-407.7,364z"/>
	<circle class="st11" cx="-407.7" cy="366.4" r="1.2"/>
	<g>
		<path class="st24" d="M-438.6,399.4c-0.8,2-1.7,4.1-2.5,6.5c-0.6,1.6,0.6,3.3,2.3,3.3h8.9c0.9,0,1.8-0.5,2.2-1.4l0.5-1.1
			L-438.6,399.4z"/>
		<path class="st24" d="M-398.7,399.4c0.8,2,1.7,4.1,2.5,6.5c0.6,1.6-0.6,3.3-2.3,3.3h-8.9c-0.9,0-1.8-0.5-2.2-1.4l-0.5-1.1
			L-398.7,399.4z"/>
	</g>
	<path class="st28" d="M-399.8,382.4c-1.7,0.3-2.9,2-2.9,3.7v4.9l-3.9-3.9c-3.4-3.4-8.9-4.1-12.9-1.2c-5,3.6-5.3,10.7-1.2,14.8
		l5.5,5.5c3.6,3.6,9.6,3.6,13.2,0l1.6-1.6c3.2-3.2,5-7.6,5-12.1V386C-395.4,383.7-397.5,381.9-399.8,382.4z"/>
	<path class="st25" d="M-415.9,384.3c-1.3,0.3-2.5,0.8-3.7,1.6c-5,3.6-5.3,10.7-1.2,14.8l3.8,3.8l2.1-2.1c2.5-2.5,3.8-6,3.5-9.6
		C-411.6,389.5-413.3,386.4-415.9,384.3z"/>
	<path class="st28" d="M-437.5,382.4c1.7,0.3,2.9,2,2.9,3.7v4.9l3.9-3.9c3.4-3.4,8.9-4.1,12.9-1.2c5,3.6,5.3,10.7,1.2,14.8l-5.5,5.5
		c-3.6,3.6-9.6,3.6-13.2,0l-1.6-1.6c-3.2-3.2-5-7.6-5-12.1V386C-441.9,383.7-439.9,381.9-437.5,382.4z"/>
	<path class="st25" d="M-418.3,385.5c-3.9-2.5-9.1-1.7-12.3,1.6l-3.9,3.9v-4.9c0-1.8-1.2-3.4-2.9-3.7c-2.3-0.5-4.4,1.3-4.4,3.6v6.5
		c0,4.5,1.8,8.9,5,12.1l1.6,1.6C-436.7,401.2-429.7,385.7-418.3,385.5z"/>
</g>
<rect x="-511.7" y="404.4" class="st31" width="184.4" height="52.3"/>
<text transform="matrix(1 0 0 1 -511.7135 454.8094)" class="st34" style="font-family:'LobsterTwo-Bold'; font-size:72px;">apedir </text>
<path class="st32" d="M-473.8,452c-1.2,0.9-3.6,2.5-4.9,2.8c-1.2,0.3-2.4,0.4-3.3,0.4c-2.5,0-4.5-0.6-5.8-1.8
	c-1.3-1.2-2.2-2.8-2.8-4.9c-0.4,0.8-0.8,1.6-1.4,2.4c-0.5,0.8-1.2,1.5-1.9,2.1s-1.6,1.1-2.6,1.5s-2.1,0.6-3.4,0.6
	c-1.5,0-3-0.3-4.5-0.9c-1.5-0.6-2.8-1.5-4.1-2.8c-1.2-1.3-2.2-3-3-5.1c-0.7-2.1-1.1-4.8-1.1-7.9c0-2.2,0.3-4.5,0.8-6.8
	c0.5-2.4,1.3-4.5,2.4-6.5s2.5-3.6,4.2-4.9c1.8-1.3,3.9-1.9,6.4-1.9c0.6,0,1.2,0,1.9,0.1c0.7,0.1,1.3,0.2,1.9,0.5
	c0.6,0.3,1.2,0.6,1.7,1.2c0.5,0.5,0.9,1.2,1.2,2.1v-3.5h10.4v24.5c0,2,0.3,3.3,0.8,4c0.6,0.6,1.5,1,2.9,1s3.5-1.8,4.4-3 M-492,425.7
	c0-0.2-0.1-0.4-0.3-0.8c-0.1-0.3-0.4-0.6-0.6-0.9c-0.3-0.3-0.6-0.6-1.1-0.8c-0.4-0.2-0.9-0.3-1.5-0.3c-1.2,0-2.1,0.5-3,1.5
	c-0.8,1-1.5,2.2-2,3.7s-0.9,3.1-1.1,4.8c-0.2,1.8-0.4,3.4-0.4,5c0,2.5,0.2,4.5,0.6,5.9c0.4,1.4,0.9,2.4,1.4,3.1
	c0.6,0.6,1.1,1,1.8,1.2c0.6,0.1,1.2,0.2,1.6,0.2c0.5,0,1.1-0.1,1.6-0.4c0.6-0.3,1.1-0.7,1.5-1.2c0.5-0.5,0.8-1.2,1.1-2
	s0.4-1.7,0.4-2.8V425.7z"/>
<path class="st32" d="M-463,416.1v5.4c0.8-0.9,1.8-1.6,3.1-2.2c1.2-0.6,2.8-0.9,4.5-0.9c1.6,0,3.2,0.3,4.6,0.9
	c1.5,0.6,2.8,1.6,3.9,3s2,3.2,2.7,5.4c0.7,2.3,1,5,1,8.2c0,2.3-0.2,4.6-0.6,6.9c-0.4,2.3-1.1,4.4-2.1,6.2s-2.4,3.3-4.1,4.4
	c-1.7,1.1-3.8,1.7-6.4,1.7c-1.8,0-3.3-0.3-4.3-0.8c-1.1-0.5-1.8-1.1-2.4-1.8V470l-10.4,2.6v-56.7h10.5V416.1z M-459.8,449
	c1.2,0,2.3-0.4,3.2-1.3c0.9-0.8,1.5-1.9,2.1-3.3c0.5-1.3,0.9-2.8,1.1-4.5c0.2-1.7,0.3-3.3,0.3-4.9c0-2.6-0.2-4.7-0.7-6.3
	c-0.5-1.5-1-2.7-1.6-3.4s-1.2-1.2-1.8-1.4c-0.6-0.2-1.1-0.3-1.4-0.3c-0.9,0-1.7,0.3-2.5,0.9c-0.8,0.6-1.4,1.5-1.8,2.7v20.1
	c0.2,0.4,0.6,0.8,1.2,1.1C-461.3,448.8-460.6,449-459.8,449z"/>
<path class="st32" d="M-412,446.8c-0.9,1.6-2.1,3-3.5,4.2s-3,2.3-4.8,3c-1.8,0.8-4,1.2-6.4,1.2c-2.1,0-4-0.3-5.7-0.9
	c-1.7-0.6-3.2-1.6-4.5-2.9c-1.3-1.3-2.3-3-3-5.1s-1-4.6-1-7.5c0-2.1,0.2-4.3,0.7-6.7s1.3-4.6,2.4-6.6c1.2-2,2.7-3.7,4.7-5
	s4.5-2,7.5-2c2.3,0,4.1,0.4,5.3,1.1c1.2,0.7,2.2,1.6,2.8,2.5c0.6,1,1,1.9,1.1,2.8c0.1,0.9,0.2,1.6,0.2,1.9c0,2.2-0.4,4.1-1.2,5.7
	c-0.8,1.6-1.8,3-3.2,4.1c-1.3,1.1-2.8,2-4.5,2.6c-1.7,0.6-3.4,0.9-5.2,1c0,3.2,0.6,5.5,1.6,6.9s2.8,2.1,5.4,2.1
	c1.4,0,2.7-0.2,3.8-0.6c1.1-0.4,2.1-0.9,3-1.5c0.9-0.6,2.9-2.8,3.6-3.7 M-421.8,426.9c0-1.7-0.3-2.9-0.9-3.5c-0.6-0.7-1.2-1-1.9-1
	c-0.8,0-1.6,0.4-2.2,1.2c-0.7,0.8-1.3,1.8-1.8,3.2c-0.5,1.3-0.9,2.9-1.2,4.6c-0.3,1.8-0.5,3.6-0.6,5.5c1.2-0.1,2.3-0.4,3.4-1
	c1.1-0.5,2-1.3,2.7-2.1c0.8-0.9,1.4-1.9,1.8-3C-422,429.5-421.8,428.3-421.8,426.9z"/>
<path class="st32" d="M-373.2,450c-1,1.8-1.4,2-2.6,3c-1.2,0.9-2.4,1.5-3.7,1.8c-1.2,0.3-2.4,0.4-3.3,0.4c-2.5,0-4.5-0.6-5.8-1.8
	c-1.3-1.2-2.2-2.8-2.8-4.9c-0.4,0.8-0.8,1.6-1.4,2.4c-0.5,0.8-1.2,1.5-1.9,2.1s-1.6,1.1-2.6,1.5s-2.1,0.6-3.4,0.6
	c-1.5,0-3-0.3-4.5-0.9c-1.5-0.6-2.8-1.5-4.1-2.8c-1.2-1.3-2.2-3-3-5.1c-0.7-2.1-1.1-4.8-1.1-7.9c0-2.2,0.3-4.5,0.8-6.8
	c0.5-2.4,1.3-4.5,2.4-6.5c1.1-2,2.5-3.6,4.2-4.9c1.8-1.3,3.9-1.9,6.4-1.9c0.6,0,1.2,0,1.9,0.1s1.3,0.2,1.9,0.5
	c0.6,0.3,1.2,0.6,1.7,1.2c0.5,0.5,0.9,1.2,1.2,2.1v-16.4l10.4-1.4v38.9c0,2,0.3,3.3,0.8,4c0.6,0.6,1.5,1,2.9,1s2.6-0.6,3.5-1.8
	s0.8-1.9,1-3.7 M-392.8,425.7c0-0.2-0.1-0.4-0.3-0.8c-0.1-0.3-0.4-0.6-0.6-0.9c-0.3-0.3-0.6-0.6-1.1-0.8c-0.4-0.2-0.9-0.3-1.5-0.3
	c-1.2,0-2.1,0.5-3,1.5c-0.8,1-1.5,2.2-2,3.7s-0.9,3.1-1.1,4.8c-0.2,1.8-0.4,3.4-0.4,5c0,2.5,0.2,4.5,0.6,5.9
	c0.4,1.4,0.9,2.4,1.4,3.1c0.6,0.6,1.1,1,1.8,1.2c0.6,0.1,1.2,0.2,1.6,0.2c0.5,0,1.1-0.1,1.6-0.4c0.6-0.3,1.1-0.7,1.5-1.2
	c0.5-0.5,0.8-1.2,1.1-2c0.3-0.8,0.4-1.7,0.4-2.8V425.7z"/>
<path class="st32" d="M-375,409.2c0-1.6,0.6-2.9,1.7-4.1c1.1-1.1,2.4-1.7,4-1.7s2.9,0.6,4.1,1.7c1.1,1.1,1.7,2.5,1.7,4.1
	s-0.6,2.9-1.7,4s-2.5,1.7-4.1,1.7s-2.9-0.6-4-1.7C-374.4,412.2-375,410.8-375,409.2z M-355,451.8c-1.2,0.9-4.7,2.7-5.9,3
	c-1.2,0.3-2.4,0.4-3.3,0.4c-3.7,0-6.3-1-7.8-3.1c-1.5-2-2.2-4.7-2.2-8.1v-25.3h10.4v24.5c0,2,0.3,3.3,0.8,4c0.6,0.6,1.5,1,2.9,1
	s2.6-0.6,3.5-1.8s1.5-2.7,1.6-4.5"/>
<path class="st32" d="M-344.6,418.8v4.5c1.1-1.2,2.2-2.4,3.5-3.3c1.3-1,2.7-1.5,4.2-1.5c0.9,0,1.7,0.2,2.5,0.6
	c0.7,0.4,1.4,0.9,1.9,1.5c0.6,0.6,1,1.3,1.3,2.1c0.3,0.7,0.5,1.5,0.5,2.3c0,1.1-0.3,2-1,2.9c-0.6,0.9-1.7,1.3-3.2,1.3
	c-1.1,0-1.9-0.2-2.3-0.7s-0.8-1-1-1.5c-0.2-0.6-0.5-1.1-0.8-1.5c-0.3-0.5-0.7-0.7-1.4-0.7c-0.7,0-1.4,0.3-2.1,0.8
	c-0.7,0.6-1.4,1.2-2.2,2.1v27.4H-355v-36h10.4V418.8z"/>
<rect x="-318.3" y="-91" class="st31" width="139.5" height="66.4"/>
<text transform="matrix(1 0 0 1 -318.2589 -49.0131)" class="st34" style="font-family:'wonder'; font-size:60px;">apedir</text>
<rect x="-310.9" y="66.2" class="st31" width="125.3" height="66.4"/>
<text transform="matrix(1 0 0 1 -310.8591 108.2345)" class="st34" style="font-family:'wonder'; font-size:60px;">apedir</text>
<rect x="-581.2" y="123.4" class="st31" width="102.1" height="19.1"/>
<text transform="matrix(1 0 0 1 -581.1629 140.6497)" class="st34" style="font-family:'BlackOpsOne-Regular'; font-size:24px;">Apedir</text>
<g class="st33">
	<path class="st34" d="M71.2,39.2h-8.2l9.1-24.4L75.8,25L71.2,39.2z M81.8,36.4h-8.3l1.8-5.1h4.6L73,13.7h8.3l10.2,25.5h-8.6
		L81.8,36.4z"/>
	<path class="st34" d="M93.6,46V18.8h8.5V46H93.6z M107.2,23.9h-3.8v-2.6l2.5-2.5h4.7l5.1,5.1v10.2l-5.1,5.1h-7.2v-4.8h3.8V23.9z"/>
	<path class="st34" d="M127.9,39.2h-3.4l-5.1-5.1V23.9l5.1-5.1h3.4V39.2z M129.2,31v-3.6h4.5v-3.6h-4.5v-5.1h7.2l5.1,5.1V31H129.2z
		 M129.2,39.2v-4.8h11.4v2.2l-2.5,2.6H129.2z"/>
	<path class="st34" d="M153.5,34.4h4.1v2.8l-2,2h-6l-4.6-4.6V23.4l4.6-4.6h8v5.1h-4.1V34.4z M167.4,11v28.2h-8.5V11H167.4z"/>
	<path class="st34" d="M171.5,11h8.5v5.4h-8.5V11z M171.5,18.8h8.5v20.4h-8.5V18.8z"/>
	<path class="st34" d="M184,39.2V18.8h8.5v20.4H184z M197.5,23.9h-3.6v-2.2l2.8-2.9h5.2l4.1,4.8v5.3h-8.5V23.9z"/>
</g>
</svg>
