<?xml version="1.0" encoding="utf-8"?>
<!-- Generator: Adobe Illustrator 23.0.2, SVG Export Plug-In . SVG Version: 6.00 Build 0)  -->
<svg version="1.1" id="Capa_1" xmlns="http://www.w3.org/2000/svg" xmlns:xlink="http://www.w3.org/1999/xlink" x="0px" y="0px"
	 width="50px" height="50px" viewBox="0 0 50 50" style="enable-background:new 0 0 50 50;" xml:space="preserve">
<style type="text/css">
	.st0{fill:#FAFBFB;}
	.st1{fill:#E0E0DF;}
	.st2{fill:#BCBCBC;}
	.st3{fill:#F5F5F5;}
	.st4{opacity:0.1;fill:#262626;}
	.st5{opacity:0.1;fill:url(#SVGID_1_);}
</style>
<g>
	<circle class="st0" cx="25" cy="25" r="18.4"/>
	<g>
		<circle class="st1" cx="13.4" cy="18.4" r="2.9"/>
		<path class="st2" d="M10.8,18.7c0-1.6,1.3-2.9,2.9-2.9c0.7,0,1.4,0.3,1.9,0.7c-0.5-0.6-1.3-1-2.2-1c-1.6,0-2.9,1.3-2.9,2.9
			c0,0.9,0.4,1.6,1,2.2C11,20.1,10.8,19.4,10.8,18.7z"/>
		<path class="st3" d="M13.5,15.5C13.5,15.5,13.5,15.5,13.5,15.5c1.5,0,2.8,1.3,2.8,2.9c0,1.6-1.3,2.9-2.9,2.9
			c-1.6,0-2.9-1.3-2.9-2.8c0,0,0,0,0,0.1c0,1.7,1.3,3,3,3c1.7,0,3-1.3,3-3C16.5,16.9,15.2,15.5,13.5,15.5z"/>
	</g>
	<g>
		<circle class="st1" cx="32.7" cy="13.3" r="1.4"/>
		<path class="st2" d="M31.3,13.5c0-0.8,0.6-1.4,1.4-1.4c0.4,0,0.7,0.1,1,0.4c-0.3-0.3-0.7-0.5-1.1-0.5c-0.8,0-1.4,0.6-1.4,1.4
			c0,0.4,0.2,0.8,0.5,1.1C31.5,14.2,31.3,13.8,31.3,13.5z"/>
		<path class="st3" d="M32.7,11.9C32.7,11.9,32.7,11.9,32.7,11.9c0.8,0,1.4,0.7,1.4,1.4c0,0.8-0.6,1.4-1.4,1.4
			c-0.8,0-1.4-0.6-1.4-1.4c0,0,0,0,0,0c0,0.8,0.7,1.5,1.5,1.5s1.5-0.7,1.5-1.5C34.2,12.6,33.6,11.9,32.7,11.9z"/>
	</g>
	<g>
		<circle class="st1" cx="37.7" cy="28" r="3.6"/>
		<path class="st2" d="M34.4,28.3c0-2,1.6-3.6,3.6-3.6c0.9,0,1.8,0.3,2.4,0.9c-0.7-0.7-1.6-1.2-2.7-1.2c-2,0-3.6,1.6-3.6,3.6
			c0,1.1,0.5,2,1.2,2.7C34.8,30.1,34.4,29.3,34.4,28.3z"/>
		<path class="st3" d="M37.9,24.4C37.8,24.4,37.8,24.4,37.9,24.4c1.9,0,3.5,1.6,3.5,3.6c0,2-1.6,3.6-3.6,3.6c-2,0-3.6-1.6-3.6-3.5
			c0,0,0,0,0,0.1c0,2.1,1.7,3.8,3.8,3.8c2.1,0,3.8-1.7,3.8-3.8C41.6,26.1,39.9,24.4,37.9,24.4z"/>
	</g>
	<g>
		<circle class="st1" cx="28.1" cy="36.5" r="3.6"/>
		<path class="st2" d="M24.8,36.8c0-2,1.6-3.6,3.6-3.6c0.9,0,1.8,0.3,2.4,0.9c-0.7-0.7-1.6-1.2-2.7-1.2c-2,0-3.6,1.6-3.6,3.6
			c0,1.1,0.5,2,1.2,2.7C25.1,38.5,24.8,37.7,24.8,36.8z"/>
		<path class="st3" d="M28.2,32.9C28.2,32.9,28.2,32.9,28.2,32.9c1.9,0,3.5,1.6,3.5,3.6c0,2-1.6,3.6-3.6,3.6c-2,0-3.6-1.6-3.6-3.5
			c0,0,0,0,0,0.1c0,2.1,1.7,3.8,3.8,3.8s3.8-1.7,3.8-3.8C32,34.5,30.3,32.9,28.2,32.9z"/>
	</g>
	<g>
		<circle class="st1" cx="20.9" cy="34.3" r="2"/>
		<path class="st2" d="M19.1,34.5c0-1.1,0.9-2,2-2c0.5,0,1,0.2,1.3,0.5c-0.4-0.4-0.9-0.7-1.5-0.7c-1.1,0-2,0.9-2,2
			c0,0.6,0.3,1.2,0.7,1.5C19.2,35.4,19.1,35,19.1,34.5z"/>
		<path class="st3" d="M21,32.2C21,32.2,21,32.2,21,32.2c1.1,0,2,0.9,2,2c0,1.1-0.9,2-2,2c-1.1,0-2-0.9-2-2c0,0,0,0,0,0
			c0,1.2,0.9,2.1,2.1,2.1s2.1-0.9,2.1-2.1C23.1,33.2,22.2,32.2,21,32.2z"/>
	</g>
	<g>
		<ellipse transform="matrix(0.1597 -0.9872 0.9872 0.1597 -10.301 50.8207)" class="st1" cx="24.7" cy="31.5" rx="1.2" ry="1.2"/>
		<path class="st2" d="M23.6,31.6c0-0.7,0.6-1.2,1.2-1.2c0.3,0,0.6,0.1,0.8,0.3c-0.2-0.3-0.6-0.4-0.9-0.4c-0.7,0-1.2,0.6-1.2,1.2
			c0,0.4,0.2,0.7,0.4,0.9C23.7,32.2,23.6,31.9,23.6,31.6z"/>
		<path class="st3" d="M24.7,30.2C24.7,30.2,24.7,30.2,24.7,30.2c0.6,0,1.2,0.6,1.2,1.2c0,0.7-0.6,1.2-1.2,1.2
			c-0.7,0-1.2-0.5-1.2-1.2c0,0,0,0,0,0c0,0.7,0.6,1.3,1.3,1.3c0.7,0,1.3-0.6,1.3-1.3C26,30.8,25.5,30.2,24.7,30.2z"/>
	</g>
	<g>
		<circle class="st1" cx="41.1" cy="22.9" r="1.4"/>
		<path class="st2" d="M39.8,23c0-0.8,0.6-1.4,1.4-1.4c0.4,0,0.7,0.1,0.9,0.4c-0.3-0.3-0.6-0.5-1-0.5c-0.8,0-1.4,0.6-1.4,1.4
			c0,0.4,0.2,0.8,0.5,1C39.9,23.7,39.8,23.4,39.8,23z"/>
		<path class="st3" d="M41.1,21.5C41.1,21.5,41.1,21.5,41.1,21.5c0.7,0,1.3,0.6,1.3,1.4c0,0.8-0.6,1.4-1.4,1.4
			c-0.8,0-1.4-0.6-1.4-1.4c0,0,0,0,0,0c0,0.8,0.6,1.4,1.4,1.4c0.8,0,1.4-0.6,1.4-1.4S41.9,21.5,41.1,21.5z"/>
	</g>
	<g>
		<path class="st1" d="M17.1,24.6c0,1-0.8,1.8-1.8,1.8c-1,0-1.8-0.8-1.8-1.8c0-1,0.8-1.8,1.8-1.8C16.3,22.8,17.1,23.6,17.1,24.6z"/>
		<path class="st2" d="M13.6,24.8c0-1,0.8-1.8,1.8-1.8c0.5,0,0.9,0.2,1.2,0.5c-0.3-0.4-0.8-0.6-1.4-0.6c-1,0-1.8,0.8-1.8,1.8
			c0,0.5,0.2,1,0.6,1.4C13.8,25.7,13.6,25.3,13.6,24.8z"/>
		<path class="st3" d="M15.3,22.8C15.3,22.8,15.3,22.8,15.3,22.8c1,0,1.8,0.8,1.8,1.8c0,1-0.8,1.8-1.8,1.8c-1,0-1.8-0.8-1.8-1.8
			c0,0,0,0,0,0c0,1.1,0.9,1.9,1.9,1.9c1.1,0,1.9-0.9,1.9-1.9C17.3,23.7,16.4,22.8,15.3,22.8z"/>
	</g>
	<g>
		<circle class="st1" cx="19.5" cy="17.9" r="1.5"/>
		<path class="st2" d="M18,18.1c0-0.9,0.7-1.5,1.5-1.5c0.4,0,0.7,0.1,1,0.4c-0.3-0.3-0.7-0.5-1.2-0.5c-0.9,0-1.5,0.7-1.5,1.5
			c0,0.5,0.2,0.9,0.5,1.2C18.2,18.8,18,18.5,18,18.1z"/>
		<path class="st3" d="M19.5,16.4C19.5,16.4,19.5,16.4,19.5,16.4c0.8,0,1.5,0.7,1.5,1.5c0,0.9-0.7,1.5-1.5,1.5
			c-0.8,0-1.5-0.7-1.5-1.5c0,0,0,0,0,0c0,0.9,0.7,1.6,1.6,1.6c0.9,0,1.6-0.7,1.6-1.6C21.1,17.1,20.4,16.4,19.5,16.4z"/>
	</g>
	<g>
		<circle class="st1" cx="16.7" cy="35.4" r="1"/>
		<path class="st2" d="M15.7,35.4c0-0.6,0.5-1,1-1c0.3,0,0.5,0.1,0.7,0.3c-0.2-0.2-0.5-0.3-0.8-0.3C16.1,34.3,15.6,34.8,15.7,35.4
			c-0.1,0.2,0,0.5,0.3,0.7C15.8,35.9,15.7,35.7,15.7,35.4z"/>
		<path class="st3" d="M16.7,34.3C16.7,34.3,16.7,34.3,16.7,34.3c0.5,0,1,0.5,1,1c0,0.6-0.5,1-1,1c-0.6,0-1-0.5-1-1c0,0,0,0,0,0
			c0,0.6,0.5,1.1,1.1,1.1s1.1-0.5,1.1-1.1C17.8,34.8,17.3,34.3,16.7,34.3z"/>
	</g>
	<path class="st4" d="M25,35.6c-8.2,0-15.3-5-18.3-12.1c0,0.5-0.1,1-0.1,1.6c0,10.2,8.2,18.4,18.4,18.4S43.4,35.2,43.4,25
		c0-0.5,0-1-0.1-1.6C40.3,30.6,33.2,35.6,25,35.6z"/>
	<path class="st4" d="M25,39.7c-7.7,0-14.4-4.2-17.9-10.5C9,37.4,16.3,43.4,25,43.4s16-6,17.9-14.2C39.4,35.5,32.7,39.7,25,39.7z"/>
</g>
<radialGradient id="SVGID_1_" cx="25" cy="25" r="24.6049" gradientUnits="userSpaceOnUse">
	<stop  offset="0.6866" style="stop-color:#FFFFFF"/>
	<stop  offset="0.9696" style="stop-color:#FFFFFF;stop-opacity:0"/>
</radialGradient>
<circle class="st5" cx="25" cy="25" r="24.6"/>
</svg>
