<?xml version="1.0" encoding="utf-8"?>
<!-- Generator: Adobe Illustrator 23.0.2, SVG Export Plug-In . SVG Version: 6.00 Build 0)  -->
<svg version="1.1" id="Capa_1" xmlns="http://www.w3.org/2000/svg" xmlns:xlink="http://www.w3.org/1999/xlink" x="0px" y="0px"
	 width="26.6px" height="50px" viewBox="0 0 26.6 50" style="enable-background:new 0 0 26.6 50;" xml:space="preserve">
<style type="text/css">
	.st0{fill:#EDF0F1;}
	.st1{fill:#D6D6D6;}
	.st2{fill:#CED8DB;}
	.st3{fill:#9EBEDA;}
	.st4{fill:#F4F7F8;}
	.st5{fill:#8F8F8F;}
	.st6{fill:#4674B7;}
	.st7{fill:#CE5A50;}
	.st8{fill:#2C2937;}
	.st9{fill:#D6AC79;}
	.st10{fill:#866845;}
	.st11{fill:#575757;}
	.st12{fill:#806449;}
	.st13{fill:#4A4849;}
	.st14{fill:#695136;}
	.st15{fill:#FFFFFF;}
	.st16{fill:#CDA389;}
	.st17{fill:#BB7153;}
	.st18{fill:#474446;}
	.st19{fill:#7A5D35;}
	.st20{fill:#ABBEC1;}
	.st21{fill:#AEBFC2;}
	.st22{opacity:0.8;}
	.st23{fill:#434244;}
	.st24{opacity:0.4;}
</style>
<g>
	<g>
		<path class="st0" d="M18.6,36.6c0,0-0.3,0.4-0.3,1.4c-0.1,1.3,0.2,2.9,0,4.4c-0.2,2.1-0.7,3.8-0.4,4c0.3,0.2,2,0.5,2,0.9
			s-0.2,0.7-0.4,0.9c-0.2,0.1-1.9,0-2.6,0s-2.3,0-2.5-0.4c-0.3-0.3,0.2-2.9,0.1-3.2c-0.1-0.3,0.1-2.2,0.1-2.6c0-0.3,0-1.9,0-2.9
			c0-0.4-0.3-1-0.3-1.1c0-0.2,1.1-0.9,1.5-1C16.2,36.9,18.5,36.2,18.6,36.6z"/>
	</g>
	<g>
		<path class="st0" d="M7.7,36.2c0,0,0.2,0.4,0.2,1.4c0,1.3-0.4,2.9-0.4,4.4c0,2.1,0.4,3.9,0.1,4s-2,0.3-2,0.8s0.1,0.8,0.3,0.9
			c0.1,0.2,1.9,0.2,2.6,0.2s2.3,0.2,2.6-0.2s0-3,0.1-3.2c0.1-0.3,0.1-2.2,0.1-2.6c0-0.3,0.2-1.9,0.3-2.9c0-0.4,0.4-1,0.4-1.1
			c0-0.2-1-1-1.4-1.2C10.1,36.6,7.8,35.8,7.7,36.2z"/>
	</g>
	<g>
		<path class="st1" d="M23.6,19.8L23.6,19.8c-1,0-1.8-0.9-1.8-1.9l0.2-5.7c0-1,0.9-1.8,1.9-1.8h0c1,0,2.2,0.3,2,4.8
			C25.8,19.7,24.6,19.8,23.6,19.8z"/>
	</g>
	<g>
		<path class="st2" d="M18,37.5c-2.2-0.1-3.2,1.8-4.9,1.7s-2.6-2.1-4.8-2.1c-0.6,0-1-0.7-1-1.6c0,0,0.1,0.7,0,0
			C7.2,34.8,6.2,32,8.4,34l9.7,0.4c3.1-2.1,1.2,0.9,1,1.7C18.9,36.9,18.6,37.5,18,37.5z"/>
	</g>
	<g>
		<path class="st0" d="M19.1,26.8c0-0.7-0.4-2.1-0.1-2.6L8,24.3c0.3,0.6,0.6,0.8,0.6,1.5C8.6,27,7.1,30,6.9,32
			c-0.2,2,1.6,3.6,6.3,3.8s6.6-0.7,6.7-2.7S19.1,28.1,19.1,26.8z"/>
	</g>
	<g>
		<path class="st3" d="M19.5,26.5c0,0-2,0.3-6.1,0.1c-4-0.2-6-0.7-6-0.7c-0.2,0-0.4-0.2-0.4-0.5h0c0-0.2,0.2-0.4,0.5-0.4
			c0,0,1.4,0.4,6,0.6c4.6,0.2,6.1-0.1,6.1-0.1c0.2,0,0.4,0.2,0.4,0.5l0,0C20,26.3,19.8,26.5,19.5,26.5z"/>
	</g>
	<g>
		<g>
			<path class="st4" d="M13.9,23.3c-5-0.2-6.4-1.1-6.4-1.1c-1.7-1.6-2.6-5.5-2.5-8.3c0.2-4.2,2.8-8.7,9.7-8.4
				c6.7,0.3,8.8,5.1,8.6,9.5c-0.1,2.6-1.3,6.2-3.1,7.6C20.2,22.7,18.9,23.5,13.9,23.3z"/>
		</g>
		<g>
			<path class="st5" d="M14.8,5.6c6.4,0.3,8.8,4.8,8.6,9.5c-0.1,2.5-1.3,6.1-3.1,7.6c0,0-1.3,0.8-6.3,0.6c-5-0.2-6.4-1.1-6.4-1.1
				c-1.7-1.6-2.6-5.6-2.4-8.2C5.3,9.3,8.4,5.3,14.8,5.6 M14.8,5.4c-3-0.1-5.5,0.7-7.3,2.4C6,9.3,5.1,11.5,5,13.9
				c-0.1,2.8,0.8,6.7,2.5,8.3c0,0,0,0,0,0c0.1,0,1.5,0.9,6.4,1.1c5,0.2,6.3-0.6,6.4-0.6c0,0,0,0,0,0c1.8-1.5,3-5.1,3.1-7.7
				C23.7,10.6,21.5,5.7,14.8,5.4L14.8,5.4z"/>
		</g>
	</g>
	<g>
		<path class="st6" d="M20.2,23.6c0,0-2.1,0.3-6.3,0.2S7.6,23,7.6,23c-0.3,0-0.5-0.2-0.4-0.5l0,0c0-0.3,0.2-0.5,0.5-0.4
			c0,0,1.5,0.4,6.3,0.6c4.8,0.2,6.3-0.1,6.3-0.1c0.3,0,0.5,0.2,0.4,0.5v0C20.7,23.4,20.5,23.6,20.2,23.6z"/>
	</g>
	<g>
		<path class="st7" d="M9.7,41.7c-1.9-0.1-2.4-1.2-2.4-1.2c-0.1-0.2,0-0.3,0.2-0.4c0.2-0.1,0.3,0,0.4,0.1c0,0.1,0.7,1.3,3.3,0.7
			c0.2,0,0.3,0.1,0.4,0.2c0,0.2-0.1,0.3-0.2,0.4C10.7,41.7,10.2,41.7,9.7,41.7z"/>
	</g>
	<g>
		<path class="st2" d="M9.9,45.5c-1.5-0.1-2.4-0.8-2.5-0.9c-0.1-0.1-0.1-0.3,0-0.4c0.1-0.1,0.3-0.1,0.4,0c0,0,1.3,1,3,0.7
			c0.2,0,0.3,0.1,0.4,0.2c0,0.2-0.1,0.3-0.2,0.4C10.5,45.5,10.2,45.5,9.9,45.5z"/>
	</g>
	<g>
		<path class="st2" d="M5.6,47.2c0,0,1.1,0.3,2.8,0.2c1.8,0,2.5-0.1,2.6-0.1c0,0,0.1,0.2-0.1,0.4c-0.2,0.2-3.1,0.2-4,0.1
			c-0.8-0.1-1.1-0.1-1.2-0.2C5.8,47.6,5.6,47.2,5.6,47.2z"/>
	</g>
	<g>
		<path class="st7" d="M16.1,41.9c-0.4,0-1-0.1-1.5-0.3c-0.2,0-0.3-0.2-0.2-0.4c0-0.2,0.2-0.3,0.4-0.2c2.7,0.8,3.4-0.4,3.4-0.5
			c0.1-0.1,0.3-0.2,0.4-0.1c0.1,0.1,0.2,0.3,0.1,0.4C18.6,41,18,42,16.1,41.9z"/>
	</g>
	<g>
		<path class="st2" d="M15.6,45.8c-0.3,0-0.7-0.1-1-0.2c-0.2,0-0.3-0.2-0.2-0.4c0-0.2,0.2-0.3,0.4-0.2c1.7,0.5,3-0.4,3-0.4
			c0.1-0.1,0.3-0.1,0.4,0.1c0.1,0.1,0.1,0.3-0.1,0.4C18.1,45.1,17.1,45.8,15.6,45.8z"/>
	</g>
	<g>
		<path class="st2" d="M19.7,47.8c0,0-1.1,0.2-2.8,0c-1.8-0.2-2.5-0.3-2.6-0.4c0,0-0.1,0.2,0.1,0.4s3.1,0.5,3.9,0.5s1.1,0,1.2-0.1
			C19.5,48.2,19.7,47.8,19.7,47.8z"/>
	</g>
	<g>
		<path class="st8" d="M8.1,21.1c0,0,5.2,1.4,11.1,0.6c0,0,2-2.7,2.4-6s-1.2-8.3-7.1-8.6s-8.3,3.6-8.2,7.5
			C6.3,18.6,8.1,21.1,8.1,21.1z"/>
	</g>
	<g>
		<g>
			<g>
				<g>
					
						<ellipse transform="matrix(4.181747e-02 -0.9991 0.9991 4.181747e-02 2.2752 33.9312)" class="st9" cx="18.8" cy="15.8" rx="3.2" ry="2.6"/>
				</g>
			</g>
			<g>
				<g>
					<path class="st10" d="M18.7,19.2c-1.6-0.1-2.8-1.7-2.7-3.5c0.1-1.9,1.4-3.4,3-3.3s2.8,1.7,2.7,3.5S20.2,19.3,18.7,19.2z
						 M19,12.8c-1.3-0.1-2.5,1.2-2.5,2.9s1,3,2.3,3.1c1.3,0.1,2.5-1.2,2.5-2.9S20.3,12.8,19,12.8z"/>
				</g>
			</g>
		</g>
		<g>
			<g>
				<g>
					
						<ellipse transform="matrix(4.181747e-02 -0.9991 0.9991 4.181747e-02 -6.6922 23.7615)" class="st9" cx="9" cy="15.4" rx="3.2" ry="2.6"/>
				</g>
			</g>
			<g>
				<g>
					<path class="st10" d="M8.9,18.8c-1.6-0.1-2.8-1.7-2.7-3.5c0.1-1.9,1.4-3.4,3-3.3c1.6,0.1,2.8,1.7,2.7,3.5
						C11.8,17.4,10.5,18.9,8.9,18.8z M9.2,12.4c-1.3-0.1-2.5,1.2-2.5,2.9c-0.1,1.7,1,3,2.3,3.1c1.3,0.1,2.5-1.2,2.5-2.9
						S10.5,12.4,9.2,12.4z"/>
				</g>
			</g>
		</g>
		<g>
			<g>
				<g>
					
						<ellipse transform="matrix(4.181747e-02 -0.9991 0.9991 4.181747e-02 -6.8019 23.6371)" class="st11" cx="8.9" cy="15.4" rx="3.4" ry="2.7"/>
				</g>
			</g>
		</g>
		<g>
			<g>
				
					<ellipse transform="matrix(4.181747e-02 -0.9991 0.9991 4.181747e-02 -7.7403 23.8951)" class="st11" cx="8.6" cy="16" rx="2.3" ry="1.7"/>
			</g>
		</g>
		<g>
			<g>
				
					<ellipse transform="matrix(4.181747e-02 -0.9991 0.9991 4.181747e-02 1.9707 34.9081)" class="st11" cx="19.2" cy="16.4" rx="2.3" ry="1.7"/>
			</g>
		</g>
		<g>
			<g>
				
					<ellipse transform="matrix(4.181747e-02 -0.9991 0.9991 4.181747e-02 -2.5427 29.141)" class="st10" cx="13.9" cy="15.9" rx="6.4" ry="6"/>
			</g>
		</g>
		<g>
			<g>
				<path class="st12" d="M13.7,21.9c-2.3-0.1-4.1-2-4-4.3c0-0.2,0-0.3,0-0.4c-0.6-0.5-0.9-1.3-0.9-2.1c0.1-1.5,1.3-2.6,2.8-2.5
					c1.1,0,2,0.7,2.4,1.7c0.5-1,1.4-1.6,2.5-1.5c1.5,0.1,2.6,1.3,2.5,2.8c0,0.8-0.4,1.6-1.1,2c0,0.1,0,0.3,0,0.4
					C17.9,20.2,16,22,13.7,21.9z"/>
			</g>
		</g>
		<g>
			<g>
				<path class="st13" d="M10.6,17.7c0,0.5,0,1.5,0.7,2.2c0.5,0.6,1.4,1,2.5,1c1.1,0,2-0.2,2.6-0.8c0.7-0.7,0.8-1.6,0.8-2.2
					c-0.3,0.2-1.3,0.6-3.3,0.5C11.8,18.4,10.9,17.9,10.6,17.7z"/>
			</g>
		</g>
		<g>
			<g>
				<path class="st14" d="M15.2,11.5c-0.1,0-0.3,0-0.4-0.1c-0.1,0-0.1-0.1-0.1-0.2c0-0.1,0.1-0.1,0.2-0.1c0.3,0.1,0.6,0.1,0.8,0
					c-0.9,0.1-1.2-0.4-1.2-0.5c0-0.1,0-0.1,0-0.2c0-0.1,0.1-0.1,0.2-0.1c0.7,0.1,1-0.2,1.2-0.4c-0.4,0.1-0.7,0.1-1.2,0l-0.1,0
					c-0.5-0.1-0.8,0.1-0.8,0.1c-0.1,0-0.2,0-0.2-0.1c-0.1-0.1,0-0.2,0.1-0.2c0,0,0.3-0.2,1-0.1l0.1,0c0.6,0.1,0.8,0.1,1.4-0.1
					c0.1,0,0.1,0,0.2,0c0,0,0.1,0.1,0.1,0.2c0,0-0.2,0.9-1.2,1c0.2,0.1,0.5,0.1,1-0.1c0.1,0,0.1,0,0.2,0c0,0.1,0.1,0.1,0,0.2
					C16.2,11.1,15.8,11.6,15.2,11.5z"/>
			</g>
		</g>
		<g>
			<g>
				<path class="st15" d="M11.5,18.2L11.5,18.2c-0.1,0.2-0.1,0.4,0,0.5c0.3,0.3,1,0.9,2.3,0.9c1.3,0.1,2-0.5,2.3-0.8
					c0.1-0.1,0.2-0.3,0.1-0.5l0,0c0-0.1-0.1-0.1-0.1-0.1c-0.2,0.2-0.8,0.5-2.3,0.4c-1.6-0.1-2.1-0.4-2.2-0.6
					C11.6,18.1,11.5,18.1,11.5,18.2z"/>
			</g>
		</g>
		<g>
			<g>
				<g>
					<path class="st16" d="M12.3,20.5c0,0,0.4-0.3,1.4-0.2c1,0,1.4,0.3,1.4,0.3s-0.3,0.4-1.4,0.4C12.6,21,12.3,20.5,12.3,20.5z"/>
				</g>
			</g>
			<g>
				<g>
					<path class="st16" d="M12.3,20.5c0,0,0.4-0.3,1.4-0.2c1,0,1.4,0.3,1.4,0.3s-0.3,0.4-1.4,0.4C12.6,21,12.3,20.5,12.3,20.5z"/>
				</g>
			</g>
			<g>
				<g>
					<path class="st16" d="M12.3,20.5c0,0,0.4-0.3,1.4-0.2c1,0,1.4,0.3,1.4,0.3s-0.3,0.4-1.4,0.4C12.6,21,12.3,20.5,12.3,20.5z"/>
				</g>
			</g>
			<g>
				<g>
					<path class="st16" d="M12.3,20.5c0,0,0.4-0.3,1.4-0.2c1,0,1.4,0.3,1.4,0.3s-0.3,0.4-1.4,0.4C12.6,21,12.3,20.5,12.3,20.5z"/>
				</g>
			</g>
			<g>
				<g>
					<path class="st16" d="M12.3,20.5c0,0,0.4-0.3,1.4-0.2c1,0,1.4,0.3,1.4,0.3s-0.3,0.4-1.4,0.4C12.6,21,12.3,20.5,12.3,20.5z"/>
				</g>
			</g>
			<g>
				<g>
					<path class="st16" d="M12.3,20.5c0,0,0.4-0.3,1.4-0.2c1,0,1.4,0.3,1.4,0.3s-0.3,0.4-1.4,0.4C12.6,21,12.3,20.5,12.3,20.5z"/>
				</g>
			</g>
			<g>
				<g>
					<path class="st16" d="M12.3,20.5c0,0,0.4-0.3,1.4-0.2c1,0,1.4,0.3,1.4,0.3s-0.3,0.4-1.4,0.4C12.6,21,12.3,20.5,12.3,20.5z"/>
				</g>
			</g>
			<g>
				<g>
					<path class="st16" d="M12.3,20.5c0,0,0.4-0.3,1.4-0.2c1,0,1.4,0.3,1.4,0.3s-0.3,0.4-1.4,0.4C12.6,21,12.3,20.5,12.3,20.5z"/>
				</g>
			</g>
			<g>
				<g>
					<path class="st16" d="M12.3,20.5c0,0,0.4-0.3,1.4-0.2c1,0,1.4,0.3,1.4,0.3s-0.3,0.4-1.4,0.4C12.6,21,12.3,20.5,12.3,20.5z"/>
				</g>
			</g>
			<g>
				<g>
					<path class="st16" d="M12.3,20.5c0,0,0.4-0.3,1.4-0.2c1,0,1.4,0.3,1.4,0.3s-0.3,0.4-1.4,0.4C12.6,21,12.3,20.5,12.3,20.5z"/>
				</g>
			</g>
			<g>
				<g>
					<path class="st16" d="M12.3,20.5c0,0,0.4-0.3,1.4-0.2c1,0,1.4,0.3,1.4,0.3s-0.3,0.4-1.4,0.4C12.6,21,12.3,20.5,12.3,20.5z"/>
				</g>
			</g>
			<g>
				<g>
					<path class="st16" d="M12.3,20.5c0,0,0.4-0.3,1.4-0.2c1,0,1.4,0.3,1.4,0.3s-0.3,0.4-1.4,0.4C12.6,21,12.3,20.5,12.3,20.5z"/>
				</g>
			</g>
			<g>
				<g>
					<path class="st16" d="M12.3,20.5c0,0,0.4-0.3,1.4-0.2c1,0,1.4,0.3,1.4,0.3s-0.3,0.4-1.4,0.4C12.6,21,12.3,20.5,12.3,20.5z"/>
				</g>
			</g>
			<g>
				<g>
					<path class="st17" d="M12.3,20.5c0,0,0.4-0.3,1.4-0.2c1,0,1.4,0.3,1.4,0.3s-0.3,0.4-1.4,0.4C12.6,21,12.3,20.5,12.3,20.5z"/>
				</g>
			</g>
		</g>
		<g>
			<g>
				<g>
					<path class="st9" d="M18.8,15.4c0.1-1.4-1-2.5-2.3-2.5c-1,0-1.9,0.6-2.3,1.5c-0.1,0.1-0.3,0.1-0.3,0c-0.3-0.9-1.2-1.6-2.2-1.6
						c-1.4-0.1-2.5,1-2.5,2.3c0,0.8,0.3,1.5,0.9,2c0,0.2-0.1,0.3-0.1,0.5c-0.1,2.2,1.6,4,3.8,4.1c2.2,0.1,4-1.6,4.1-3.8
						c0-0.2,0-0.4,0-0.5C18.4,16.9,18.8,16.2,18.8,15.4z M13.7,20.9c-2.4-0.1-2.5-1.8-2.5-2.4c0,0,0-0.1,0-0.1
						c0.1-0.1,0.2-0.1,0.3,0c0.2,0.1,0.8,0.4,2.3,0.5s2.1-0.2,2.3-0.3c0.1,0,0.2,0,0.3,0.1c0,0,0,0.1,0,0.1
						C16.4,19.2,16.1,21,13.7,20.9z"/>
				</g>
			</g>
		</g>
		<g>
			<g>
				
					<ellipse transform="matrix(4.181747e-02 -0.9991 0.9991 4.181747e-02 -4.2407 26.9109)" class="st18" cx="11.9" cy="15.7" rx="0.5" ry="0.3"/>
			</g>
		</g>
		<g>
			<g>
				
					<ellipse transform="matrix(4.181747e-02 -0.9991 0.9991 4.181747e-02 -0.5397 31.1082)" class="st18" cx="15.9" cy="15.8" rx="0.5" ry="0.3"/>
			</g>
		</g>
		<g>
			<g>
				
					<ellipse transform="matrix(4.181747e-02 -0.9991 0.9991 4.181747e-02 -4.1823 30.2039)" class="st18" cx="13.7" cy="17.3" rx="0.2" ry="0.1"/>
			</g>
		</g>
		<g>
			<g>
				
					<ellipse transform="matrix(4.181747e-02 -0.9991 0.9991 4.181747e-02 -3.8025 30.6347)" class="st18" cx="14.1" cy="17.3" rx="0.2" ry="0.1"/>
			</g>
		</g>
		<g>
			<g>
				<g>
					<path class="st19" d="M13.2,16.8c0.4-0.1,0.9-0.1,1.3,0.1c0.1,0,0.2-0.1,0.1-0.1c-0.5-0.2-1-0.2-1.4-0.1
						C13,16.7,13.1,16.9,13.2,16.8L13.2,16.8z"/>
				</g>
			</g>
		</g>
		<g>
			<g>
				<path class="st11" d="M14.2,9.5c0,0-5.3-0.2-6.2,5.8c-0.7,4.9,4.5,8.6,8.8,6.3c1-0.5,1.3-1,1.3-1c-0.1-0.3-1.1,0.6-4.7,0.6
					c-1.2,0-3.6-1.9-3.7-3.9C9.3,11.1,14.3,10.8,14.2,9.5z"/>
			</g>
		</g>
		<g>
			<g>
				<path class="st12" d="M11.3,14.9L11.3,14.9c-0.1,0,0.1-0.4,0.6-0.4c0.5,0,0.7,0.3,0.7,0.4l-0.1,0c0,0-0.2-0.3-0.6-0.3
					C11.4,14.5,11.3,14.9,11.3,14.9z"/>
			</g>
		</g>
		<g>
			<g>
				<path class="st12" d="M16.6,15.1c0,0-0.1-0.4-0.6-0.4c-0.4,0-0.6,0.3-0.6,0.3l-0.1,0c0,0,0.2-0.3,0.7-0.3
					C16.5,14.7,16.7,15.1,16.6,15.1L16.6,15.1z"/>
			</g>
		</g>
	</g>
	<g>
		<path class="st0" d="M6.5,25.8c0.1,1-0.3,3.3,0.7,3.8c0,0-0.3,0.4-0.8,0.7s-1.2,2-1.4,3.5c-0.3,1.6,0,2.4-0.3,3.1
			c-0.2,0.7-0.6,2.2-2.3,1.8c-1.7-0.4-2-2.1-1.5-3s1.1-1.3,1.2-1.9c0.1-0.7,1.1-4.1,2-5.6c0.8-1.5,1.5-2.4,2.2-2.6
			C6.3,25.6,6.4,25.6,6.5,25.8z"/>
	</g>
	<g>
		<path class="st2" d="M4,34.7c-1.3-0.1-2.2-0.7-2.2-0.8c-0.2-0.2-0.2-0.4-0.1-0.6c0.2-0.2,0.4-0.2,0.6-0.1c0,0,1,0.8,2.4,0.5
			c0.2,0,0.5,0.1,0.5,0.4c0,0.2-0.1,0.5-0.4,0.5C4.6,34.7,4.3,34.7,4,34.7z"/>
	</g>
	<g>
		<path class="st2" d="M1.2,35.2c0,0-1.3,1.5,0.1,3c1.4,1.5,2.8,0.4,3-0.4c0.2-0.4,0-0.2-0.3,0.1s-1.2,0.9-1.9,0.2
			S1.8,34.7,1.2,35.2z"/>
	</g>
	<g>
		<g>
			<path class="st0" d="M14.8,5.6c-6.4-0.3-9.4,3.7-9.6,8.3c-0.1,2.6,0.7,6.6,2.4,8.2c0,0,1.4,0.9,6.4,1.1c5,0.2,6.3-0.6,6.3-0.6
				c1.8-1.5,3-5.1,3.1-7.6C23.5,10.4,21.2,5.9,14.8,5.6z M19.2,21.7c-5.9,0.8-11.1-0.6-11.1-0.6s-1.8-2.5-1.9-6.5
				c-0.1-3.9,2.3-7.8,8.2-7.5c5.9,0.2,7.5,5.2,7.1,8.6S19.2,21.7,19.2,21.7z"/>
		</g>
	</g>
	<g>
		<path class="st0" d="M20.5,26.1c-0.2,1,0,3.3-1,3.7c-0.1,0,0.3,0.4,0.8,0.8c0.5,0.4,1,2.1,1.1,3.6c0.1,1.7-0.2,2.4,0,3.1
			c0.2,0.7,0.5,2.3,2.1,2c1.7-0.3,2.2-1.9,1.8-2.9c-0.4-1-1-1.3-1-2s-0.7-4.1-1.5-5.8c-0.7-1.5-1.3-2.5-2-2.8
			C20.7,25.9,20.6,25.9,20.5,26.1z"/>
	</g>
	<g>
		<path class="st2" d="M22.3,35.2c-0.3,0-0.6-0.1-0.9-0.1C21.1,35,21,34.7,21,34.5c0.1-0.2,0.3-0.4,0.6-0.3c1.3,0.4,2.4-0.3,2.4-0.3
			c0.2-0.1,0.5-0.1,0.6,0.1c0.1,0.2,0.1,0.5-0.1,0.6C24.5,34.6,23.6,35.2,22.3,35.2z"/>
	</g>
	<g>
		<path class="st2" d="M25,35.9c0,0,1.2,1.6-0.3,3c-1.5,1.4-2.8,0.2-3-0.6c-0.1-0.4,0-0.2,0.3,0.1c0.3,0.3,1.1,1,1.8,0.4
			C24.5,38.2,24.5,35.4,25,35.9z"/>
	</g>
	<g>
		<path class="st20" d="M15.4,2.1c0-0.4-0.3-0.7-0.6-0.7c-0.4,0-0.7,0.3-0.7,0.6c0,0.3,0.1,0.5,0.4,0.6l-0.1,0.3L14,6.3
			c0,0,0.2,0.2,0.6,0.2c0.4,0,0.6-0.1,0.6-0.1l-0.2-3.7C15.2,2.5,15.4,2.3,15.4,2.1z"/>
	</g>
	<g>
		<path class="st7" d="M6.7,30.3c3.2-1.7,0.4-1,0.3-3c-0.1-2,0.2-2.2-0.4-2.1c-0.8,0.1-0.5,0.1-0.3,2.9C6.4,29.9,6.3,30.5,6.7,30.3z
			"/>
	</g>
	<g>
		<path class="st21" d="M7.5,25.2c0.4,0.1,0.8,0.2,1,0.2c0.2,0,0.2,0.6,0.2,1.3c0,0.7-0.3,2.2-0.8,2.4s-1.1-0.3-1-1.6
			c0.1-1.3,0-2,0.1-2.1S7.3,25.1,7.5,25.2z"/>
	</g>
	<g>
		<path class="st7" d="M20,30.6c-3-2-0.3-1.1-0.1-3.1s0-2.2,0.6-2.1c0.8,0.1,0.5,0.2,0.1,2.9C20.2,30.2,20.3,30.8,20,30.6z"/>
	</g>
	<g>
		<path class="st21" d="M19.5,25.4c-0.4,0.1-0.8,0.1-1,0.1c-0.2,0-0.3,0.5-0.3,1.3c-0.1,0.7,0.1,2.2,0.6,2.5
			c0.5,0.3,1.1-0.2,1.2-1.5c0.1-1.3,0.2-2,0.1-2.1C20,25.5,19.8,25.4,19.5,25.4z"/>
	</g>
	<g>
		<g>
			<path class="st15" d="M12.4,8.9c0-0.4,0.4-0.8,0.8-0.9c0.2,0,4.1-0.3,6.2,2.5c2.1,2.8,1.2,6,1.1,6.1c-0.1,0.5-0.6,0.8-1.1,0.6
				c-0.5-0.1-0.8-0.6-0.6-1.1c0-0.1,0.7-2.4-0.9-4.5c-1.5-2-4.5-1.8-4.6-1.8c-0.5,0-0.9-0.3-1-0.8C12.4,9,12.4,8.9,12.4,8.9z"/>
		</g>
	</g>
	<g class="st22">
		<g>
			<path class="st15" d="M8.7,15.5c0,0,0,0.8,0.7,2"/>
		</g>
		<g>
			<path class="st15" d="M9.3,17.7c-0.1,0-0.2,0-0.2-0.1c-0.7-1.2-0.7-2-0.7-2.1c0-0.1,0.1-0.2,0.2-0.2c0.1,0,0.2,0.1,0.2,0.2
				c0,0,0,0.8,0.6,1.9c0.1,0.1,0,0.3-0.1,0.3C9.4,17.7,9.4,17.7,9.3,17.7z"/>
		</g>
	</g>
	<g class="st22">
		<g>
			<path class="st15" d="M7.7,13.6c0,0-0.3,1.6,0.3,3.2"/>
		</g>
		<g>
			<path class="st15" d="M8,17.2c-0.1,0-0.3-0.1-0.3-0.3c-0.7-1.7-0.4-3.4-0.3-3.5c0-0.2,0.3-0.4,0.5-0.3c0.2,0,0.4,0.3,0.3,0.5l0,0
				c0,0-0.3,1.5,0.3,2.9c0.1,0.2,0,0.5-0.2,0.6C8.1,17.2,8,17.2,8,17.2z"/>
		</g>
	</g>
	<g>
		<path class="st0" d="M20,25.8c0,0-3,0.3-6.2,0.1s-6.2-0.6-6.2-0.6c-0.6,0-1.1-0.5-1.1-1.1v0c0-0.6,0.5-1.1,1.1-1.1
			c0,0,3.1,0.5,6.2,0.6s6.2-0.1,6.2-0.1c0.6,0,1.1,0.5,1.1,1.1v0C21.1,25.4,20.6,25.9,20,25.8z"/>
	</g>
	<g>
		<path class="st0" d="M20,26.2c0,0-3,0.3-6.2,0.1c-3.3-0.1-6.2-0.6-6.2-0.6c-0.6,0-1.1-0.5-1.1-1.1v0c0-0.6,0.5-1.1,1.1-1.1
			c0,0,3.1,0.5,6.2,0.6c3.1,0.1,6.2-0.1,6.2-0.1c0.6,0,1.1,0.5,1.1,1.1v0C21.1,25.7,20.6,26.2,20,26.2z"/>
	</g>
	<g>
		<circle class="st23" cx="24.5" cy="12.1" r="0.7"/>
	</g>
	<g>
		<circle class="st23" cx="24.7" cy="15.2" r="0.7"/>
	</g>
	<g>
		<circle class="st23" cx="24.1" cy="18.2" r="0.7"/>
	</g>
	<g>
		<g>
			<path class="st15" d="M24.3,11.6C24.3,11.6,24.3,11.5,24.3,11.6c0.1-0.1,0.5-0.1,0.7,0.2c0.2,0.3,0.1,0.6,0.1,0.6
				c0,0-0.1,0.1-0.1,0.1c0,0-0.1-0.1-0.1-0.1c0,0,0.1-0.2-0.1-0.4C24.7,11.7,24.4,11.7,24.3,11.6C24.3,11.7,24.3,11.7,24.3,11.6
				C24.3,11.6,24.3,11.6,24.3,11.6z"/>
		</g>
	</g>
	<g class="st24">
		<circle class="st15" cx="24.3" cy="18.4" r="0.3"/>
	</g>
	<g class="st24">
		<circle class="st15" cx="24.8" cy="15.3" r="0.2"/>
	</g>
	<g class="st24">
		<circle class="st15" cx="24" cy="18.1" r="0.1"/>
	</g>
</g>
</svg>
