<?xml version="1.0" encoding="utf-8"?>
<!-- Generator: Adobe Illustrator 23.0.2, SVG Export Plug-In . SVG Version: 6.00 Build 0)  -->
<svg version="1.1" id="Capa_1" xmlns="http://www.w3.org/2000/svg" xmlns:xlink="http://www.w3.org/1999/xlink" x="0px" y="0px"
	 width="50px" height="50px" viewBox="0 0 50 50" style="enable-background:new 0 0 50 50;" xml:space="preserve">
<style type="text/css">
	.st0{fill-rule:evenodd;clip-rule:evenodd;fill:#345C74;}
	.st1{fill-rule:evenodd;clip-rule:evenodd;fill:#3F6E89;}
	.st2{fill-rule:evenodd;clip-rule:evenodd;fill:#487D99;}
	.st3{fill-rule:evenodd;clip-rule:evenodd;fill:#518DA6;}
	.st4{fill-rule:evenodd;clip-rule:evenodd;fill:#82A44C;}
	.st5{fill-rule:evenodd;clip-rule:evenodd;fill:#9EC059;}
	.st6{fill-rule:evenodd;clip-rule:evenodd;fill:#B1CB64;}
	.st7{fill:#647F34;}
	.st8{fill-rule:evenodd;clip-rule:evenodd;fill:#DEDBCD;}
	.st9{fill:#ECEAE3;}
	.st10{fill:#C4C4C4;}
</style>
<g>
	<g>
		<g>
			<ellipse transform="matrix(0.2662 -0.9639 0.9639 0.2662 -5.753 42.4428)" class="st0" cx="25" cy="25" rx="23.9" ry="23.9"/>
		</g>
		<g>
			<g>
				<g>
					
						<ellipse transform="matrix(0.2663 -0.9639 0.9639 0.2663 -5.3594 42.1418)" class="st1" cx="25" cy="24.6" rx="23.5" ry="23.5"/>
				</g>
			</g>
		</g>
		<path class="st2" d="M15.4,43.7C9.9,41,5.7,35.9,4.1,30.1c-1.7-5.8-0.8-12.3,2.3-17.6c2.1-3.6,5.2-6.7,8.9-8.6
			C20.6,1,27.3,0.7,33,3c5.7,2.3,10.2,7.3,12,13.1c3,9.6-1.6,19.8-9.8,25.2C29.4,45.2,21.8,46.8,15.4,43.7z"/>
		<path class="st2" d="M15.4,43.7C9.9,41,5.7,35.9,4.1,30.1c-1.7-5.8-0.8-12.3,2.3-17.6c2.1-3.6,5.2-6.7,8.9-8.6
			C20.6,1,27.3,0.7,33,3c5.7,2.3,10.2,7.3,12,13.1c3,9.6-1.6,19.8-9.8,25.2C29.4,45.2,21.8,46.8,15.4,43.7z"/>
		<path class="st3" d="M16.4,33.2c-3.9-1.4-7.5-3.3-9.1-7.4c-1-2.6-1.5-6-1.1-8.8C7.9,6.2,19.7,0.3,29.6,4.1
			c3.3,1.2,6.1,3.4,7.9,6.4c3.1,5,2.4,12-0.5,17c-2.3,4-6.7,6.4-11.3,7C22.7,34.8,19.5,34.3,16.4,33.2z"/>
		<path class="st4" d="M23.4,31.4c-0.1-0.1-0.4-0.1-0.6-0.3c-0.1-0.2-0.5-0.4-0.6-0.3c-0.1,0-0.3,0.1-0.5,0
			c-0.2-0.1-0.4-0.3-0.5-0.4c-0.1-0.1-0.4-0.2-0.5-0.2c-0.1,0-0.1-0.1-0.3,0.2c-0.2,0.3,0,0.4-0.3,0.3c-0.3,0,0-0.1,0.2-0.4
			c0.2-0.3,0-0.5-0.2-0.4c-0.2,0.1-0.1,0.2-0.4,0.3c-0.3,0.1-0.3-0.2-0.1-0.2c0.2,0,0.6-0.3,0.6-0.4c0-0.1,0-0.4-0.2-0.4
			c-0.2,0-0.1-0.2-0.4-0.6c-0.2-0.3-0.6-0.7-0.8-0.6c-0.2,0-0.4,0.3-0.5,0c-0.1-0.3-0.3-0.3-0.3-0.5c-0.1-0.1-0.3,0-0.3-0.1
			c-0.1-0.1-0.1-0.1-0.1-0.1s-0.3,0.1-0.1-0.1c0.1-0.2,0.2-0.6,0.1-0.6c-0.1,0-0.2,0.4-0.3,0.3c-0.1,0,0-0.1-0.2-0.2
			c-0.2-0.1-0.5,0-0.5,0.1c0,0.1-0.1,0.2-0.1,0.2s-0.1-0.1-0.1-0.2c-0.1-0.1-0.3-0.2-0.5,0c-0.1,0.1-0.2-0.4-0.3-0.4
			c-0.1,0-0.3,0.1-0.4,0.3C15,27.2,15,27.5,15,27.5c-0.1,0-0.1-0.4-0.1-0.6c0-0.1,0.2-0.4,0.1-0.4c-0.2,0-0.4,0.2-0.5,0.3
			c-0.1,0-0.3,0.2-0.4,0.4c-0.1,0.2-0.2,0.3-0.3,0.4c-0.1,0.1-0.3,0-0.3-0.1c0-0.1-0.3-0.3-0.4-0.2c-0.1,0.1-0.2,0.2-0.4,0.3
			c-0.2,0.1-0.3-0.1-0.4-0.2c0-0.1-0.1-0.1-0.1-0.4c0-0.3,0-0.6,0.1-0.8c0.1-0.2-0.3-0.6-0.4-0.6c-0.1,0-0.3,0.2-0.4,0.2
			c-0.1,0-0.1-0.1-0.3-0.1c-0.2,0,0,0,0-0.3c0-0.2-0.1-0.5,0.1-0.7c0.2-0.2,0.1-0.6,0-0.7c-0.1,0-0.4,0.1-0.6,0
			c-0.2,0-0.3,0.2-0.3,0.4c0.1,0.2-0.1,0.4-0.2,0.3c-0.1,0-0.1-0.1-0.4,0c-0.2,0.2-0.3,0.1-0.5-0.1c-0.2-0.2-0.5-0.4-0.5-0.8
			c0-0.3-0.1-0.7,0-0.9c0.1-0.2,0.1-0.5,0-0.6c-0.1,0,0.1-0.3,0.3-0.3c0.1,0,0.4-0.3,0.4-0.4c0-0.1,0.2-0.1,0.5-0.1
			c0.2,0,0.3,0,0.5,0.1c0.2,0.1,0.3-0.1,0.3-0.1c0-0.1,0.1-0.1,0.4-0.1c0.2,0,0.5-0.2,0.6-0.1c0.1,0.1,0.2,0.4,0.3,0.3
			c0.1-0.1,0.2-0.3,0.2,0c0,0.3,0.1,0.7,0.3,0.8c0.2,0.1,0.1,0.4,0.3,0.4c0.2,0,0.3-0.5,0.2-0.6c-0.1-0.2-0.2-0.7-0.3-0.8
			c-0.1-0.1,0.1-0.4,0.3-0.5c0.2-0.1,0.5-0.6,0.7-0.7c0.1-0.1,0.6-0.2,0.5-0.4c-0.1-0.2-0.2-0.4-0.2-0.5c0-0.1,0.1-0.1,0.2,0
			c0.1,0.1,0.3-0.1,0.2-0.3c-0.1-0.1,0-0.3,0.1-0.3c0.1,0,0.2-0.1,0.1-0.2c-0.1-0.1,0.1-0.2,0.3-0.2c0.1,0,0.6,0.1,0.7,0
			c0.1-0.1-0.2-0.3-0.2-0.5c0-0.2,0.2-0.4,0.4-0.4c0.1,0,0.3,0,0.3-0.1c0-0.1,0.2-0.3,0.2-0.1c0,0.2,0,0.5,0.2,0.5
			c0.2,0,0.4-0.2,0.4-0.2c0.1,0,0.4-0.1,0.5-0.1c0.1,0,0.6-0.1,0.5-0.2c-0.1-0.2-0.1-0.3-0.2-0.4c-0.1-0.1-0.1,0-0.2,0.1
			c-0.1,0.1-0.2,0.1-0.3,0c0-0.1,0-0.4-0.1-0.3c-0.1,0.1-0.2,0.2-0.2,0.1c-0.1,0-0.2-0.2-0.2-0.2s0.2-0.1,0.1-0.3
			c-0.1-0.2-0.3-0.2-0.5-0.1c-0.2,0.1-0.2,0.1-0.4,0.2c-0.2,0.1-0.4,0.1-0.4,0.1s0.1-0.4,0.2-0.5c0.1-0.1,0.6-0.1,0.7-0.2
			c0.1-0.1,0.4,0.1,0.4,0.1s0.2-0.2,0.2-0.1c0,0.1,0,0.4,0.1,0.4c0.1,0,0.5-0.2,0.3-0.2c-0.1,0,0.1-0.1,0.2-0.3c0.1-0.1,0.4,0,0.5,0
			c0.1,0,0.1-0.3,0.3-0.3c0.1,0,0.2,0.2,0,0.4c-0.2,0.1-0.2,0.5-0.3,0.6c-0.1,0.1,0,0.2,0.1,0.2c0.2,0,0.3,0,0.4,0
			c0.1,0,0.2,0,0.3,0.1c0,0.1,0.2-0.1,0.2-0.1s0.3-0.1,0.3,0.1c0.1,0.1,0.1-0.1,0.1-0.2c-0.1-0.1-0.1-0.2-0.2-0.4
			c-0.1-0.1-0.1-0.2-0.3-0.1c-0.2,0-0.2,0-0.3-0.1c-0.1-0.1-0.2,0.1-0.1-0.1c0.1-0.2,0.1-0.2,0.2-0.4c0.1-0.1,0.3-0.4,0.1-0.5
			c-0.3-0.1-0.3-0.1-0.4-0.3c0-0.1-0.3-0.4-0.4-0.4c-0.1,0-0.5,0.1-0.5,0c0-0.1-0.1-0.5-0.2-0.6c-0.1-0.1-0.5-0.7-0.5-0.7
			c-0.1,0-0.1,0-0.3,0.3c-0.2,0.3-0.3,0.3-0.5,0.3c-0.1-0.1-0.3,0-0.4-0.2c-0.1-0.2,0.3-0.3,0.2-0.4c-0.1-0.1-0.4-0.2-0.6-0.2
			c-0.2,0-0.3-0.3-0.6-0.3c-0.3,0-0.7,0-0.8,0c-0.1,0-0.1,0.2-0.1,0.4c0,0.3,0.1,0.3,0,0.4c-0.2,0-0.3,0.1-0.1,0.2
			c0.2,0.1,0.4,0.5,0.4,0.5s0,0.2-0.1,0.3c-0.1,0.1-0.3,0.2-0.4,0.1c-0.1-0.1-0.3-0.1-0.2,0c0.1,0.1,0.2,0.2,0.2,0.4
			c0,0.1,0.2,0.5,0.1,0.6c-0.1,0.1-0.3,0-0.4,0c-0.1,0-0.2-0.2-0.1-0.2c0.1,0,0-0.4,0-0.4s-0.2,0.4-0.2,0.2c0-0.2-0.1-0.2-0.1-0.4
			c0-0.2-0.2-0.4-0.4-0.4c-0.2,0-0.4,0.1-0.7,0c-0.3-0.1-0.5-0.1-0.8-0.3c-0.3-0.2-0.4-0.1-0.5,0c-0.1,0-0.1-0.3-0.3-0.4
			c-0.2,0-0.1-0.1-0.1-0.4c0-0.3-0.2-0.2,0.3-0.6c0.4-0.3,0.4-0.5,0.7-0.5c0.3,0,0.5,0.2,0.5,0.1c0-0.1,0.1-0.8,0.1-0.5
			c0,0.2,0.4,0.3,0.2,0.4c-0.2,0.2-0.1,0.2,0.1,0.2c0.1,0,0.4-0.2,0.4-0.2s0.3-0.2,0.4,0c0.1,0.1,0.1,0.3,0.2,0.3
			c0.1,0,0.4-0.2,0.2-0.4c-0.3-0.2-0.4-0.1-0.6-0.3c-0.2-0.2-0.1-0.1-0.3-0.1c-0.2,0-0.2-0.1-0.2-0.1c-0.1,0-0.2,0-0.2,0
			c0-0.1,0-0.1,0.2-0.1c0.2,0,0.4,0.1,0.4,0.1s0.2-0.1,0.3-0.1c0.1,0,0.4-0.1,0.3-0.3c-0.1-0.2-0.3-0.2-0.3-0.3
			c-0.1-0.1,0.1-0.2,0.2-0.2c0.1,0,0.4,0,0.4,0s0.2,0,0.2-0.1c0-0.1,0-0.2,0.1-0.1c0.1,0.1,0,0.3,0.2,0.2c0.2,0,0.2,0,0.3,0.1
			c0.1,0.1,0,0.4-0.1,0.4c-0.1,0-0.3,0.1,0,0.2c0.2,0,0.4,0,0.4,0s0.1-0.2,0.2-0.3c0.1-0.1,0.2,0,0.2,0c0.1,0,0.4,0.1,0.1,0.2
			c-0.3,0.1-0.3,0.2-0.4,0.3c-0.1,0.1-0.1,0.2-0.3,0.1c-0.3-0.1-0.4-0.1-0.5,0.1c-0.1,0.1,0,0.5,0.1,0.5c0.1,0,0.2,0,0.3-0.1
			c0.1,0,0.6,0.1,0.7,0c0.1,0,0.3,0.2,0.4,0.2c0.1,0,0.2,0.1,0.3,0.2c0.1,0.1,0.1-0.2,0.3,0c0.2,0.2,0.1,0.2,0.2,0.2
			c0.1,0,0.4,0,0.4,0s0-0.2,0.2-0.2c0.2,0,0.4,0.3,0.4,0.1c0-0.2,0-0.3-0.1-0.5c-0.2-0.1-0.4-0.2-0.5-0.3c0-0.1-0.1-0.2,0-0.2
			c0.1,0,0.3,0,0.5,0.1c0.2,0.1,0.3,0.2,0.4,0.1c0.1-0.1,0.3-0.1,0.3-0.2c0.1-0.1,0.2-0.3,0.2-0.3S17,11.1,16.9,11
			c-0.1-0.1-0.4-0.3-0.4-0.3c-0.1,0-0.3,0.2-0.4-0.1C16,10.4,16,10.1,16,10.1c-0.1,0-0.9-0.2-1.1-0.2c-0.1-0.1-0.6-0.2-0.8-0.4
			c-0.2-0.1-0.4-0.3-0.6-0.3c-0.2,0-0.8,0.1-1,0.1c-0.1,0-0.5,0-0.6,0.1c-0.1,0,0.2,0.3-0.1,0.4c-0.3,0.1-0.3,0.1-0.2-0.2
			c0.1-0.4-0.2-0.5-0.5-0.3c-0.3,0.1-0.7,0.2-0.6,0.4c0.1,0.2,0,0.3,0.2,0.5c0.2,0.2,0.3,0.2,0.5,0.2c0.3,0,0.5,0.1,0.5,0.1
			s0,0.3-0.1,0.3c-0.1,0-0.3,0-0.3,0.2c0,0.1-0.2,0.2-0.2,0.1c0-0.1,0.1-0.3,0-0.4c-0.1-0.1-0.2-0.1-0.3,0c-0.2,0.1-0.2,0.2-0.3,0
			c-0.1-0.2-0.3-0.4-0.3-0.4S10,9.8,9.9,9.7c-0.1-0.1-0.3-0.1-0.4,0c0,0.1,0,0.2,0.1,0.5c0.1,0.2,0.1,0.5,0,0.5
			c-0.1,0-0.1,0.2-0.3,0.2c-0.1,0-0.2-0.1-0.2-0.3c0-0.2-0.1-0.4,0-0.4c0-0.1-0.2,0-0.4,0c-0.2,0-0.4,0.1-0.2,0.2
			c0.2,0.1,0.2,0.4,0.1,0.4c-0.2,0.1-0.9,0-1.1,0c-0.2,0-0.5,0.1-0.6-0.1c-0.1-0.1,0.2-0.2,0.3-0.2c0.1,0,0.6,0,0.7-0.2
			C8.2,10,7.8,10,7.7,10c-0.2,0-0.3-0.1-0.5-0.3C7,9.5,7.3,9.3,7.3,9.2c0,0-0.1-0.1-0.1-0.1c-1.8,2-3.3,4.4-4.3,7
			c0,0.1,0,0.3-0.1,0.3c0,0,0,0-0.1,0c-0.1,0.3-0.2,0.5-0.3,0.8c0,0.3-0.1,0.7-0.1,0.9c0,0.3,0.2,0.7,0.4,1C2.9,19.4,2.9,19.9,3,20
			c0.1,0.1,0.4,0.3,0.6,0.3c0.2,0,0.3,0.1,0.5,0.5c0.2,0.3,0.3,0.9,0.4,0.9c0.1,0,0.3,0.2,0.2,0.3c-0.1,0.1-0.3,0.4-0.1,0.4
			c0.2,0,0.2-0.1,0.4,0.1c0.1,0.2,0.3,0.3,0.3,0.5c0,0.1,0.2,0.2,0.2,0.2c0.1,0,0.3,0.5,0.4,0.3c0.2-0.2-0.2-0.5-0.4-0.6
			c-0.1-0.1,0-0.4-0.3-0.6c-0.3-0.3-0.2-0.5-0.4-0.7c-0.2-0.2-0.4-0.4-0.2-0.5C5,20.9,5,21.2,5.1,21.4c0.1,0.2,0.5,0.7,0.7,0.8
			c0.2,0.2,0.5,0.9,0.6,0.9c0.1,0,0.4,0.4,0.4,0.4s0.2,0.3,0.1,0.4C6.8,24,6.9,24.4,7,24.5c0.1,0.1,0.8,0.1,0.8,0.5
			c0,0.1,0.1,0.6,0.3,0.6c0.2,0,0.5-0.1,0.6,0c0.1,0.1,0.2,0.4,0.4,0.2c0.1-0.2,0.1-0.2,0.3-0.2c0.2,0,0.3,0.2,0.4,0.3
			c0.1,0.1,0.4,0.4,0.5,0.4c0.1,0,0.3,0.2,0.4,0.1c0.1-0.1,0.3,0,0.3,0.1c0.1,0,0.3,0.2,0.2,0.5c0,0.3,0.3,0.4,0.4,0.4
			c0.1,0.1,0.3,0.2,0.4,0.4c0.1,0.1,0.3,0.1,0.4,0.2c0.1,0.1,0.1,0.2,0.3,0.1c0.2-0.1,0.1-0.3,0.1-0.3s0.2,0,0.3,0.1
			c0.1,0.1,0.2,0.4,0.2,0.5c0.1,0,0.2,0.4,0.1,0.7c-0.1,0.3-0.1,0.5-0.1,0.5c-0.1,0-0.3,0.2-0.4,0.3c-0.1,0.1-0.3,0.5-0.3,0.6
			c0,0.1,0.1,0.5,0,0.7c0,0.2-0.2,0.3-0.1,0.6c0.1,0.3,0.5,0.3,0.5,0.6c0,0.2,0.3,0.8,0.4,1c0,0.2,0.3,0.5,0.3,0.9
			c0,0.3,0.6,0.5,0.7,0.6c0.1,0,0.3,0.2,0.4,0.3c0.1,0.1,0.3,0.2,0.4,0.4c0.1,0.2,0.1,0.5,0.1,0.6c0,0.1-0.1,0.8-0.1,1.2
			c-0.1,0.4,0.1,0.8,0,1c-0.1,0.1-0.4,0.2-0.2,0.3c0.1,0.1-0.1,0.2-0.1,0.3c0,0.1,0.2,0.5,0.1,0.6c-0.1,0.2-0.1,0.4-0.2,0.6
			c-0.1,0.1-0.2,0.3-0.2,0.5c0,0.2-0.2,0.1-0.2,0.4c0,0.2,0.2,0.1,0.1,0.4c0,0.3-0.1,0.3-0.1,0.5c0,0.2,0.1,0.5,0.1,0.5
			c0,0.1-0.1,0.3-0.2,0.5c-0.1,0.2-0.2,0.3-0.2,0.4c0,0.1,0.2,0.3,0.1,0.3c0,0.1-0.2,0.3-0.2,0.5c0,0.2,0.2,0.1,0.2,0.2
			c0,0.1-0.2,0.2-0.1,0.3c0.1,0.1,0.3,0.1,0.2,0.4c0,0.3,0.2,0.4,0.3,0.4c0.1,0.1,0.2,0.2,0.3,0.2c0.1,0,0.2-0.1,0.2-0.3
			c0-0.3,0.3,0,0.1,0.1c-0.2,0.2-0.3,0.3-0.2,0.3c0.1,0,0.4,0.2,0.5,0.2c0.2,0,0.5-0.1,0.5-0.1c0.1,0,0.5-0.1,0.5-0.2
			c0-0.1-0.3,0-0.5-0.1c-0.2-0.1-0.5-0.4-0.5-0.6c0-0.1,0-0.4,0.1-0.5c0.1-0.1,0.5-0.4,0.6-0.5c0.1-0.1,0.2-0.4,0.1-0.5
			c-0.1,0-0.4,0-0.4-0.1c0-0.1,0-0.2,0.2-0.3c0.2-0.2,0.3-0.4,0.4-0.5c0.1-0.1,0.2-0.2,0.3-0.4c0.1-0.2-0.1-0.1-0.2-0.1
			c-0.1,0-0.2-0.3-0.2-0.4c0-0.1,0.3,0.1,0.5,0.1c0.2,0,0.1-0.1,0.1-0.3c0-0.1,0-0.4,0.2-0.3c0.1,0.1,0.8,0,0.8,0
			c0.1,0,0.3-0.5,0.4-0.6c0.1-0.1,0.1-0.2,0-0.3c-0.1-0.1-0.4-0.4-0.4-0.4c0-0.1,0.1-0.5,0.1-0.6c0-0.1,0,0.7,0.3,0.8
			c0.3,0.1,0.4,0.1,0.7-0.1c0.3-0.3,0.5-0.5,0.5-0.7c0-0.2,0.1-0.4,0.2-0.5c0.1-0.1,0.2,0,0.3-0.3c0.1-0.3,0.2-0.1,0.3-0.3
			c0.1-0.3-0.2-0.6,0-0.8c0.2-0.2,0.7-0.4,0.7-0.4s0.1-0.1,0.4-0.1c0.2-0.1,0.5,0,0.6-0.2c0.1-0.1,0.2-0.5,0.3-0.6
			c0.1-0.2,0.3-0.4,0.2-0.6c-0.1-0.1,0.2-0.6,0.1-0.8c0-0.1-0.2-0.5,0.1-0.8c0.3-0.3,0.6-0.7,0.7-0.8c0-0.1,0.3-0.6,0.2-0.9
			C23.7,31.8,23.5,31.5,23.4,31.4z M13.4,17.3c0.1,0,0.5-0.1,0.6,0.1c0.1,0.1-0.1,0.1-0.3,0.2c-0.2,0.1-0.3,0.1-0.3,0.2
			c-0.1,0.1-0.3,0.2-0.5,0.3c-0.1,0.1-0.3,0.2-0.4,0.1c-0.1-0.1,0-0.1,0-0.1c0-0.1,0.4-0.2,0.4-0.2S13.4,17.3,13.4,17.3z M12.4,16.8
			c0.1,0,0.3,0,0.5,0c0.1,0,0.3,0.5,0.2,0.5c-0.1,0-0.3-0.1-0.3-0.3c0-0.2-0.1,0.3-0.1,0.5c0.1,0.1-0.2,0.3-0.2,0.3
			c-0.1,0-0.1-0.2-0.1-0.4c0-0.2-0.1-0.4-0.3-0.4c-0.2,0-0.3,0.2-0.4,0.3c-0.1,0.1-0.1,0.5-0.1,0.6c0,0.1,0,0.4-0.2,0.4
			c-0.2,0-0.1-0.4-0.1-0.6c0-0.1-0.1-0.5,0-0.7c0.1-0.2,0.3-0.3,0.5-0.3C12,16.7,12.3,16.8,12.4,16.8z M10.8,16.1
			c0.3-0.1,0.6-0.5,0.7-0.3c0.1,0.1,0.3,0.3,0.5,0.3c0.1,0,0,0.3-0.1,0.3c-0.1,0-0.3-0.1-0.5-0.1c-0.2,0-0.1-0.1-0.2-0.1
			c-0.1,0-0.3,0.1-0.4,0.1c-0.1,0.1-0.3,0.1-0.3-0.1C10.4,16.2,10.5,16.2,10.8,16.1z M12.5,12.4c-0.1,0.1-0.4,0-0.3-0.1
			C12.3,12.1,12.5,12.3,12.5,12.4z M13.1,12.7c-0.1,0.1-0.3-0.1-0.1-0.2C13.1,12.4,13.2,12.6,13.1,12.7z M8.4,8.1
			c-0.1,0-0.1,0-0.2,0C8.3,8,8.3,7.9,8.4,7.8C8.5,8,8.5,8.1,8.4,8.1z M7.3,9c0.1-0.1,0.2-0.2,0.2-0.2C7.5,8.8,7.4,9,7.3,9
			C7.3,9,7.3,9,7.3,9z M7.6,8.7c0.1-0.1,0.2-0.2,0.3-0.3c0.2,0,0.4,0,0.5,0c0.3,0,0.4,0.1,0.4,0.2c0,0.1-0.2,0.3-0.4,0.3
			c-0.2,0-0.2,0.1-0.3-0.1C8.1,8.6,7.7,8.7,7.6,8.7z M8.9,9.2C9,9.3,9,9.6,9,9.7c-0.1,0-0.1,0.1-0.3,0.3c-0.2,0.1-0.3-0.3-0.4-0.4
			c0-0.1-0.3,0-0.4,0c-0.1,0-0.2-0.3-0.1-0.3c0.1-0.1,0.4,0,0.5,0C8.4,9.2,8.7,9.1,8.9,9.2z M9.3,9.4c0-0.1,0.4-0.3,0.5-0.4
			c0.1,0,0.2,0.1,0.4,0.1c0.1,0,0.1,0.3,0,0.3c-0.1,0-0.4,0-0.6,0.1C9.4,9.5,9.3,9.4,9.3,9.4z M9.3,8.7c0.1-0.2,0.4-0.1,0.5,0.1
			C9.8,9,9.2,8.9,9.3,8.7z M8.9,7.7c0,0,0.3,0.1,0.5,0.2C9.7,8,9.7,8,9.9,8c0.2,0,0.4,0.3,0.6,0.4c0.1,0.1,0.2,0.2,0.4,0.2
			c0.2,0,0.4,0,0.6,0c0.2,0,0.9,0,1,0c0.1,0,0.6,0.1,0.6,0.2C13,8.9,13,9,12.7,9c-0.3,0-0.7,0-1-0.1c-0.3,0-0.6,0-0.6,0l-0.4-0.1
			c0,0-0.4-0.1-0.5-0.3c-0.1-0.2-0.4-0.2-0.6-0.3C9.4,8.3,9.1,8.1,9,8.1C8.8,8,8.9,7.7,8.9,7.7z M28.3,12c0,0-0.4,0-0.4,0.1
			c-0.1,0.1-0.2,0.1-0.5,0.2c-0.2,0.1-0.3,0-0.4-0.2c0-0.1-0.4-0.1-0.5-0.1c-0.1,0-0.2-0.1-0.3-0.3c-0.1-0.2,0-0.2,0.1-0.3
			c0-0.1,0.5,0,0.6,0.1c0.1,0.1,0.3,0,0.6,0c0.3,0,0.4-0.1,0.5-0.1c0.1,0,0.4,0.1,0.5,0.2C28.6,11.7,28.3,12,28.3,12z M25.8,10
			c0,0.1,0.1,0.3-0.2,0.4c-0.2,0.1-0.3-0.1-0.3-0.3c0-0.2-0.4-0.4-0.5-0.4c0,0,0,0.5,0.2,0.5c0.2,0,0.3,0.2,0.4,0.3
			c0.1,0.1-0.2,0.1-0.3,0.1c-0.1,0-0.5,0.2-0.8,0.3c-0.3,0.1-0.7,0-0.8,0c-0.1,0-0.4,0.5-0.4,0.6c-0.1,0.1-0.5,0-0.7,0
			c-0.2,0-0.3,0.2-0.6,0.3c-0.3,0-0.1,0.2-0.1,0.4c0,0.2-0.1,0.2-0.2,0.2c-0.2,0-0.1,0.1-0.2,0.2c0,0.1,0,0.3-0.1,0.5
			c-0.1,0.1-0.2,0.2-0.4,0.2c-0.2,0-0.2-0.4-0.2-0.4c-0.1,0-0.4,0.2-0.4,0.1c0-0.1-0.4-0.4-0.6-0.5c-0.1-0.1-0.2-0.3-0.3-0.4
			c-0.1-0.1,0.2-0.1,0.1-0.1c-0.1,0-0.3-0.1-0.4-0.2c0-0.1-0.2-0.5-0.2-0.6c0-0.1,0.2-0.3,0.2-0.4c0-0.1-0.2-0.1-0.3-0.1
			c-0.1,0-0.2-0.2-0.1-0.5c0.1-0.2,0.3-0.2,0.3-0.2s0.1,0,0.2,0c0.1,0,0.1,0.3,0,0.4c-0.1,0.1,0.1,0.1,0.1,0.2
			c0.1,0.1,0.1-0.1,0.1-0.2c0-0.1-0.2-0.4-0.3-0.5c-0.1-0.1-0.3-0.2-0.4-0.1c-0.1,0.1-0.3,0.4-0.3,0.3c-0.1-0.1-0.1-0.8-0.2-1
			c-0.1-0.2-0.5-0.3-0.7-0.4c-0.2-0.1-0.7-0.2-0.8-0.2c-0.1,0-0.5,0.1-0.6,0c-0.1-0.1-0.1-0.4-0.1-0.4S16,8.5,16,8.6
			c-0.1,0.1-0.2,0.1-0.3,0.1c-0.1,0-0.2-0.4-0.4-0.5c-0.2,0-0.3,0-0.4-0.1c-0.2-0.2,0.4-0.2,0.4-0.2c0,0,0.5-0.1,0.5-0.3
			c0-0.2,0.2-0.3,0.4-0.3c0.2,0,0.3-0.2,0.3-0.4c0-0.2,0.4-0.4,0.5-0.3c0.1,0.1,0.4,0,0.3-0.2c-0.1-0.2,0.4-0.4,0.9-0.4
			c0.5,0,0.6,0,0.7,0.1c0.1,0.1,0.5,0.1,0.7-0.1c0.2-0.2,0-0.5,0.2-0.7c0.2-0.1,0.2,0.2,0.3,0.3c0.1,0.1,0.3-0.4,0.4-0.5
			c0,0,0.4-0.1,0.6-0.2c0.3-0.2,0.7-0.2,1.1-0.2c0.3,0,0.5-0.1,0.8-0.1c0.4,0,0.8,0.2,1.2,0.2c0.1,0,0.3,0.1,0,0.2
			c-0.2,0-0.7,0.2-1,0.2c-0.4,0.1-0.9,0-0.8,0c0.1,0,0.6,0.2,1.2,0.1c0.1,0,0.3-0.2,0.6-0.1c0.1,0,0.3-0.1,0.6-0.2
			c0.2,0,0.5,0,0.5,0s0,0,0.3,0c0.3,0,0.1,0.6,0.3,0.9C26,6.2,26,6.6,26.3,6.7c0.3,0.1,0.4-0.2,0.7-0.4c0.3-0.3,0.7-0.1,0.9,0
			c0.2,0.1,0,0.4-0.3,0.5c-0.3,0.1-0.8,0.7-0.9,0.8c-0.1,0.1-0.3,0.3-0.2,0.5c0.1,0.2,0.2,0.1,0.3,0.2c0.1,0-0.1,0.1-0.2,0.3
			c-0.1,0.1-0.1,0.4-0.1,0.7c0,0.3-0.5-0.1-0.7-0.1c-0.3,0-0.1,0.4-0.1,0.5C25.8,9.8,25.8,9.9,25.8,10z M13.7,24.3
			c-0.1-0.1-0.5-0.3-0.5-0.4c-0.1-0.1-0.5-0.1-0.8-0.1c-0.2,0-0.4,0.1-0.4-0.2c0,0,0.5-0.2,0.6-0.2c0.1,0,0.4,0,0.6,0.2
			c0.2,0.2,0.5,0.4,0.6,0.3c0.1,0,0.4,0.2,0.4,0.3C14.1,24.4,13.8,24.4,13.7,24.3z M13.4,23c0.2,0,0.3,0.2,0.1,0.2
			C13.3,23.2,13.2,23,13.4,23z M13.6,25.3c-0.2,0.1-0.3-0.4-0.1-0.4C13.7,24.9,13.8,25.3,13.6,25.3z M16.3,25.1
			c-0.2,0.1-0.3-0.4-0.1-0.4C16.4,24.7,16.5,25,16.3,25.1z M15.7,24.9c0,0.3-0.1,0-0.2,0c-0.1,0-0.3,0.2-0.4,0.1
			c-0.1-0.1-0.2-0.2-0.3-0.2c-0.1,0-0.4-0.1-0.4-0.1s0.3-0.4,0.5-0.4c0.1,0,0.3-0.1,0.5,0C15.4,24.4,15.7,24.6,15.7,24.9z
			 M44.1,34.4c0,0.3-0.1,0.7-0.2,0.9c-0.1,0.1-0.2,0.7-0.3,1c-0.1,0.3-0.1,0.6-0.3,0.9c-0.1,0.3-0.2,0.4-0.5,0.4
			c-0.3,0-0.4-0.2-0.3-0.4c0-0.3-0.2-0.7-0.1-0.9c0.1-0.2,0.2-0.5,0-0.9c-0.1-0.4,0.3-0.5,0.4-0.5c0.1,0,0.3-0.2,0.5-0.5
			c0.2-0.3,0.2-0.7,0.5-0.6C44,33.7,44.1,34.1,44.1,34.4z M34.1,19c-0.1-0.1,0-0.5,0.2-0.5c0.1,0,0.3,0.2,0.2,0.4
			C34.3,19.1,34.2,19.1,34.1,19z M32.7,18.9c0.1-0.3,0.2-0.1,0.2,0C32.9,19,32.7,19,32.7,18.9z M35.3,19.6c-0.1,0-0.3-0.2-0.2-0.3
			c0.1-0.1,0.4,0,0.4,0c0.1,0,0.2,0,0.3,0.2c0.1,0.2-0.2,0.3-0.3,0.2C35.5,19.8,35.4,19.6,35.3,19.6z M29.7,14.9
			c0-0.2,0.1-0.2,0.2-0.2c0.1,0,0.1-0.2,0.3-0.3c0.1,0,0.3,0,0.3,0.1c0.1,0.1,0.1,0.3,0.1,0.5c0,0.2-0.2,0.4-0.3,0.4
			c-0.1,0.1-0.3,0.2-0.5,0.2c-0.2,0-0.3-0.3-0.2-0.4C29.9,15.2,29.8,15.1,29.7,14.9z M30.5,14.2c-0.1-0.1-0.1-0.4,0-0.4
			c0.1,0,0.2,0.1,0.3,0c0.1-0.1,0.2-0.3,0.4-0.2c0.2,0.1,0.6,0,0.7,0.2c0.1,0.2-0.4,0.5-0.3,0.6c0.1,0.1,0.3,0.5,0.5,0.6
			c0.2,0.1,0.4,0.4,0.4,0.5c0,0.2-0.2,0.4-0.4,0.4c-0.2,0-0.5-0.1-0.6-0.1c-0.2,0-0.2,0.2-0.3,0.2c-0.1,0,0-0.2,0-0.2
			s-0.6,0.1-0.5-0.1c0-0.1,0.5-0.6,0.7-0.7c0.2-0.1-0.3-0.2-0.5-0.3C30.7,14.5,30.6,14.3,30.5,14.2z M48.9,24.3
			c-0.1-5-1.8-9.6-4.5-13.4c0,0-0.1,0-0.1,0c-0.4,0.1-0.6-0.1-0.7,0.1c-0.1,0.1-0.2,0.4-0.3,0.2c-0.1-0.2,0.2-0.5,0.1-0.6
			c-0.1-0.1-0.5-0.1-0.6,0c-0.1,0.1,0,0.3,0,0.4c0,0.1,0.1,0.5,0,0.4c-0.1-0.1-0.1-0.3-0.2-0.3c-0.1,0-0.3,0.1-0.3,0.1
			c-0.1,0-0.3,0-0.4,0.1c-0.1,0.1,0,0.4-0.1,0.4c-0.1,0-0.2,0.1-0.4-0.1c-0.2-0.2-0.2-0.1-0.3,0c-0.1,0-0.3,0.2-0.4,0
			c0-0.2,0-0.3-0.1-0.4c-0.2-0.1,0-0.1,0.2,0c0.2,0.1,0.5,0.1,1,0c0.4-0.2,0.6-0.2,0.4-0.3c-0.2-0.1-0.3-0.4-0.6-0.5
			c-0.3,0-0.7,0.2-1.2,0c-0.4-0.2-0.5-0.3-0.7-0.3c-0.2,0-1.3-0.6-1.8-0.5c-0.5,0.1-1.9,0.9-2,0.9c-0.1,0.1-0.2,0.4-0.5,0.6
			c-0.3,0.2-0.7,0.5-1.1,0.6c-0.4,0.1-0.9,0.8-0.9,0.9c0,0.1,0.2,0.5,0.1,0.5c0,0.1,0.1,0.4,0.3,0.5c0.2,0.1,0.6,0.1,0.6-0.1
			c0-0.1,0.3-0.5,0.3-0.2c0,0.2,0.2,0.6,0.2,0.7c0,0.1,0,0.3,0.1,0.3c0.1,0,0.9-0.2,0.9-0.2s0.2-0.1,0.2-0.3c0-0.2,0.3-0.5,0.3-0.5
			c0.1-0.1,0.3-0.4,0-0.5c-0.3-0.1-0.5-0.1-0.2-0.4c0.3-0.3,0.5,0,0.8-0.4c0.4-0.4-0.1-0.6,0.3-0.6c0.4,0,0.8,0,0.7,0.1
			c-0.1,0.1-0.6,0.5-0.8,0.6c-0.3,0.1-0.2,0.4-0.1,0.6c0.1,0.1,0.1,0.5,0.3,0.4c0.2,0,0.4-0.2,0.6-0.2c0.2,0,0.6,0,0.7,0
			c0.1,0,0.3,0.3,0.2,0.4c-0.2,0-0.4,0-0.7,0c-0.3,0-0.7,0-0.7,0.1c0,0.1,0.5,0.2,0.3,0.4c-0.2,0.1-0.3,0-0.5-0.1
			c-0.2,0-0.3,0.3-0.4,0.5c-0.1,0.2,0.1,0.5-0.2,0.4c-0.3-0.1-0.5-0.1-0.6-0.1c-0.1,0-0.2,0-0.4,0c-0.2,0.1-0.2,0.1-0.5,0.1
			c-0.3,0-0.3,0-0.3,0l-0.2,0c0,0-0.2-0.1-0.2-0.3c0-0.2,0.1-0.4,0-0.5c-0.1,0-0.5,0-0.5,0.2c-0.1,0.1-0.1,0.4,0,0.5
			c0.1,0.1,0.3,0.4,0.1,0.3c-0.2-0.1-0.5-0.1-0.7,0c-0.2,0.1-0.4,0.5-0.4,0.5s-0.5,0-0.5,0.2c0,0.1,0,0.3-0.2,0.4
			c-0.2,0-0.4,0.1-0.7,0.1c-0.2,0-0.2,0.2-0.5,0.2c-0.3,0-0.3,0.2-0.1,0.2c0.3,0,0.7,0.2,0.7,0.5c0,0.2,0,0.5-0.1,0.7
			c-0.1,0.1-0.5,0-0.7,0c-0.2,0-0.7-0.1-0.9,0c-0.2,0.1-0.2,0.6-0.1,0.8c0.1,0.2,0,0.3-0.1,0.4c-0.1,0.1-0.1,0.3,0,0.4
			c0.1,0.1,0.2,0.3,0.3,0.3c0.1,0,0.3-0.1,0.4,0.1c0.1,0.1,0.2,0.4,0.3,0.3c0.1-0.1,0.1-0.4,0.2-0.3c0.1,0.1,0.3,0,0.5,0
			c0.2,0,0.3-0.3,0.5-0.4c0.2-0.1,0.1-0.1,0-0.3c-0.1-0.1,0.2-0.3,0.3-0.5c0.1-0.2,0.4,0,0.5-0.2c0.1-0.2,0.1-0.5,0.2-0.5
			c0.2,0,0.4,0.1,0.5,0.1c0.1,0,0.4-0.3,0.5-0.3c0.1,0,0.4,0,0.4,0.2c0,0.2,0.4,0.5,0.5,0.5c0.1,0,0.6,0.2,0.7,0.3
			c0.1,0.1,0.2,0.3,0.2,0.5c0,0.2,0.3,0.4,0.3,0.3c0-0.2-0.2-0.7-0.1-0.7c0.1,0,0.3,0,0.3,0s-0.4-0.3-0.5-0.4
			c-0.1-0.1-0.4-0.2-0.5-0.5c-0.1-0.2-0.4-0.3-0.4-0.5c0-0.2,0.3-0.1,0.5,0.1c0.2,0.2,0.6,0.5,0.7,0.6c0.1,0.2,0.4,0.2,0.4,0.5
			c0.1,0.2,0.2,0.5,0.3,0.6c0.1,0.1,0.1,0.9,0.2,1c0.1,0.1,0.4-0.3,0.5-0.4c0.1-0.1,0.3-0.1,0.3-0.3c0-0.2-0.2-0.3-0.3-0.4
			c-0.1-0.1,0.2-0.1,0.3-0.2c0.1-0.1,0.3-0.3,0.4-0.1c0.1,0.1,0,0.7,0.1,0.8c0,0.1,0.4,0.2,0.5,0.4c0.1,0.1,0.4,0.2,0.5,0.1
			c0.1-0.1,0.4,0.1,0.5,0.1c0.1,0,0.3,0,0.5-0.1c0.2,0,0.3-0.2,0.3,0.1c0,0.3-0.1,0.8-0.3,1c-0.2,0.2-0.1,0.4-0.3,0.4
			c-0.1,0-0.2,0-0.2,0c-0.1-0.1-0.2-0.2-0.3-0.2c-0.2,0.1-0.5,0.1-0.8,0.4c-0.2,0.3-0.3,0.3-0.3,0.2c0-0.1,0.6-0.5,0.5-0.6
			c-0.1-0.1-0.6-0.1-0.8-0.1c-0.3,0-0.5-0.2-0.7-0.2c-0.2,0-0.3,0.4-0.5,0.7c-0.2,0.2-0.5-0.1-0.7-0.1c-0.2,0-0.5-0.3-0.5-0.3
			S35.4,21,35.2,21c-0.1,0-0.4-0.3-0.5-0.3c-0.1,0-0.3-0.2-0.1-0.3c0.2-0.1,0.5,0.1,0.3-0.4c-0.2-0.5-0.7-0.4-0.9-0.4
			c-0.1,0.1-1.2,0-1.2,0c-0.1,0-0.7,0.2-0.9,0.3c-0.2,0.1-0.5,0.2-0.6,0.3c-0.1,0-0.5-0.1-0.7,0c-0.2,0.2-0.5,0.4-0.5,0.4
			c-0.1,0-0.2,0.2-0.4,0.5c-0.1,0.4,0,0.7-0.2,0.8c-0.2,0.1-0.7,0.3-0.9,0.5c-0.2,0.2-0.3,0.9-0.5,1.2c-0.2,0.3,0,0.6,0,0.8
			c0,0.2,0.2,0.6,0,0.9c-0.2,0.3-0.2,0.5-0.3,0.5c-0.1,0,0.1,0.1,0.1,0.4c0,0.2-0.2,0.5,0.2,0.7c0.4,0.2,0.7,0.2,0.8,0.5
			c0.1,0.3,0.4,1,0.4,1s0.4,0.4,0.5,0.6c0.2,0.2,0.2,0.1,0.3-0.1c0-0.2,0.3-0.2,0.6-0.2c0.3,0,0.5,0.1,0.8,0c0.3,0,0.5-0.5,0.6-0.5
			c0.1,0,0.5-0.1,0.8,0.1c0.3,0.2,0.2,0.5,0.4,0.6c0.1,0.2,0.4,0.1,0.6-0.1c0.2-0.2,0.1-0.1,0.3,0c0.2,0.1,0.3,0.3,0.1,0.5
			c-0.2,0.2-0.1,0.6-0.2,0.9c-0.1,0.3,0.1,0.3,0.3,0.5c0.2,0.1,0.4,1.1,0.5,1.3c0.1,0.2,0,0.6,0.1,0.9c0.1,0.3,0.2,0.5,0,0.6
			c-0.2,0.1-0.4,0.4-0.4,0.9c0,0.5,0.1,0.8,0.2,1c0.1,0.2,0.3,0.6,0.4,0.8c0.1,0.2,0.4,0.5,0.5,0.7c0,0.3-0.3,0.7-0.2,0.8
			c0.1,0.1,0.2,0.4,0.3,0.6c0.2,0.2,0.2,0.6,0.2,0.6s0.1,0.2,0.1,0.4c0,0.3,0,0.4,0.2,0.6c0.2,0.1,0.3,0.1,0.4,0
			c0.1-0.1,0.5-0.4,0.8-0.3c0.3,0,0.6,0.1,0.9-0.1c0.3-0.2,0.7-0.8,0.8-1c0.1-0.2,0.5-0.5,0.4-0.7c0-0.2-0.3-0.5-0.1-0.6
			c0.2-0.1,0.7-0.2,0.7-0.3c0-0.1-0.1-0.7-0.2-0.9c0-0.1,0.1-0.3,0.3-0.6c0.2-0.2,0.6-0.5,0.6-0.6c0.1-0.1,0.4-0.4,0.5-0.7
			c0-0.3-0.1-0.7,0-0.9c0.1-0.2,0-0.3-0.2-0.5c-0.2-0.2-0.2-0.6-0.3-0.7c-0.1-0.1,0-0.7,0.2-0.8c0.1,0,0.4-0.5,0.6-0.7
			c0.2-0.2,0.6-0.9,0.9-0.9c0.2,0,0.6-0.4,0.6-0.6c0-0.2,0.6-1,0.6-1.2c0-0.2,0.3-0.8,0.2-0.9c-0.1-0.1-0.9,0.2-1,0.3
			c-0.1,0-0.4,0.2-0.7,0.2c-0.3,0-0.2-0.3-0.2-0.5c0-0.1-0.4-0.7-0.4-0.7c-0.1,0-0.3-0.3-0.4-0.6c-0.1-0.3-0.5-0.5-0.7-0.7
			c-0.2-0.2,0-0.9-0.1-1.2c-0.2-0.3-0.3-0.8-0.4-1.1c0-0.1-0.1-0.2-0.1-0.2c0.2-0.1,0.5-0.2,0.5,0c0,0.2,0.3,0.5,0.3,0.8
			c0,0.3,0.3,0.2,0.3,0.4c0,0.2,0.2,0.8,0.3,0.9c0.1,0.1,0.4,0.5,0.5,0.6c0.1,0.1,0.1,0.3,0.2,0.7c0.1,0.4,0.1,0.8,0.3,0.9
			c0.2,0.1,0.7-0.1,0.8-0.2c0.1-0.1,0.8-0.5,1-0.5c0.2,0,0.3-0.2,0.6-0.3c0.3-0.1,0.5-0.3,0.7-0.5c0.2-0.2,0.5-0.7,0.5-0.8
			c0.1-0.2,0.3-0.3,0.2-0.5c-0.1-0.2-0.5-0.5-0.7-0.5c-0.2,0-0.1-0.3-0.2-0.3c-0.1,0-0.1,0.2-0.3,0.3c-0.2,0.1-0.4,0.4-0.6,0.3
			c-0.1,0,0-0.2-0.2-0.4c-0.2-0.2-0.3-0.3-0.3-0.4c0-0.2-0.4-0.5-0.5-0.7c0-0.2,0.3-0.6,0.4-0.4c0.1,0.2,0.2,0.6,0.4,0.7
			c0.3,0.1,0.5,0.4,0.6,0.4c0.1,0,0.4-0.3,0.5-0.2c0.1,0,0.3,0.5,0.5,0.6c0.2,0.1,0.8,0.1,0.9,0.1c0.1,0,0.5,0,0.6-0.1
			c0.1-0.1,0.1-0.1,0.2-0.1c0.1,0,0.3,0.4,0.4,0.5c0.1,0,0.4,0,0.4,0.3C48.7,24,48.8,24.2,48.9,24.3z M39.8,30.9
			c-0.2,0-0.1-0.6-0.1-0.7c0.1-0.1,0.4-0.1,0.5,0C40.3,30.3,40,30.9,39.8,30.9z M39.5,12.9c0.1-0.3,0.7,0.1,0.6,0.2
			C40,13.3,39.5,13.1,39.5,12.9z M42,18.6c-0.2,0-0.7,0.1-0.8,0.1c-0.2,0-0.4-0.2-0.7-0.3c-0.3,0-0.6,0-0.7,0.1
			c-0.1,0.2-0.5,0.1-0.6,0.1c-0.2,0-0.4,0.2-0.4,0.1c0,0,0.1-0.4,0-0.5c-0.1,0,0-0.3,0.2-0.4c0.1-0.1,0.3-0.3,0.4-0.6
			c0.1-0.2,0.3-0.3,0.4-0.2c0.1,0,0.3,0.5,0.4,0.6c0.1,0.1,0.3,0,0.3-0.1c0.1,0,0.2-0.2,0.2-0.3c0-0.1,0.2-0.2,0.4-0.2
			c0.2,0,0,0.2-0.1,0.2c-0.1,0-0.1,0.1,0.2,0.2c0.2,0.1,0.5,0.4,0.7,0.5C42.2,18.2,42.2,18.5,42,18.6z M45.2,17.4
			c-0.1,0.1-0.4,0.1-0.6,0c-0.1-0.1-0.4,0-0.4,0.3c0,0.3,0.1,0.1,0.2,0.2c0.1,0.1,0.2,0.2,0.2,0.4c0.1,0.1,0.2,0.1,0.3,0.2
			c0.1,0.1-0.3,0.3-0.1,0.4c0.2,0.1,0.2,0.7,0.3,0.9c0,0.1-0.4,0.2-0.6,0.2c-0.1,0-0.6-0.2-0.7-0.2c-0.1,0-0.2-0.6,0-0.6
			c0.2,0,0.2,0,0.4-0.3c0.2-0.2-0.3-0.3-0.4-0.4c-0.1,0-0.4-0.6-0.5-0.7c-0.1-0.2,0-0.4,0.2-0.6c0.1-0.1,0.4,0.1,0.6,0
			c0.2-0.1,0.3-0.3,0.4-0.3c0.1,0,0.5,0.1,0.5,0.2C45,17.1,45.3,17.3,45.2,17.4z"/>
		<path class="st5" d="M29.7,14.9c0-0.2,0.1-0.2,0.2-0.2c0.1,0,0.1-0.2,0.3-0.3c0.1,0,0.3,0,0.3,0.1c0.1,0.1,0.1,0.3,0.1,0.5
			c0,0.2-0.2,0.4-0.3,0.4c-0.1,0.1-0.3,0.2-0.5,0.2c-0.2,0-0.3-0.3-0.2-0.4C29.9,15.2,29.8,15.1,29.7,14.9z M28.5,11.6
			c-0.1-0.1-0.4-0.2-0.5-0.2c-0.1,0-0.2,0.1-0.5,0.1c-0.3,0-0.4,0.1-0.6,0c-0.1-0.1-0.6-0.2-0.6-0.1c-0.1,0.1-0.2,0.1-0.1,0.3
			c0.1,0.2,0.2,0.4,0.3,0.3c0.1,0,0.4,0,0.5,0.1c0,0.1,0.1,0.2,0.4,0.2c0.2-0.1,0.4-0.1,0.5-0.2c0.1-0.1,0.4-0.1,0.4-0.1
			S28.6,11.7,28.5,11.6z M25.7,9.7c0-0.1-0.2-0.5,0.1-0.5c0.3,0,0.7,0.3,0.7,0.1c0-0.3,0-0.5,0.1-0.7c0.1-0.1,0.2-0.2,0.2-0.3
			c-0.1,0-0.2,0.1-0.3-0.2c-0.1-0.2,0.1-0.4,0.2-0.5c0.1-0.1,0.6-0.7,0.9-0.8c0.3-0.1,0.5-0.5,0.3-0.5c-0.2-0.1-0.6-0.2-0.9,0
			c-0.3,0.3-0.4,0.5-0.7,0.4C26,6.6,26,6.2,25.8,6c-0.2-0.3-0.1-0.9-0.3-0.9c-0.3,0-0.3,0-0.3,0s-0.3-0.1-0.5,0
			c-0.2,0.1-0.4,0.2-0.6,0.2c-0.3-0.1-0.5,0.1-0.6,0.1c-0.6,0.2-1.1-0.1-1.2-0.1c-0.1,0,0.4,0.1,0.8,0c0.3,0,0.8-0.2,1-0.2
			c0.2,0,0-0.2,0-0.2c-0.3,0-0.8-0.2-1.2-0.2c-0.3,0-0.5,0.1-0.8,0.1c-0.4,0-0.8,0-1.1,0.2c-0.3,0.2-0.6,0.2-0.6,0.2
			c-0.1,0.2-0.3,0.7-0.4,0.5c-0.1-0.1-0.2-0.4-0.3-0.3c-0.2,0.1,0,0.4-0.2,0.7c-0.1,0.2-0.6,0.2-0.7,0.1c-0.1-0.1-0.2-0.1-0.7-0.1
			c-0.5,0-1,0.2-0.9,0.4c0.1,0.2-0.2,0.3-0.3,0.2c-0.1-0.1-0.5,0.1-0.5,0.3c0,0.2-0.1,0.4-0.3,0.4c-0.2,0-0.4,0.1-0.4,0.3
			c0,0.2-0.5,0.3-0.5,0.3c0,0-0.6,0-0.4,0.2c0.1,0.1,0.2,0.1,0.4,0.1c0.2,0,0.3,0.4,0.4,0.5c0.1,0,0.2,0,0.3-0.1
			c0.1-0.1,0.2-0.4,0.2-0.4s0,0.3,0.1,0.4c0.1,0.1,0.5,0,0.6,0c0.1,0,0.7,0.1,0.8,0.2c0.2,0.1,0.6,0.2,0.7,0.4
			c0.1,0.2,0.1,0.9,0.2,1c0.1,0.1,0.3-0.3,0.3-0.3c0.1-0.1,0.3,0,0.4,0.1c0.1,0.1,0.3,0.4,0.3,0.5c0,0.1-0.1,0.3-0.1,0.2
			c-0.1-0.1-0.2,0-0.1-0.2c0.1-0.1,0.1-0.4,0-0.4c-0.1,0-0.2,0-0.2,0s-0.2-0.1-0.3,0.2c-0.1,0.2,0,0.5,0.1,0.5c0.1,0,0.3,0,0.3,0.1
			c0,0.1-0.2,0.3-0.2,0.4c0,0.1,0.2,0.5,0.2,0.6c0,0.1,0.3,0.2,0.4,0.2c0.1,0-0.2,0-0.1,0.1c0.1,0.1,0.2,0.4,0.3,0.4
			c0.1,0.1,0.5,0.4,0.6,0.5c0,0.1,0.3-0.1,0.4-0.1c0.1,0,0,0.3,0.2,0.4c0.2,0,0.2,0,0.4-0.2c0.1-0.1,0.1-0.3,0.1-0.5
			c0-0.1,0-0.3,0.2-0.2c0.2,0,0.2,0,0.2-0.2c0-0.2-0.1-0.4,0.1-0.4c0.3,0,0.4-0.3,0.6-0.3c0.2,0,0.6,0.1,0.7,0
			c0.1-0.1,0.3-0.6,0.4-0.6c0.1,0,0.5,0.1,0.8,0c0.3-0.1,0.7-0.3,0.8-0.3c0.1,0,0.4,0,0.3-0.1c-0.1-0.1-0.2-0.3-0.4-0.3
			c-0.2,0-0.2-0.5-0.2-0.5c0,0,0.5,0.2,0.5,0.4c0,0.2,0.1,0.4,0.3,0.3c0.2-0.1,0.2-0.3,0.2-0.4C25.8,9.9,25.8,9.8,25.7,9.7z
			 M30.9,14.6c0.2,0.1,0.6,0.2,0.5,0.3c-0.2,0.1-0.6,0.6-0.7,0.7c0,0.1,0.5,0.1,0.5,0.1s-0.1,0.2,0,0.2c0.1,0,0.2-0.2,0.3-0.2
			c0.2,0,0.5,0.1,0.6,0.1c0.2,0,0.4-0.3,0.4-0.4c0-0.2-0.2-0.4-0.4-0.5c-0.2-0.1-0.4-0.5-0.5-0.6c-0.1-0.1,0.5-0.4,0.3-0.6
			c-0.1-0.2-0.6-0.1-0.7-0.2c-0.2-0.1-0.3,0-0.4,0.2c-0.1,0.1-0.2,0-0.3,0c-0.2,0.1-0.1,0.3,0,0.4C30.6,14.3,30.7,14.5,30.9,14.6z
			 M43.7,22c0,0.2,0.5,0.6,0.5,0.7c0,0.2,0.1,0.2,0.3,0.4c0.2,0.2,0,0.3,0.2,0.4c0.1,0,0.3-0.2,0.6-0.3c0.2-0.1,0.2-0.3,0.3-0.3
			c0.1,0,0.1,0.3,0.2,0.3c0,0,0.1,0,0.1,0c0,0.6-0.1,1.2-0.2,1.8c-0.2,0.2-0.4,0.4-0.7,0.5c-0.3,0.1-0.3,0.3-0.6,0.3
			c-0.2,0-0.9,0.4-1,0.5c-0.1,0.1-0.7,0.3-0.8,0.2c-0.2-0.1-0.2-0.6-0.3-0.9c-0.1-0.4-0.1-0.6-0.2-0.7c-0.1-0.1-0.4-0.5-0.5-0.6
			c-0.1-0.1-0.3-0.6-0.3-0.9c0-0.2-0.2-0.1-0.3-0.4c0-0.3-0.3-0.6-0.3-0.8c0-0.1-0.3,0-0.5,0c0,0.1,0.1,0.1,0.1,0.2
			c0.1,0.3,0.3,0.7,0.4,1.1c0.2,0.3,0,1,0.1,1.2c0.2,0.2,0.6,0.4,0.7,0.7c0.1,0.3,0.3,0.6,0.4,0.6c0.1,0,0.4,0.6,0.4,0.7
			c0,0.1-0.1,0.5,0.2,0.5c0.3,0,0.6-0.2,0.7-0.2c0.1,0,0.9-0.4,1-0.3c0.1,0.1-0.1,0.8-0.2,0.9c0,0.2-0.6,1-0.6,1.2
			c0,0.2-0.4,0.6-0.6,0.6c-0.2,0-0.7,0.7-0.9,0.9c-0.2,0.2-0.4,0.7-0.6,0.7c-0.1,0-0.2,0.7-0.2,0.8c0.1,0.1,0.1,0.5,0.3,0.7
			c0.2,0.2,0.2,0.3,0.2,0.5c-0.1,0.2,0,0.6,0,0.9c0,0.3-0.4,0.6-0.5,0.7c-0.1,0.1-0.5,0.4-0.6,0.6c-0.2,0.2-0.3,0.5-0.3,0.6
			c0,0.1,0.1,0.3,0.1,0.5c-0.2,0.2-0.4,0.4-0.5,0.6c-0.1,0-0.1,0-0.1,0.1c-0.1,0-0.1,0.1-0.1,0.1c-0.7,0.8-1.5,1.6-2.4,2.3
			c-0.2,0.1-0.3,0.2-0.4,0.2c-0.1,0.1-0.2,0.1-0.4,0c-0.2-0.1-0.2-0.3-0.2-0.6c0-0.3-0.1-0.4-0.1-0.4s-0.1-0.4-0.2-0.6
			c-0.2-0.2-0.2-0.4-0.3-0.6c-0.1-0.1,0.2-0.6,0.2-0.8c0-0.3-0.4-0.6-0.5-0.7c-0.1-0.2-0.3-0.6-0.4-0.8c-0.1-0.2-0.2-0.5-0.2-1
			c0-0.5,0.2-0.8,0.4-0.9c0.2-0.1,0.1-0.3,0-0.6c-0.1-0.3,0-0.8-0.1-0.9c-0.1-0.2-0.3-1.1-0.5-1.3c-0.2-0.1-0.5-0.1-0.3-0.5
			c0.1-0.3,0-0.7,0.2-0.9c0.2-0.2,0.1-0.4-0.1-0.5c-0.2-0.1-0.1-0.2-0.3,0c-0.2,0.2-0.4,0.3-0.6,0.1c-0.1-0.2-0.1-0.4-0.4-0.6
			c-0.3-0.2-0.7-0.1-0.8-0.1c-0.1,0-0.3,0.5-0.6,0.5c-0.3,0-0.5,0-0.8,0c-0.3,0-0.5,0-0.6,0.2c0,0.2-0.1,0.3-0.3,0.1
			c-0.2-0.2-0.5-0.6-0.5-0.6s-0.3-0.7-0.4-1c-0.1-0.3-0.5-0.3-0.8-0.5c-0.4-0.2-0.2-0.5-0.2-0.7c0-0.2-0.2-0.3-0.1-0.4
			c0.1,0,0.1-0.2,0.3-0.5c0.2-0.3,0.1-0.7,0-0.9c0-0.2-0.2-0.5,0-0.8c0.2-0.3,0.3-1.1,0.5-1.2c0.2-0.2,0.6-0.4,0.9-0.5
			c0.2-0.1,0.1-0.4,0.2-0.8c0.1-0.4,0.3-0.5,0.4-0.5c0.1,0,0.3-0.2,0.5-0.4c0.2-0.1,0.6,0,0.7,0c0.1,0,0.4-0.2,0.6-0.3
			c0.2-0.1,0.8-0.3,0.9-0.3c0.1,0,1.1,0,1.2,0c0.1-0.1,0.7-0.2,0.9,0.4c0.2,0.5-0.2,0.3-0.3,0.4c-0.2,0.1,0.1,0.3,0.1,0.3
			c0.1,0,0.4,0.3,0.5,0.3c0.1,0,0.5,0.2,0.5,0.2s0.3,0.3,0.5,0.3c0.2,0,0.5,0.4,0.7,0.1c0.2-0.2,0.3-0.7,0.5-0.7
			c0.2,0,0.4,0.2,0.7,0.2c0.3,0,0.8,0,0.8,0.1c0.1,0.1-0.6,0.5-0.5,0.6c0,0.1,0.1,0.1,0.3-0.2c0.2-0.3,0.5-0.3,0.8-0.4
			c0.1,0,0.2,0.1,0.3,0.2c0.1,0,0.2,0,0.2,0c0.2,0,0.1-0.1,0.3-0.4c0.2-0.2,0.3-0.7,0.3-1c0-0.3-0.1-0.2-0.3-0.1
			C40.2,20,40,20,39.9,20c-0.1,0-0.4-0.1-0.5-0.1c-0.1,0.1-0.4,0-0.5-0.1c-0.1-0.1-0.5-0.3-0.5-0.4c0-0.1,0-0.7-0.1-0.8
			c-0.1-0.1-0.3,0-0.4,0.1c-0.1,0.1-0.4,0.2-0.3,0.2c0.1,0.1,0.3,0.2,0.3,0.4c0,0.2-0.2,0.2-0.3,0.3c-0.1,0.1-0.5,0.5-0.5,0.4
			c-0.1-0.1-0.1-0.9-0.2-1c-0.1-0.1-0.2-0.3-0.3-0.6c-0.1-0.2-0.3-0.3-0.4-0.5c-0.1-0.2-0.5-0.4-0.7-0.6c-0.2-0.2-0.4-0.3-0.5-0.1
			c0,0.2,0.3,0.3,0.4,0.5c0.1,0.2,0.4,0.4,0.5,0.5c0.1,0.1,0.5,0.4,0.5,0.4s-0.2,0.1-0.3,0c-0.1,0,0.1,0.5,0.1,0.7
			c0,0.2-0.3-0.1-0.3-0.3c0-0.2-0.2-0.4-0.2-0.5c-0.1-0.1-0.6-0.3-0.7-0.3c-0.1,0-0.4-0.3-0.5-0.5c0-0.2-0.3-0.2-0.4-0.2
			c-0.1,0-0.4,0.3-0.5,0.3c-0.1,0-0.4-0.1-0.5-0.1c-0.2,0-0.2,0.3-0.2,0.5c-0.1,0.2-0.3,0-0.5,0.2c-0.1,0.2-0.4,0.3-0.3,0.5
			c0.1,0.1,0.2,0.1,0,0.3c-0.2,0.1-0.3,0.4-0.5,0.4c-0.2,0-0.4,0.1-0.5,0c-0.1-0.1-0.2,0.2-0.2,0.3c-0.1,0.1-0.2-0.2-0.3-0.3
			c-0.1-0.1-0.4,0-0.4-0.1c-0.1,0-0.2-0.2-0.3-0.3c-0.1-0.1-0.1-0.3,0-0.4c0.1-0.1,0.2-0.2,0.1-0.4c-0.1-0.2-0.1-0.7,0.1-0.8
			c0.2-0.1,0.7,0,0.9,0c0.2,0,0.7,0.1,0.7,0c0.1-0.2,0.1-0.5,0.1-0.7c0-0.2-0.4-0.4-0.7-0.5c-0.3,0-0.2-0.2,0.1-0.2
			c0.3,0,0.3-0.1,0.5-0.2c0.2,0,0.5-0.1,0.7-0.1c0.2,0,0.2-0.2,0.2-0.4c0-0.1,0.5-0.2,0.5-0.2s0.3-0.3,0.4-0.5
			c0.2-0.1,0.4-0.1,0.7,0c0.2,0.1,0-0.2-0.1-0.3c-0.1-0.1,0-0.4,0-0.5c0.1-0.1,0.4-0.2,0.5-0.2c0.1,0,0,0.3,0,0.5
			c0,0.2,0.2,0.3,0.2,0.3l0.2,0c0,0,0,0,0.3,0c0.3,0,0.3,0,0.5-0.1c0.2-0.1,0.4,0,0.4,0c0.1,0,0.3,0,0.6,0.1
			c0.3,0.1,0.1-0.2,0.2-0.4c0.1-0.2,0.2-0.5,0.4-0.5c0.2,0,0.4,0.2,0.5,0.1c0.2-0.1-0.3-0.3-0.3-0.4c0-0.1,0.4-0.1,0.7-0.1
			c0.3,0,0.5,0,0.7,0c0.2,0-0.1-0.4-0.2-0.4c-0.1,0-0.5,0-0.7,0c-0.2,0-0.4,0.1-0.6,0.2c-0.2,0-0.2-0.3-0.3-0.4
			c-0.1-0.1-0.1-0.4,0.1-0.6c0.3-0.1,0.7-0.5,0.8-0.6c0.1-0.1-0.3-0.1-0.7-0.1c-0.4,0,0.1,0.1-0.3,0.6c-0.4,0.4-0.5,0.1-0.8,0.4
			c-0.3,0.3-0.1,0.3,0.2,0.4c0.3,0.1,0,0.4,0,0.5c-0.1,0.1-0.4,0.3-0.3,0.5c0,0.2-0.2,0.3-0.2,0.3s-0.8,0.2-0.9,0.2
			c-0.1,0-0.2-0.1-0.1-0.3c0-0.1-0.2-0.5-0.2-0.7c0-0.2-0.3,0.1-0.3,0.2c0,0.1-0.4,0.2-0.6,0.1c-0.2-0.1-0.3-0.5-0.3-0.5
			c0-0.1-0.1-0.4-0.1-0.5c0-0.1,0.5-0.8,0.9-0.9c0.4-0.1,0.8-0.3,1.1-0.6c0.3-0.2,0.4-0.5,0.5-0.6c0.1-0.1,1.5-0.9,2-0.9
			c0.5-0.1,1.6,0.5,1.8,0.5c0.2,0,0.3,0.1,0.7,0.3c0.4,0.2,0.9,0,1.2,0c0.3,0.1,0.4,0.4,0.6,0.5c0.2,0.1,0,0.2-0.4,0.3
			c-0.4,0.2-0.8,0.1-1,0c-0.2-0.1-0.4-0.1-0.2,0c0.2,0.1,0.1,0.2,0.1,0.4c0,0.2,0.3,0,0.4,0c0.1,0,0.1-0.1,0.3,0
			c0.2,0.2,0.3,0.1,0.4,0.1c0.1,0,0-0.3,0.1-0.4c0.1-0.1,0.3-0.1,0.4-0.1c0.1,0,0.2-0.1,0.3-0.1c0.1,0,0.1,0.2,0.2,0.3
			c0.1,0,0.1-0.1,0.1-0.2c0.9,1.5,1.7,3.1,2.2,4.7c0.7,2.2,1,4.5,0.9,6.7c-0.1-0.1-0.1-0.2-0.2-0.2c-0.1,0-0.4,0.3-0.5,0.2
			c-0.1,0-0.4-0.3-0.6-0.4c-0.3-0.1-0.3-0.5-0.4-0.7C44,21.5,43.6,21.8,43.7,22z M39.7,30.2c-0.1,0.1-0.1,0.7,0.1,0.7
			c0.2,0,0.5-0.6,0.4-0.8C40.1,30,39.8,30,39.7,30.2z M40.1,13.1c0.1-0.2-0.5-0.6-0.6-0.2C39.5,13.1,40,13.3,40.1,13.1z M41.9,18
			c-0.3-0.2-0.5-0.4-0.7-0.5c-0.2-0.1-0.3-0.2-0.2-0.2c0.1,0,0.3-0.2,0.1-0.2c-0.2,0-0.4,0.1-0.4,0.2c0,0.1-0.1,0.3-0.2,0.3
			c-0.1,0-0.3,0.2-0.3,0.1c-0.1-0.1-0.3-0.6-0.4-0.6c-0.1,0-0.3,0-0.4,0.2c-0.1,0.2-0.3,0.5-0.4,0.6c-0.1,0.1-0.3,0.4-0.2,0.4
			c0.1,0,0,0.5,0,0.5c0,0.1,0.2-0.1,0.4-0.1c0.2,0,0.5,0.1,0.6-0.1c0.1-0.2,0.4-0.2,0.7-0.1c0.3,0,0.5,0.3,0.7,0.3
			c0.2,0,0.7,0,0.8-0.1C42.2,18.5,42.2,18.2,41.9,18z M43.8,19.7c0.1,0,0.6,0.2,0.7,0.2c0.1,0,0.6,0,0.6-0.2c0-0.1-0.1-0.7-0.3-0.9
			c-0.2-0.1,0.2-0.3,0.1-0.4c-0.1-0.1-0.2-0.1-0.3-0.2c-0.1-0.1-0.1-0.3-0.2-0.4c-0.1-0.1-0.2,0.1-0.2-0.2c0-0.3,0.3-0.4,0.4-0.3
			c0.1,0.1,0.5,0.1,0.6,0c0.1-0.1-0.2-0.3-0.2-0.4c-0.1-0.1-0.5-0.3-0.5-0.2c-0.1,0-0.2,0.2-0.4,0.3c-0.2,0.1-0.5-0.1-0.6,0
			c-0.2,0.2-0.3,0.5-0.2,0.6c0.1,0.2,0.4,0.7,0.5,0.7c0.1,0,0.6,0.1,0.4,0.4C44,19,44,19.1,43.8,19C43.6,19,43.7,19.6,43.8,19.7z
			 M10.2,8.6c0.1,0.2,0.5,0.3,0.5,0.3L11.1,9c0,0,0.3-0.1,0.6,0C12,9,12.5,9,12.7,9C13,9,13,8.9,13,8.8c0-0.1-0.5-0.2-0.6-0.2
			c-0.1,0-0.8,0-1,0c-0.2,0-0.5,0-0.6,0c-0.2,0-0.3-0.1-0.4-0.2C10.3,8.3,10,8.1,9.9,8C9.8,8,9.7,8,9.7,8C9.6,8.1,9.5,8.2,9.4,8.3
			c0,0,0.1,0,0.1,0.1C9.7,8.4,10.1,8.5,10.2,8.6z M23.8,32c0,0.2-0.2,0.7-0.2,0.9c0,0.1-0.3,0.5-0.7,0.8c-0.3,0.3-0.1,0.6-0.1,0.8
			c0,0.1-0.2,0.7-0.1,0.8c0.1,0.1-0.1,0.4-0.2,0.6c-0.1,0.2-0.2,0.5-0.3,0.6c-0.1,0.1-0.3,0.1-0.6,0.2c-0.2,0.1-0.4,0.1-0.4,0.1
			s-0.4,0.2-0.7,0.4c-0.2,0.2,0.1,0.5,0,0.8c-0.1,0.3-0.2,0-0.3,0.3c-0.1,0.3-0.2,0.3-0.3,0.3c-0.1,0.1-0.2,0.3-0.2,0.5
			c0,0.2-0.2,0.4-0.5,0.7c-0.3,0.3-0.4,0.2-0.7,0.1c-0.3-0.1-0.2-0.9-0.3-0.8c0,0.1-0.2,0.5-0.1,0.6c0,0.1,0.3,0.4,0.4,0.4
			c0.1,0.1,0.1,0.2,0,0.3c-0.1,0.1-0.3,0.5-0.4,0.6c-0.1,0-0.7,0.1-0.8,0C17,41,17,41.3,17,41.4c0,0.1,0.1,0.3-0.1,0.3
			c-0.2,0-0.5-0.2-0.5-0.1c0,0.1,0.1,0.4,0.2,0.4c0.1,0,0.2-0.1,0.2,0.1c-0.1,0.2-0.2,0.3-0.3,0.4c-0.1,0.1-0.2,0.3-0.4,0.5
			c-0.2,0.2-0.2,0.3-0.2,0.3c0,0.1,0.3,0,0.4,0.1c0.1,0-0.1,0.4-0.1,0.5c0,0-0.1,0.1-0.2,0.2c-0.2-0.1-0.4-0.2-0.5-0.2
			c-0.5-0.2-1-0.5-1.4-0.8c0-0.1,0.1-0.2,0.2-0.3c0.1-0.2,0.2-0.4,0.2-0.5c0-0.1-0.1-0.3-0.1-0.5c0-0.2,0.1-0.3,0.1-0.5
			c0-0.3-0.1-0.2-0.1-0.4c0-0.2,0.2-0.1,0.2-0.4c0-0.2,0.1-0.4,0.2-0.5c0.1-0.1,0.1-0.4,0.2-0.6c0.1-0.2-0.1-0.6-0.1-0.6
			c0-0.1,0.3-0.2,0.1-0.3c-0.1-0.1,0.1-0.2,0.2-0.3c0.1-0.1-0.1-0.5,0-1c0.1-0.4,0.1-1.2,0.1-1.2c0-0.1,0-0.4-0.1-0.6
			c-0.1-0.2-0.2-0.3-0.4-0.4c-0.1-0.1-0.3-0.3-0.4-0.3c-0.1,0-0.7-0.2-0.7-0.6c0-0.3-0.2-0.6-0.3-0.9c0-0.2-0.3-0.8-0.4-1
			c0-0.2-0.4-0.3-0.5-0.6c-0.1-0.3,0.1-0.4,0.1-0.6c0-0.2,0-0.5,0-0.7c0-0.1,0.2-0.5,0.3-0.6c0.1-0.1,0.3-0.3,0.4-0.3
			c0.1,0,0.1-0.3,0.1-0.5c0.1-0.3,0-0.6-0.1-0.7c-0.1,0-0.1-0.4-0.2-0.5c-0.1-0.1-0.3-0.1-0.3-0.1s0,0.2-0.1,0.3
			c-0.2,0.1-0.2,0-0.3-0.1c-0.1-0.1-0.3-0.1-0.4-0.2c-0.1-0.1-0.3-0.3-0.4-0.4c-0.1-0.1-0.4-0.1-0.4-0.4c0-0.3-0.1-0.5-0.2-0.5
			c-0.1,0-0.2-0.2-0.3-0.1c-0.1,0.1-0.3-0.1-0.4-0.1c-0.1,0-0.4-0.3-0.5-0.4c-0.1-0.1-0.2-0.3-0.4-0.3c-0.2,0-0.2,0.1-0.3,0.2
			c-0.1,0.2-0.3-0.1-0.4-0.2c-0.1-0.1-0.4,0-0.6,0c-0.2,0-0.3-0.5-0.3-0.6c0-0.4-0.6-0.4-0.8-0.5c-0.1-0.1-0.3-0.5-0.2-0.6
			c0.1-0.1-0.1-0.4-0.1-0.4s-0.3-0.4-0.4-0.4c-0.1,0-0.4-0.7-0.6-0.9c-0.2-0.2-0.6-0.6-0.7-0.8C5,21.2,5,20.9,4.8,21
			c-0.2,0.2,0,0.3,0.2,0.5c0.2,0.2,0.2,0.4,0.4,0.7c0.3,0.3,0.2,0.5,0.3,0.6C5.8,23,6.2,23.3,6,23.5c-0.2,0.2-0.4-0.2-0.4-0.3
			c-0.1,0-0.3-0.1-0.2-0.2c0-0.1-0.2-0.3-0.3-0.5c-0.1-0.2-0.2-0.1-0.4-0.1c-0.2,0,0-0.3,0.1-0.4c0.1-0.1-0.1-0.3-0.2-0.3
			c-0.1,0-0.3-0.6-0.4-0.9c-0.2-0.3-0.3-0.5-0.5-0.5c0,0,0,0,0,0c0.4-2.7,1.4-5.4,2.8-7.8c0.3-0.6,0.7-1.1,1-1.6c0.1,0,0.1,0,0.2,0
			c0.2,0,0.9,0.1,1.1,0c0.2-0.1,0.1-0.4-0.1-0.4c-0.2-0.1,0-0.2,0.2-0.2c0.2,0,0.4-0.1,0.4,0c0,0.1,0,0.2,0,0.4
			c0,0.2,0.1,0.3,0.2,0.3c0.1,0,0.1-0.2,0.3-0.2c0.1,0,0.1-0.3,0-0.5C9.6,10,9.5,9.9,9.5,9.7c0-0.1,0.2-0.1,0.4,0
			c0.1,0.1,0.3,0.4,0.3,0.4s0.2,0.2,0.3,0.4c0.1,0.2,0.1,0.1,0.3,0c0.2-0.1,0.2-0.1,0.3,0c0.1,0.1,0,0.4,0,0.4c0,0.1,0.2,0,0.2-0.1
			c0-0.1,0.2-0.1,0.3-0.2c0.1,0,0.1-0.3,0.1-0.3s-0.3-0.1-0.5-0.1c-0.3,0-0.3,0-0.5-0.2c-0.2-0.2-0.1-0.3-0.2-0.5
			c-0.1-0.2,0.3-0.3,0.6-0.4c0.3-0.1,0.5,0,0.5,0.3c-0.1,0.4-0.1,0.3,0.2,0.2c0.3-0.1,0-0.4,0.1-0.4c0.1,0,0.5-0.1,0.6-0.1
			c0.1,0,0.8-0.1,1-0.1c0.2,0,0.4,0.2,0.6,0.3c0.2,0.1,0.7,0.3,0.8,0.4c0.1,0.1,1,0.2,1.1,0.2c0.1,0,0.1,0.3,0.2,0.6
			c0.1,0.2,0.3,0.1,0.4,0.1c0.1,0,0.4,0.2,0.4,0.3c0.1,0.1,0.7,0.2,0.7,0.2s-0.1,0.2-0.2,0.3c-0.1,0.1-0.2,0.1-0.3,0.2
			c-0.1,0.1-0.3,0-0.4-0.1c-0.2-0.1-0.4-0.2-0.5-0.1c-0.1,0,0,0.1,0,0.2c0,0.1,0.3,0.2,0.5,0.3c0.2,0.1,0.1,0.3,0.1,0.5
			c0,0.2-0.2-0.1-0.4-0.1c-0.2,0-0.2,0.2-0.2,0.2s-0.3,0-0.4,0c-0.1,0,0,0-0.2-0.2c-0.2-0.2-0.2,0.1-0.3,0c-0.1-0.1-0.2-0.2-0.3-0.2
			c-0.1,0-0.3-0.2-0.4-0.2c-0.1,0-0.6-0.1-0.7,0c-0.1,0-0.2,0-0.3,0.1c-0.1,0-0.1-0.3-0.1-0.5c0.1-0.1,0.2-0.1,0.5-0.1
			c0.3,0.1,0.3,0,0.3-0.1c0.1-0.1,0.1-0.2,0.4-0.3c0.3-0.1,0-0.2-0.1-0.2c-0.1,0-0.2-0.1-0.2,0c-0.1,0.1-0.2,0.3-0.2,0.3
			s-0.2,0-0.4,0c-0.2,0-0.1-0.1,0-0.2c0.1,0,0.2-0.3,0.1-0.4c-0.1-0.1-0.1-0.1-0.3-0.1c-0.2,0-0.1-0.2-0.2-0.2
			c-0.1-0.1-0.1,0-0.1,0.1c0,0.1-0.2,0.1-0.2,0.1s-0.3-0.1-0.4,0c-0.1,0-0.3,0.1-0.2,0.2c0.1,0.1,0.3,0.1,0.3,0.3
			c0.1,0.2-0.3,0.3-0.3,0.3c-0.1,0-0.3,0.1-0.3,0.1s-0.2-0.1-0.4-0.1c-0.2,0-0.3,0-0.2,0.1c0,0.1,0.1,0,0.2,0c0.1,0,0.1,0.1,0.2,0.1
			c0.2,0,0.1-0.1,0.3,0.1c0.2,0.2,0.3,0.2,0.6,0.3c0.3,0.2,0,0.4-0.2,0.4c-0.1,0-0.1-0.1-0.2-0.3c-0.1-0.1-0.4,0-0.4,0
			s-0.3,0.2-0.4,0.2c-0.1,0-0.2,0-0.1-0.2c0.2-0.2-0.2-0.2-0.2-0.4c0-0.2-0.1,0.4-0.1,0.5c0,0.1-0.1-0.1-0.5-0.1
			c-0.3,0-0.3,0.2-0.7,0.5c-0.4,0.3-0.3,0.3-0.3,0.6c0,0.3-0.1,0.4,0.1,0.4c0.2,0,0.1,0.4,0.3,0.4c0.1,0,0.2-0.1,0.5,0
			c0.3,0.2,0.4,0.2,0.8,0.3c0.3,0.1,0.5,0,0.7,0c0.2,0,0.4,0.2,0.4,0.4c0,0.2,0.1,0.2,0.1,0.4c0,0.2,0.2-0.2,0.2-0.2s0.1,0.4,0,0.4
			c-0.1,0,0,0.3,0.1,0.2c0.1,0,0.2,0.1,0.4,0c0.1-0.1-0.1-0.5-0.1-0.6c0-0.1-0.1-0.2-0.2-0.4c-0.1-0.1,0.2-0.2,0.2,0
			c0.1,0.1,0.2,0,0.4-0.1c0.1-0.1,0.1-0.3,0.1-0.3s-0.2-0.4-0.4-0.5c-0.2-0.1-0.1-0.1,0.1-0.2c0.2,0,0-0.1,0-0.4
			c0-0.3,0-0.4,0.1-0.4c0.1,0,0.5-0.1,0.8,0c0.3,0,0.4,0.3,0.6,0.3c0.2,0,0.5,0.1,0.6,0.2c0.1,0.1-0.4,0.2-0.2,0.4
			c0.1,0.2,0.3,0.1,0.4,0.2c0.1,0.1,0.3,0,0.5-0.3c0.2-0.3,0.3-0.3,0.3-0.3c0.1,0,0.4,0.6,0.5,0.7c0.1,0.1,0.2,0.5,0.2,0.6
			c0,0.1,0.4,0,0.5,0c0.1,0,0.4,0.3,0.4,0.4c0,0.1,0.1,0.2,0.4,0.3c0.3,0.1,0,0.3-0.1,0.5c-0.1,0.1-0.1,0.2-0.2,0.4
			c-0.1,0.2,0,0,0.1,0.1c0.1,0.1,0.1,0.2,0.3,0.1c0.2,0,0.2,0,0.3,0.1c0.1,0.1,0.1,0.3,0.2,0.4c0.1,0.1,0,0.3-0.1,0.2
			c-0.1-0.1-0.3-0.1-0.3-0.1s-0.1,0.1-0.2,0.1c0-0.1-0.1-0.2-0.3-0.1c-0.1,0-0.3,0-0.4,0c-0.2,0-0.2-0.1-0.1-0.2
			c0.1-0.1,0.1-0.5,0.3-0.6c0.2-0.1,0.1-0.4,0-0.4c-0.1,0-0.2,0.2-0.3,0.3c-0.1,0-0.4-0.1-0.5,0c-0.1,0.1-0.4,0.2-0.2,0.3
			c0.1,0-0.2,0.2-0.3,0.2c-0.1,0-0.1-0.3-0.1-0.4c0-0.1-0.2,0.1-0.2,0.1s-0.3-0.2-0.4-0.1c-0.1,0.1-0.6,0.1-0.7,0.2
			c-0.1,0.1-0.2,0.5-0.2,0.5s0.1-0.1,0.4-0.1c0.2-0.1,0.2,0,0.4-0.2c0.2-0.1,0.4-0.2,0.5,0.1c0.1,0.2-0.1,0.3-0.1,0.3
			s0.1,0.2,0.2,0.2c0.1,0,0.1,0,0.2-0.1c0.1-0.1,0.1,0.2,0.1,0.3c0,0.1,0.2,0.1,0.3,0c0.1-0.1,0.1-0.2,0.2-0.1
			c0.1,0.1,0.1,0.2,0.2,0.4c0.1,0.2-0.4,0.2-0.5,0.2c-0.1,0-0.5,0.1-0.5,0.1c-0.1,0-0.3,0.2-0.4,0.2c-0.2,0-0.1-0.3-0.2-0.5
			c0-0.2-0.2,0-0.2,0.1c0,0.1-0.2,0-0.3,0.1c-0.1,0-0.4,0.2-0.4,0.4c0,0.2,0.3,0.4,0.2,0.5c-0.1,0.1-0.5,0.1-0.7,0
			c-0.1,0-0.3,0.1-0.3,0.2c0.1,0.1,0,0.2-0.1,0.2c-0.1,0-0.2,0.1-0.1,0.3c0.1,0.1-0.2,0.4-0.2,0.3c-0.1-0.1-0.2-0.1-0.2,0
			c0,0.1,0.1,0.3,0.2,0.5c0.1,0.2-0.3,0.2-0.5,0.4c-0.1,0.1-0.5,0.6-0.7,0.7c-0.2,0.1-0.4,0.4-0.3,0.5c0.1,0.1,0.2,0.6,0.3,0.8
			c0.1,0.2,0,0.6-0.2,0.6c-0.2,0-0.1-0.3-0.3-0.4c-0.2-0.1-0.3-0.5-0.3-0.8c0-0.3-0.1-0.1-0.2,0c-0.1,0.1-0.2-0.2-0.3-0.3
			c-0.1-0.1-0.4,0.1-0.6,0.1c-0.2,0-0.4,0-0.4,0.1c0,0.1,0,0.3-0.3,0.1c-0.2-0.1-0.3-0.1-0.5-0.1c-0.2,0-0.4,0-0.5,0.1
			c0,0.1-0.3,0.3-0.4,0.4c-0.1,0-0.4,0.3-0.3,0.3c0.1,0,0.1,0.4,0,0.6c-0.1,0.2-0.1,0.5,0,0.9c0,0.3,0.3,0.6,0.5,0.8
			c0.2,0.2,0.3,0.3,0.5,0.1c0.2-0.2,0.3-0.1,0.4,0c0.1,0,0.2-0.1,0.2-0.3c-0.1-0.2,0.1-0.4,0.3-0.4c0.2,0,0.4-0.1,0.6,0
			c0.1,0,0.2,0.5,0,0.7c-0.2,0.2-0.1,0.5-0.1,0.7c0,0.2-0.2,0.3,0,0.3c0.2,0,0.2,0,0.3,0.1c0.1,0,0.3-0.1,0.4-0.2
			c0.1,0,0.5,0.4,0.4,0.6c-0.1,0.2-0.1,0.5-0.1,0.8c0,0.3,0.1,0.3,0.1,0.4c0,0.1,0.2,0.3,0.4,0.2c0.2-0.1,0.4-0.2,0.4-0.3
			c0.1-0.1,0.4,0.2,0.4,0.2c0,0.1,0.1,0.1,0.3,0.1c0.1-0.1,0.2-0.2,0.3-0.4c0.1-0.2,0.3-0.4,0.4-0.4c0.1,0,0.3-0.3,0.5-0.3
			c0.2,0-0.1,0.3-0.1,0.4c0,0.1,0,0.6,0.1,0.6c0.1,0,0-0.3,0.1-0.5c0.1-0.2,0.3-0.3,0.4-0.3c0.1,0,0.2,0.5,0.3,0.4
			c0.1-0.1,0.4-0.1,0.5,0c0.1,0.1,0.1,0.2,0.1,0.2s0.1-0.1,0.1-0.2c0-0.1,0.3-0.2,0.5-0.1c0.2,0.1,0.1,0.2,0.2,0.2
			c0.1,0,0.2-0.3,0.3-0.3c0.1,0,0,0.4-0.1,0.6c-0.1,0.2,0.1,0.1,0.1,0.1s0,0,0.1,0.1c0.1,0.1,0.3-0.1,0.3,0.1
			c0.1,0.1,0.2,0.2,0.3,0.5c0.1,0.3,0.3,0,0.5,0c0.2,0,0.6,0.3,0.8,0.6c0.2,0.3,0.2,0.6,0.4,0.6c0.2,0,0.2,0.3,0.2,0.4
			c0,0.1-0.4,0.3-0.6,0.4c-0.2,0-0.2,0.3,0.1,0.2c0.3-0.1,0.2-0.2,0.4-0.3c0.2-0.1,0.4,0.1,0.2,0.4c-0.2,0.3-0.6,0.3-0.2,0.4
			c0.3,0.1,0.1,0,0.3-0.3c0.2-0.3,0.2-0.2,0.3-0.2c0.1,0,0.4,0.1,0.5,0.2c0.1,0.1,0.4,0.2,0.5,0.4c0.2,0.1,0.4,0.1,0.5,0
			c0.1,0,0.5,0.1,0.6,0.3c0.1,0.2,0.4,0.2,0.6,0.3C23.5,31.5,23.7,31.8,23.8,32z M13,17.9c0,0-0.4,0.2-0.4,0.2c0,0.1-0.1,0,0,0.1
			c0,0.1,0.3,0,0.4-0.1c0.1-0.1,0.4-0.2,0.5-0.3c0.1-0.1,0.1-0.1,0.3-0.2c0.2-0.1,0.4-0.1,0.3-0.2c-0.1-0.1-0.5,0-0.6-0.1
			C13.4,17.3,13,17.9,13,17.9z M11.8,16.7c-0.2,0-0.4,0.1-0.5,0.3c-0.1,0.2,0,0.6,0,0.7c0,0.1-0.1,0.6,0.1,0.6
			c0.2,0,0.2-0.3,0.2-0.4c0-0.1,0-0.5,0.1-0.6c0.1-0.1,0.2-0.3,0.4-0.3c0.2,0,0.4,0.2,0.3,0.4c0,0.2,0,0.4,0.1,0.4
			c0.1,0,0.3-0.2,0.2-0.3c-0.1-0.1,0.1-0.6,0.1-0.5c0,0.2,0.2,0.3,0.3,0.3c0.1,0-0.1-0.5-0.2-0.5c-0.1,0-0.4,0-0.5,0
			C12.3,16.8,12,16.7,11.8,16.7z M10.4,16.4c0,0.1,0.2,0.1,0.3,0.1c0.1-0.1,0.3-0.1,0.4-0.1c0.1,0,0,0.1,0.2,0.1
			c0.2,0,0.4,0.1,0.5,0.1c0.1,0,0.2-0.3,0.1-0.3c-0.1,0-0.4-0.2-0.5-0.3c-0.1-0.1-0.4,0.2-0.7,0.3C10.5,16.2,10.4,16.2,10.4,16.4z
			 M35.6,19.8c0.1,0,0.3,0,0.3-0.2c-0.1-0.2-0.3-0.2-0.3-0.2c-0.1,0-0.3-0.1-0.4,0c-0.1,0.1,0.1,0.2,0.2,0.3
			C35.4,19.6,35.5,19.8,35.6,19.8z M13.5,24.9c-0.2,0-0.1,0.5,0.1,0.4C13.8,25.3,13.7,24.9,13.5,24.9z M13.5,23.2
			c0.2,0,0.1-0.3-0.1-0.2C13.2,23,13.3,23.2,13.5,23.2z M10.2,9.1C10,9.1,9.9,9,9.8,9c-0.1,0-0.5,0.3-0.5,0.4c0,0,0.1,0.1,0.3,0.1
			c0.2,0,0.4-0.1,0.6-0.1C10.3,9.4,10.3,9.2,10.2,9.1z M14.1,24.3c0-0.1-0.2-0.4-0.4-0.3c-0.1,0-0.4-0.2-0.6-0.3
			c-0.2-0.2-0.5-0.2-0.6-0.2c-0.1,0-0.6,0.2-0.6,0.2c0,0.2,0.2,0.2,0.4,0.2c0.2,0,0.7,0,0.8,0.1c0.1,0.1,0.4,0.3,0.5,0.4
			C13.8,24.4,14.1,24.4,14.1,24.3z M34.4,18.9c0.1-0.2-0.1-0.4-0.2-0.4c-0.2,0-0.3,0.4-0.2,0.5C34.2,19.1,34.3,19.1,34.4,18.9z
			 M32.9,18.9c0-0.1-0.1-0.3-0.2,0C32.7,19,32.9,19,32.9,18.9z M15.3,24.4c-0.2,0-0.3,0-0.5,0c-0.1,0-0.5,0.4-0.5,0.4s0.2,0,0.4,0.1
			c0.1,0,0.2,0.1,0.3,0.2c0.1,0.1,0.3-0.1,0.4-0.1c0.1,0,0.2,0.3,0.2,0C15.7,24.6,15.4,24.4,15.3,24.4z M16.2,24.7
			c-0.2,0-0.1,0.5,0.1,0.4C16.5,25,16.4,24.7,16.2,24.7z M8.7,9.9C8.9,9.8,8.9,9.7,9,9.7c0.1,0,0-0.4-0.1-0.4c0,0-0.1,0-0.2,0
			C8.5,9.3,8.4,9.4,8.3,9.6C8.3,9.7,8.4,10.1,8.7,9.9z M9.7,8.8C9.7,8.6,9.3,8.5,9.3,8.7C9.2,8.9,9.8,9,9.7,8.8z M8,10.3
			C8.1,10.1,8,10.1,8,10c-0.1,0.2-0.2,0.3-0.4,0.5C7.8,10.5,7.9,10.4,8,10.3z M12.2,12.3c-0.1,0.1,0.2,0.2,0.3,0.1
			C12.5,12.3,12.3,12.1,12.2,12.3z M12.9,12.5c-0.2,0.1,0,0.3,0.1,0.2C13.2,12.6,13.1,12.4,12.9,12.5z"/>
		<g>
			<path class="st6" d="M12.9,12.5c-0.2,0.1,0,0.3,0.1,0.2C13.2,12.6,13.1,12.4,12.9,12.5z"/>
			<path class="st6" d="M15.3,24.4c-0.2,0-0.3,0-0.5,0c-0.1,0-0.5,0.4-0.5,0.4s0.2,0,0.4,0.1c0.1,0,0.2,0.1,0.3,0.2
				c0.1,0.1,0.3-0.1,0.4-0.1c0.1,0,0.2,0.3,0.2,0C15.7,24.6,15.4,24.4,15.3,24.4z"/>
			<path class="st6" d="M16.2,24.7c-0.2,0-0.1,0.5,0.1,0.4C16.5,25,16.4,24.7,16.2,24.7z"/>
			<path class="st6" d="M12.2,12.3c-0.1,0.1,0.2,0.2,0.3,0.1C12.5,12.3,12.3,12.1,12.2,12.3z"/>
			<path class="st6" d="M10.2,9.4c0.1,0,0.2-0.3,0-0.3C10.1,9.1,10,9.1,9.9,9C9.8,9.2,9.6,9.3,9.5,9.5c0,0,0.1,0,0.1,0
				C9.8,9.5,10,9.4,10.2,9.4z"/>
			<path class="st6" d="M11.1,9c0,0,0.3-0.1,0.6,0C12,9,12.5,9,12.7,9C13,9,13,8.9,13,8.8c0-0.1-0.5-0.2-0.6-0.2c-0.1,0-0.8,0-1,0
				c-0.2,0-0.5,0-0.6,0c-0.1,0-0.3-0.1-0.4-0.2c-0.1,0.1-0.1,0.2-0.2,0.2c0.1,0.1,0.4,0.2,0.4,0.2L11.1,9z"/>
			<path class="st6" d="M38.8,21.6c-0.2,0.3-0.3,0.3-0.3,0.2c0-0.1,0.6-0.5,0.5-0.6c-0.1-0.1-0.6-0.1-0.8-0.1
				c-0.3,0-0.5-0.2-0.7-0.2c-0.2,0-0.3,0.4-0.5,0.7c-0.2,0.2-0.5-0.1-0.7-0.1c-0.2,0-0.5-0.3-0.5-0.3S35.4,21,35.2,21
				c-0.1,0-0.4-0.3-0.5-0.3c-0.1,0-0.3-0.2-0.1-0.3c0.2-0.1,0.5,0.1,0.3-0.4c-0.2-0.5-0.7-0.4-0.9-0.4c-0.1,0.1-1.2,0-1.2,0
				c-0.1,0-0.7,0.2-0.9,0.3c-0.2,0.1-0.5,0.2-0.6,0.3c-0.1,0-0.5-0.1-0.7,0c-0.2,0.2-0.5,0.4-0.5,0.4c-0.1,0-0.2,0.2-0.4,0.5
				c-0.1,0.4,0,0.7-0.2,0.8c-0.2,0.1-0.7,0.3-0.9,0.5c-0.2,0.2-0.3,0.9-0.5,1.2c-0.2,0.3,0,0.6,0,0.8c0,0.2,0.2,0.6,0,0.9
				c-0.2,0.3-0.2,0.5-0.3,0.5c-0.1,0,0.1,0.1,0.1,0.4c0,0.2-0.2,0.5,0.2,0.7c0.4,0.2,0.7,0.2,0.8,0.5c0.1,0.3,0.4,1,0.4,1
				s0.4,0.4,0.5,0.6c0.2,0.2,0.2,0.1,0.3-0.1c0-0.2,0.3-0.2,0.6-0.2c0.3,0,0.5,0.1,0.8,0c0.3,0,0.5-0.5,0.6-0.5
				c0.1,0,0.5-0.1,0.8,0.1c0.3,0.2,0.2,0.5,0.4,0.6c0.1,0.2,0.4,0.1,0.6-0.1c0.2-0.2,0.1-0.1,0.3,0c0.2,0.1,0.3,0.3,0.1,0.5
				c-0.2,0.2-0.1,0.6-0.2,0.9c-0.1,0.3,0,0.3,0.2,0.4c1.1-0.9,2-2,2.7-3.2c1.1-1.8,1.8-3.9,2.2-6.1C39.1,21.4,38.9,21.4,38.8,21.6z"
				/>
			<path class="st6" d="M25.7,9.7c0-0.1-0.2-0.5,0.1-0.5c0.3,0,0.7,0.3,0.7,0.1c0-0.3,0-0.5,0.1-0.7c0.1-0.1,0.2-0.2,0.2-0.3
				c-0.1,0-0.2,0.1-0.3-0.2c-0.1-0.2,0.1-0.4,0.2-0.5c0.1-0.1,0.6-0.7,0.9-0.8c0.3-0.1,0.5-0.5,0.3-0.5c-0.2-0.1-0.6-0.2-0.9,0
				c-0.3,0.3-0.4,0.5-0.7,0.4C26,6.6,26,6.2,25.8,6c-0.2-0.3-0.1-0.9-0.3-0.9c-0.3,0-0.3,0-0.3,0s-0.3-0.1-0.5,0
				c-0.2,0.1-0.4,0.2-0.6,0.2c-0.3-0.1-0.5,0.1-0.6,0.1c-0.6,0.2-1.1-0.1-1.2-0.1c-0.1,0,0.4,0.1,0.8,0c0.3,0,0.8-0.2,1-0.2
				c0.2,0,0-0.2,0-0.2c-0.3,0-0.8-0.2-1.2-0.2c-0.3,0-0.5,0.1-0.8,0.1c-0.4,0-0.8,0-1.1,0.2c-0.3,0.2-0.6,0.2-0.6,0.2
				c-0.1,0.2-0.3,0.7-0.4,0.5c-0.1-0.1-0.2-0.4-0.3-0.3c-0.2,0.1,0,0.4-0.2,0.7c-0.1,0.2-0.6,0.2-0.7,0.1c-0.1-0.1-0.2-0.1-0.7-0.1
				c-0.5,0-1,0.2-0.9,0.4c0.1,0.2-0.2,0.3-0.3,0.2c-0.1-0.1-0.5,0.1-0.5,0.3c0,0.2-0.1,0.4-0.3,0.4c-0.2,0-0.4,0.1-0.4,0.3
				c0,0.2-0.5,0.3-0.5,0.3c0,0-0.6,0-0.4,0.2c0.1,0.1,0.2,0.1,0.4,0.1c0.2,0,0.3,0.4,0.4,0.5c0.1,0,0.2,0,0.3-0.1
				c0.1-0.1,0.2-0.4,0.2-0.4s0,0.3,0.1,0.4c0.1,0.1,0.5,0,0.6,0c0.1,0,0.7,0.1,0.8,0.2c0.2,0.1,0.6,0.2,0.7,0.4
				c0.1,0.2,0.1,0.9,0.2,1c0.1,0.1,0.3-0.3,0.3-0.3c0.1-0.1,0.3,0,0.4,0.1c0.1,0.1,0.3,0.4,0.3,0.5c0,0.1-0.1,0.3-0.1,0.2
				c-0.1-0.1-0.2,0-0.1-0.2c0.1-0.1,0.1-0.4,0-0.4c-0.1,0-0.2,0-0.2,0s-0.2-0.1-0.3,0.2c-0.1,0.2,0,0.5,0.1,0.5c0.1,0,0.3,0,0.3,0.1
				c0,0.1-0.2,0.3-0.2,0.4c0,0.1,0.2,0.5,0.2,0.6c0,0.1,0.3,0.2,0.4,0.2c0.1,0-0.2,0-0.1,0.1c0.1,0.1,0.2,0.4,0.3,0.4
				c0.1,0.1,0.5,0.4,0.6,0.5c0,0.1,0.3-0.1,0.4-0.1c0.1,0,0,0.3,0.2,0.4c0.2,0,0.2,0,0.4-0.2c0.1-0.1,0.1-0.3,0.1-0.5
				c0-0.1,0-0.3,0.2-0.2c0.2,0,0.2,0,0.2-0.2c0-0.2-0.1-0.4,0.1-0.4c0.3,0,0.4-0.3,0.6-0.3c0.2,0,0.6,0.1,0.7,0
				c0.1-0.1,0.3-0.6,0.4-0.6c0.1,0,0.5,0.1,0.8,0c0.3-0.1,0.7-0.3,0.8-0.3c0.1,0,0.4,0,0.3-0.1c-0.1-0.1-0.2-0.3-0.4-0.3
				c-0.2,0-0.2-0.5-0.2-0.5c0,0,0.5,0.2,0.5,0.4c0,0.2,0.1,0.4,0.3,0.3c0.2-0.1,0.2-0.3,0.2-0.4C25.8,9.9,25.8,9.8,25.7,9.7z"/>
			<path class="st6" d="M23.4,31.4c-0.1-0.1-0.4-0.1-0.6-0.3c-0.1-0.2-0.5-0.4-0.6-0.3c-0.1,0-0.3,0.1-0.5,0
				c-0.2-0.1-0.4-0.3-0.5-0.4c-0.1-0.1-0.4-0.2-0.5-0.2c-0.1,0-0.1-0.1-0.3,0.2c-0.2,0.3,0,0.4-0.3,0.3c-0.3,0,0-0.1,0.2-0.4
				c0.2-0.3,0-0.5-0.2-0.4c-0.2,0.1-0.1,0.2-0.4,0.3c-0.3,0.1-0.3-0.2-0.1-0.2c0.2,0,0.6-0.3,0.6-0.4c0-0.1,0-0.4-0.2-0.4
				c-0.2,0-0.1-0.2-0.4-0.6c-0.2-0.3-0.6-0.7-0.8-0.6c-0.2,0-0.4,0.3-0.5,0c-0.1-0.3-0.3-0.3-0.3-0.5c-0.1-0.1-0.3,0-0.3-0.1
				c-0.1-0.1-0.1-0.1-0.1-0.1s-0.3,0.1-0.1-0.1c0.1-0.2,0.2-0.6,0.1-0.6c-0.1,0-0.2,0.4-0.3,0.3c-0.1,0,0-0.1-0.2-0.2
				c-0.2-0.1-0.5,0-0.5,0.1c0,0.1-0.1,0.2-0.1,0.2s-0.1-0.1-0.1-0.2c-0.1-0.1-0.3-0.2-0.5,0c-0.1,0.1-0.2-0.4-0.3-0.4
				c-0.1,0-0.3,0.1-0.4,0.3C15,27.2,15,27.5,15,27.5c-0.1,0-0.1-0.4-0.1-0.6c0-0.1,0.2-0.4,0.1-0.4c-0.2,0-0.4,0.2-0.5,0.3
				c-0.1,0-0.3,0.2-0.4,0.4c-0.1,0.2-0.2,0.3-0.3,0.4c-0.1,0.1-0.3,0-0.3-0.1c0-0.1-0.3-0.3-0.4-0.2c-0.1,0.1-0.2,0.2-0.4,0.3
				c-0.2,0.1-0.3-0.1-0.4-0.2c0-0.1-0.1-0.1-0.1-0.4c0-0.3,0-0.6,0.1-0.8c0.1-0.2-0.3-0.6-0.4-0.6c-0.1,0-0.3,0.2-0.4,0.2
				c-0.1,0-0.1-0.1-0.3-0.1c-0.2,0,0,0,0-0.3c0-0.2-0.1-0.5,0.1-0.7c0.2-0.2,0.1-0.6,0-0.7c-0.1,0-0.4,0.1-0.6,0
				c-0.2,0-0.3,0.2-0.3,0.4c0.1,0.2-0.1,0.4-0.2,0.3c-0.1,0-0.1-0.1-0.4,0c-0.2,0.2-0.3,0.1-0.5-0.1c-0.2-0.2-0.5-0.4-0.5-0.8
				c0-0.3-0.1-0.7,0-0.9c0.1-0.2,0.1-0.5,0-0.6c-0.1,0,0.1-0.3,0.3-0.3c0.1,0,0.4-0.3,0.4-0.4c0-0.1,0.2-0.1,0.5-0.1
				c0.2,0,0.3,0,0.5,0.1c0.2,0.1,0.3-0.1,0.3-0.1c0-0.1,0.1-0.1,0.4-0.1c0.2,0,0.5-0.2,0.6-0.1c0.1,0.1,0.2,0.4,0.3,0.3
				c0.1-0.1,0.2-0.3,0.2,0c0,0.3,0.1,0.7,0.3,0.8c0.2,0.1,0.1,0.4,0.3,0.4c0.2,0,0.3-0.5,0.2-0.6c-0.1-0.2-0.2-0.7-0.3-0.8
				c-0.1-0.1,0.1-0.4,0.3-0.5c0.2-0.1,0.5-0.6,0.7-0.7c0.1-0.1,0.6-0.2,0.5-0.4c-0.1-0.2-0.2-0.4-0.2-0.5c0-0.1,0.1-0.1,0.2,0
				c0.1,0.1,0.3-0.1,0.2-0.3c-0.1-0.1,0-0.3,0.1-0.3c0.1,0,0.2-0.1,0.1-0.2c-0.1-0.1,0.1-0.2,0.3-0.2c0.1,0,0.6,0.1,0.7,0
				c0.1-0.1-0.2-0.3-0.2-0.5c0-0.2,0.2-0.4,0.4-0.4c0.1,0,0.3,0,0.3-0.1c0-0.1,0.2-0.3,0.2-0.1c0,0.2,0,0.5,0.2,0.5
				c0.2,0,0.4-0.2,0.4-0.2c0.1,0,0.4-0.1,0.5-0.1c0.1,0,0.6-0.1,0.5-0.2c-0.1-0.2-0.1-0.3-0.2-0.4c-0.1-0.1-0.1,0-0.2,0.1
				c-0.1,0.1-0.2,0.1-0.3,0c0-0.1,0-0.4-0.1-0.3c-0.1,0.1-0.2,0.2-0.2,0.1c-0.1,0-0.2-0.2-0.2-0.2s0.2-0.1,0.1-0.3
				c-0.1-0.2-0.3-0.2-0.5-0.1c-0.2,0.1-0.2,0.1-0.4,0.2c-0.2,0.1-0.4,0.1-0.4,0.1s0.1-0.4,0.2-0.5c0.1-0.1,0.6-0.1,0.7-0.2
				c0.1-0.1,0.4,0.1,0.4,0.1s0.2-0.2,0.2-0.1c0,0.1,0,0.4,0.1,0.4c0.1,0,0.5-0.2,0.3-0.2c-0.1,0,0.1-0.1,0.2-0.3
				c0.1-0.1,0.4,0,0.5,0c0.1,0,0.1-0.3,0.3-0.3c0.1,0,0.2,0.2,0,0.4c-0.2,0.1-0.2,0.5-0.3,0.6c-0.1,0.1,0,0.2,0.1,0.2
				c0.2,0,0.3,0,0.4,0c0.1,0,0.2,0,0.3,0.1c0,0.1,0.2-0.1,0.2-0.1s0.3-0.1,0.3,0.1c0.1,0.1,0.1-0.1,0.1-0.2
				c-0.1-0.1-0.1-0.2-0.2-0.4c-0.1-0.1-0.1-0.2-0.3-0.1c-0.2,0-0.2,0-0.3-0.1c-0.1-0.1-0.2,0.1-0.1-0.1c0.1-0.2,0.1-0.2,0.2-0.4
				c0.1-0.1,0.3-0.4,0.1-0.5c-0.3-0.1-0.3-0.1-0.4-0.3c0-0.1-0.3-0.4-0.4-0.4c-0.1,0-0.5,0.1-0.5,0c0-0.1-0.1-0.5-0.2-0.6
				c-0.1-0.1-0.5-0.7-0.5-0.7c-0.1,0-0.1,0-0.3,0.3c-0.2,0.3-0.3,0.3-0.5,0.3c-0.1-0.1-0.3,0-0.4-0.2c-0.1-0.2,0.3-0.3,0.2-0.4
				c-0.1-0.1-0.4-0.2-0.6-0.2c-0.2,0-0.3-0.3-0.6-0.3c-0.3,0-0.7,0-0.8,0c-0.1,0-0.1,0.2-0.1,0.4c0,0.3,0.1,0.3,0,0.4
				c-0.2,0-0.3,0.1-0.1,0.2c0.2,0.1,0.4,0.5,0.4,0.5s0,0.2-0.1,0.3c-0.1,0.1-0.3,0.2-0.4,0.1c-0.1-0.1-0.3-0.1-0.2,0
				c0.1,0.1,0.2,0.2,0.2,0.4c0,0.1,0.2,0.5,0.1,0.6c-0.1,0.1-0.3,0-0.4,0c-0.1,0-0.2-0.2-0.1-0.2c0.1,0,0-0.4,0-0.4
				s-0.2,0.4-0.2,0.2c0-0.2-0.1-0.2-0.1-0.4c0-0.2-0.2-0.4-0.4-0.4c-0.2,0-0.4,0.1-0.7,0c-0.3-0.1-0.5-0.1-0.8-0.3
				c-0.3-0.2-0.4-0.1-0.5,0c-0.1,0-0.1-0.3-0.3-0.4c-0.2,0-0.1-0.1-0.1-0.4c0-0.3-0.2-0.2,0.3-0.6c0.4-0.3,0.4-0.5,0.7-0.5
				c0.3,0,0.5,0.2,0.5,0.1c0-0.1,0.1-0.8,0.1-0.5c0,0.2,0.4,0.3,0.2,0.4c-0.2,0.2-0.1,0.2,0.1,0.2c0.1,0,0.4-0.2,0.4-0.2
				s0.3-0.2,0.4,0c0.1,0.1,0.1,0.3,0.2,0.3c0.1,0,0.4-0.2,0.2-0.4c-0.3-0.2-0.4-0.1-0.6-0.3c-0.2-0.2-0.1-0.1-0.3-0.1
				c-0.2,0-0.2-0.1-0.2-0.1c-0.1,0-0.2,0-0.2,0c0-0.1,0-0.1,0.2-0.1c0.2,0,0.4,0.1,0.4,0.1s0.2-0.1,0.3-0.1c0.1,0,0.4-0.1,0.3-0.3
				c-0.1-0.2-0.3-0.2-0.3-0.3c-0.1-0.1,0.1-0.2,0.2-0.2c0.1,0,0.4,0,0.4,0s0.2,0,0.2-0.1c0-0.1,0-0.2,0.1-0.1c0.1,0.1,0,0.3,0.2,0.2
				c0.2,0,0.2,0,0.3,0.1c0.1,0.1,0,0.4-0.1,0.4c-0.1,0-0.3,0.1,0,0.2c0.2,0,0.4,0,0.4,0s0.1-0.2,0.2-0.3c0.1-0.1,0.2,0,0.2,0
				c0.1,0,0.4,0.1,0.1,0.2c-0.3,0.1-0.3,0.2-0.4,0.3c-0.1,0.1-0.1,0.2-0.3,0.1c-0.3-0.1-0.4-0.1-0.5,0.1c-0.1,0.1,0,0.5,0.1,0.5
				c0.1,0,0.2,0,0.3-0.1c0.1,0,0.6,0.1,0.7,0c0.1,0,0.3,0.2,0.4,0.2c0.1,0,0.2,0.1,0.3,0.2c0.1,0.1,0.1-0.2,0.3,0
				c0.2,0.2,0.1,0.2,0.2,0.2c0.1,0,0.4,0,0.4,0s0-0.2,0.2-0.2c0.2,0,0.4,0.3,0.4,0.1c0-0.2,0-0.3-0.1-0.5c-0.2-0.1-0.4-0.2-0.5-0.3
				c0-0.1-0.1-0.2,0-0.2c0.1,0,0.3,0,0.5,0.1c0.2,0.1,0.3,0.2,0.4,0.1c0.1-0.1,0.3-0.1,0.3-0.2c0.1-0.1,0.2-0.3,0.2-0.3
				S17,11.1,16.9,11c-0.1-0.1-0.4-0.3-0.4-0.3c-0.1,0-0.3,0.2-0.4-0.1C16,10.4,16,10.1,16,10.1c-0.1,0-0.9-0.2-1.1-0.2
				c-0.1-0.1-0.6-0.2-0.8-0.4c-0.2-0.1-0.4-0.3-0.6-0.3c-0.2,0-0.8,0.1-1,0.1c-0.1,0-0.5,0-0.6,0.1c-0.1,0,0.2,0.3-0.1,0.4
				c-0.3,0.1-0.3,0.1-0.2-0.2c0.1-0.4-0.2-0.5-0.5-0.3c-0.3,0.1-0.7,0.2-0.6,0.4c0.1,0.2,0,0.3,0.2,0.5c0.2,0.2,0.3,0.2,0.5,0.2
				c0.3,0,0.5,0.1,0.5,0.1s0,0.3-0.1,0.3c-0.1,0-0.3,0-0.3,0.2c0,0.1-0.2,0.2-0.2,0.1c0-0.1,0.1-0.3,0-0.4c-0.1-0.1-0.2-0.1-0.3,0
				c-0.2,0.1-0.2,0.2-0.3,0c-0.1-0.2-0.3-0.4-0.3-0.4S10,9.8,9.9,9.7c-0.1-0.1-0.3-0.1-0.4,0c0,0.1,0,0.2,0.1,0.5
				c0.1,0.2,0.1,0.5,0,0.5c-0.1,0-0.1,0.2-0.3,0.2c-0.1,0-0.2-0.1-0.2-0.3c0-0.2-0.1-0.4,0-0.4c0,0-0.1,0-0.2,0
				c-0.1,0.1-0.1,0.2-0.2,0.3c0,0.1,0,0.2-0.1,0.3c0,0-0.1,0-0.1,0c-1.1,1.8-2,3.9-2.3,6.2c-0.3,2-0.1,4.2,0.3,6.3
				c0.1,0.1,0.2,0.2,0.2,0.2s0.2,0.3,0.1,0.4C6.8,24,6.9,24.4,7,24.5c0.1,0.1,0.8,0.1,0.8,0.5c0,0.1,0.1,0.6,0.3,0.6
				c0.2,0,0.5-0.1,0.6,0c0.1,0.1,0.2,0.4,0.4,0.2c0.1-0.2,0.1-0.2,0.3-0.2c0.2,0,0.3,0.2,0.4,0.3c0.1,0.1,0.4,0.4,0.5,0.4
				c0.1,0,0.3,0.2,0.4,0.1c0.1-0.1,0.3,0,0.3,0.1c0.1,0,0.3,0.2,0.2,0.5c0,0.3,0.3,0.4,0.4,0.4c0.1,0.1,0.3,0.2,0.4,0.4
				c0.1,0.1,0.3,0.1,0.4,0.2c0.1,0.1,0.1,0.2,0.3,0.1c0.2-0.1,0.1-0.3,0.1-0.3s0.2,0,0.3,0.1c0.1,0.1,0.2,0.4,0.2,0.5
				c0.1,0,0.2,0.4,0.1,0.7c-0.1,0.3-0.1,0.5-0.1,0.5c-0.1,0-0.3,0.2-0.4,0.3c-0.1,0.1-0.3,0.5-0.3,0.6c0,0.1,0.1,0.5,0,0.7
				c0,0.2-0.2,0.3-0.1,0.6c0,0,0,0,0,0c1.2,0.7,2.5,1.2,3.9,1.7c2,0.7,4.2,1.2,6.3,1.3c0,0,0,0,0,0c0-0.1-0.2-0.5,0.1-0.8
				c0.3-0.3,0.6-0.7,0.7-0.8c0-0.1,0.3-0.6,0.2-0.9C23.7,31.8,23.5,31.5,23.4,31.4z M13.4,17.3c0.1,0,0.5-0.1,0.6,0.1
				c0.1,0.1-0.1,0.1-0.3,0.2c-0.2,0.1-0.3,0.1-0.3,0.2c-0.1,0.1-0.3,0.2-0.5,0.3c-0.1,0.1-0.3,0.2-0.4,0.1c-0.1-0.1,0-0.1,0-0.1
				c0-0.1,0.4-0.2,0.4-0.2S13.4,17.3,13.4,17.3z M12.4,16.8c0.1,0,0.3,0,0.5,0c0.1,0,0.3,0.5,0.2,0.5c-0.1,0-0.3-0.1-0.3-0.3
				c0-0.2-0.1,0.3-0.1,0.5c0.1,0.1-0.2,0.3-0.2,0.3c-0.1,0-0.1-0.2-0.1-0.4c0-0.2-0.1-0.4-0.3-0.4c-0.2,0-0.3,0.2-0.4,0.3
				c-0.1,0.1-0.1,0.5-0.1,0.6c0,0.1,0,0.4-0.2,0.4c-0.2,0-0.1-0.4-0.1-0.6c0-0.1-0.1-0.5,0-0.7c0.1-0.2,0.3-0.3,0.5-0.3
				C12,16.7,12.3,16.8,12.4,16.8z M10.8,16.1c0.3-0.1,0.6-0.5,0.7-0.3c0.1,0.1,0.3,0.3,0.5,0.3c0.1,0,0,0.3-0.1,0.3
				c-0.1,0-0.3-0.1-0.5-0.1c-0.2,0-0.1-0.1-0.2-0.1c-0.1,0-0.3,0.1-0.4,0.1c-0.1,0.1-0.3,0.1-0.3-0.1C10.4,16.2,10.5,16.2,10.8,16.1
				z"/>
			<path class="st6" d="M35.6,19.8c0.1,0,0.3,0,0.3-0.2c-0.1-0.2-0.3-0.2-0.3-0.2c-0.1,0-0.3-0.1-0.4,0c-0.1,0.1,0.1,0.2,0.2,0.3
				C35.4,19.6,35.5,19.8,35.6,19.8z"/>
			<path class="st6" d="M32.9,18.9c0-0.1-0.1-0.3-0.2,0C32.7,19,32.9,19,32.9,18.9z"/>
			<path class="st6" d="M34.4,18.9c0.1-0.2-0.1-0.4-0.2-0.4c-0.2,0-0.3,0.4-0.2,0.5C34.2,19.1,34.3,19.1,34.4,18.9z"/>
			<path class="st6" d="M29.7,15.3c-0.1,0.1,0,0.4,0.2,0.4c0.2,0,0.3-0.1,0.5-0.2c0.1-0.1,0.3-0.2,0.3-0.4c0-0.2,0-0.4-0.1-0.5
				c-0.1-0.1-0.2-0.1-0.3-0.1c-0.2,0-0.2,0.3-0.3,0.3c-0.1,0-0.3,0-0.2,0.2C29.8,15.1,29.9,15.2,29.7,15.3z"/>
			<path class="st6" d="M30.9,14.6c0.2,0.1,0.6,0.2,0.5,0.3c-0.2,0.1-0.6,0.6-0.7,0.7c0,0.1,0.5,0.1,0.5,0.1s-0.1,0.2,0,0.2
				c0.1,0,0.2-0.2,0.3-0.2c0.2,0,0.5,0.1,0.6,0.1c0.2,0,0.4-0.3,0.4-0.4c0-0.2-0.2-0.4-0.4-0.5c-0.2-0.1-0.4-0.5-0.5-0.6
				c-0.1-0.1,0.5-0.4,0.3-0.6c-0.1-0.2-0.6-0.1-0.7-0.2c-0.2-0.1-0.3,0-0.4,0.2c-0.1,0.1-0.2,0-0.3,0c-0.2,0.1-0.1,0.3,0,0.4
				C30.6,14.3,30.7,14.5,30.9,14.6z"/>
			<path class="st6" d="M37.3,12.8c0.1,0.1,0.1,0.5,0.3,0.4c0.2,0,0.4-0.2,0.6-0.2c0.1,0,0.4,0,0.5,0c-0.2-0.5-0.3-0.9-0.6-1.3
				c-0.1,0.2-0.5,0.4-0.8,0.6C37.2,12.4,37.2,12.7,37.3,12.8z"/>
			<path class="st6" d="M28.5,11.6c-0.1-0.1-0.4-0.2-0.5-0.2c-0.1,0-0.2,0.1-0.5,0.1c-0.3,0-0.4,0.1-0.6,0c-0.1-0.1-0.6-0.2-0.6-0.1
				c-0.1,0.1-0.2,0.1-0.1,0.3c0.1,0.2,0.2,0.4,0.3,0.3c0.1,0,0.4,0,0.5,0.1c0,0.1,0.1,0.2,0.4,0.2c0.2-0.1,0.4-0.1,0.5-0.2
				c0.1-0.1,0.4-0.1,0.4-0.1S28.6,11.7,28.5,11.6z"/>
			<path class="st6" d="M13.5,24.9c-0.2,0-0.1,0.5,0.1,0.4C13.8,25.3,13.7,24.9,13.5,24.9z"/>
			<path class="st6" d="M39.2,18.6c-0.2,0-0.4,0.2-0.4,0.1c0,0,0.1-0.4,0-0.5c-0.1,0,0-0.3,0.2-0.4c0.1-0.1,0.3-0.3,0.4-0.6
				c0.1-0.1,0.1-0.2,0.2-0.2c-0.1-1.2-0.3-2.4-0.7-3.5c-0.1,0-0.3,0-0.5,0c-0.3,0-0.7,0-0.7,0.1c0,0.1,0.5,0.2,0.3,0.4
				c-0.2,0.1-0.3,0-0.5-0.1c-0.2,0-0.3,0.3-0.4,0.5c-0.1,0.2,0.1,0.5-0.2,0.4c-0.3-0.1-0.5-0.1-0.6-0.1c-0.1,0-0.2,0-0.4,0
				c-0.2,0.1-0.2,0.1-0.5,0.1c-0.3,0-0.3,0-0.3,0l-0.2,0c0,0-0.2-0.1-0.2-0.3c0-0.2,0.1-0.4,0-0.5c-0.1,0-0.5,0-0.5,0.2
				c-0.1,0.1-0.1,0.4,0,0.5c0.1,0.1,0.3,0.4,0.1,0.3c-0.2-0.1-0.5-0.1-0.7,0c-0.2,0.1-0.4,0.5-0.4,0.5s-0.5,0-0.5,0.2
				c0,0.1,0,0.3-0.2,0.4c-0.2,0-0.4,0.1-0.7,0.1c-0.2,0-0.2,0.2-0.5,0.2c-0.3,0-0.3,0.2-0.1,0.2c0.3,0,0.7,0.2,0.7,0.5
				c0,0.2,0,0.5-0.1,0.7c-0.1,0.1-0.5,0-0.7,0c-0.2,0-0.7-0.1-0.9,0c-0.2,0.1-0.2,0.6-0.1,0.8c0.1,0.2,0,0.3-0.1,0.4
				c-0.1,0.1-0.1,0.3,0,0.4c0.1,0.1,0.2,0.3,0.3,0.3c0.1,0,0.3-0.1,0.4,0.1c0.1,0.1,0.2,0.4,0.3,0.3c0.1-0.1,0.1-0.4,0.2-0.3
				c0.1,0.1,0.3,0,0.5,0c0.2,0,0.3-0.3,0.5-0.4c0.2-0.1,0.1-0.1,0-0.3c-0.1-0.1,0.2-0.3,0.3-0.5c0.1-0.2,0.4,0,0.5-0.2
				c0.1-0.2,0.1-0.5,0.2-0.5c0.2,0,0.4,0.1,0.5,0.1c0.1,0,0.4-0.3,0.5-0.3c0.1,0,0.4,0,0.4,0.2c0,0.2,0.4,0.5,0.5,0.5
				c0.1,0,0.6,0.2,0.7,0.3c0.1,0.1,0.2,0.3,0.2,0.5c0,0.2,0.3,0.4,0.3,0.3c0-0.2-0.2-0.7-0.1-0.7c0.1,0,0.3,0,0.3,0
				s-0.4-0.3-0.5-0.4c-0.1-0.1-0.4-0.2-0.5-0.5c-0.1-0.2-0.4-0.3-0.4-0.5c0-0.2,0.3-0.1,0.5,0.1c0.2,0.2,0.6,0.5,0.7,0.6
				c0.1,0.2,0.4,0.2,0.4,0.5c0.1,0.2,0.2,0.5,0.3,0.6c0.1,0.1,0.1,0.9,0.2,1c0.1,0.1,0.4-0.3,0.5-0.4c0.1-0.1,0.3-0.1,0.3-0.3
				c0-0.2-0.2-0.3-0.3-0.4c-0.1-0.1,0.2-0.1,0.3-0.2c0.1-0.1,0.3-0.3,0.4-0.1c0.1,0.1,0,0.7,0.1,0.8c0,0.1,0.4,0.2,0.5,0.4
				c0.1,0.1,0.4,0.2,0.5,0.1c0,0,0.1,0,0.1,0c0-0.5,0.1-0.9,0.1-1.4C39.5,18.6,39.3,18.6,39.2,18.6z"/>
			<path class="st6" d="M13.5,23.2c0.2,0,0.1-0.3-0.1-0.2C13.2,23,13.3,23.2,13.5,23.2z"/>
			<path class="st6" d="M33.5,13.3c0,0.1,0.1,0.4,0.3,0.5c0.2,0.1,0.6,0.1,0.6-0.1c0-0.1,0.3-0.5,0.3-0.2c0,0.2,0.2,0.6,0.2,0.7
				c0,0.1,0,0.3,0.1,0.3c0.1,0,0.9-0.2,0.9-0.2s0.2-0.1,0.2-0.3c0-0.2,0.3-0.5,0.3-0.5c0.1-0.1,0.3-0.4,0-0.5
				c-0.3-0.1-0.5-0.1-0.2-0.4c0.3-0.3,0.5,0,0.8-0.4c0.4-0.4-0.1-0.6,0.3-0.6c0.2,0,0.5,0,0.6,0c-0.2-0.4-0.4-0.7-0.6-1.1
				c-0.1-0.2-0.2-0.3-0.3-0.5c-0.6,0.3-1.3,0.7-1.4,0.7c-0.1,0.1-0.2,0.4-0.5,0.6c-0.3,0.2-0.7,0.5-1.1,0.6
				c-0.4,0.1-0.9,0.8-0.9,0.9C33.4,12.9,33.6,13.2,33.5,13.3z"/>
			<path class="st6" d="M14.1,24.3c0-0.1-0.2-0.4-0.4-0.3c-0.1,0-0.4-0.2-0.6-0.3c-0.2-0.2-0.5-0.2-0.6-0.2c-0.1,0-0.6,0.2-0.6,0.2
				c0,0.2,0.2,0.2,0.4,0.2c0.2,0,0.7,0,0.8,0.1c0.1,0.1,0.4,0.3,0.5,0.4C13.8,24.4,14.1,24.4,14.1,24.3z"/>
		</g>
		<g>
			<g>
				<g>
					<path class="st7" d="M8.1,8.3c-0.1,0-0.1,0-0.2,0C7.8,8.4,7.7,8.6,7.6,8.7c0,0,0.1,0,0.2,0C7.9,8.5,8,8.4,8.1,8.3z"/>
				</g>
				<g>
					<path class="st7" d="M8.4,8c0,0,0-0.1,0-0.1C8.3,7.9,8.3,8,8.2,8.1c0.1,0,0.1,0,0.1,0C8.4,8.1,8.4,8,8.4,8z"/>
				</g>
				<g>
					<path class="st7" d="M7.4,9c0.1,0,0.1-0.2,0.2-0.2C7.4,8.8,7.4,8.9,7.4,9C7.3,9,7.3,9,7.4,9z"/>
				</g>
				<g>
					<path class="st7" d="M7.3,9.2C7.3,9.2,7.3,9.2,7.3,9.2c0-0.1-0.1-0.1-0.1-0.1c-1.8,2-3.3,4.4-4.3,7c0,0.1,0,0.3-0.1,0.3
						c0,0,0,0-0.1,0c-0.1,0.3-0.2,0.5-0.3,0.8c0,0.3-0.1,0.7-0.1,0.9c0,0.1,0,0.2,0,0.3C3.3,15,5,11.9,7.3,9.2z"/>
				</g>
				<g>
					<path class="st7" d="M48.9,24.3c-0.1-5-1.8-9.6-4.5-13.4c0,0-0.1,0-0.1,0c0,0,0,0-0.1,0c2.5,3.6,4.1,7.9,4.3,12.5
						c0.1,0,0.3,0.1,0.3,0.3C48.7,24,48.8,24.2,48.9,24.3z"/>
				</g>
			</g>
		</g>
		<path class="st8" d="M32.5,2.3C32.5,2.3,32.5,2.4,32.5,2.3c-0.1,0.3-5,0.6-5.4,0.3C27,2.9,26.8,3,26.5,3c-0.3,0-0.6-0.1-0.8-0.1
			c-0.4,0-0.7,0.2-1.1,0.2c-0.4,0-0.7-0.3-0.7-0.6c-1.2,0.5-2.4-0.1-3.6,0.4c-0.3-0.4-0.6-0.3-1-0.1c-1,0.5-2.2,0.5-3.2,0
			c2.8-1.2,5.9-1.8,9.2-1.8C27.7,1.2,30.2,1.6,32.5,2.3z M31.2,47.5c-0.2-0.5-0.7-0.6-1.1-0.6c-0.5,0.1-0.9,0.3-1.4,0.3
			c-0.5,0-1-0.4-0.9-0.9c-1.1,0.5-2.4,1-3.4,0.4c-0.1,0.3-0.2,0.5-0.3,0.8c-0.7-0.6-1.8-0.9-2.7-0.6c-0.3-0.1-0.5-0.2-0.8-0.3
			c-0.1,0.2-0.2,0.5-0.4,0.7c-0.3-0.1-0.6-0.3-0.7-0.6C19.3,47.1,19,47.5,19,48c-0.7-0.3-1.3-0.4-2-0.5c2.4,0.9,5.1,1.3,7.8,1.4
			c3,0,5.8-0.5,8.5-1.5C32.5,47.2,31.7,47,31.2,47.5z"/>
		<g>
			<g>
				<g>
					<path class="st9" d="M24.5,3.1c0.4,0,0.7-0.2,1.1-0.2c0.3,0,0.6,0.1,0.8,0.1c0.3,0,0.5-0.2,0.6-0.4c0.2,0.3,3.1,0.1,4.5-0.1
						c-4.8-1.6-10.3-1.4-15,0.6c0.8,0.2,1.7,0.1,2.5-0.3c0.4-0.2,0.7-0.3,1,0.1c1.2-0.5,2.4,0.1,3.6-0.4C23.9,2.9,24.2,3.1,24.5,3.1
						z"/>
				</g>
				<g>
					<path class="st10" d="M30.1,47c-0.5,0.1-0.9,0.3-1.4,0.3c-0.5,0-1-0.4-0.9-0.9c-1.1,0.5-2.4,1-3.4,0.4
						c-0.1,0.3-0.2,0.5-0.3,0.8c-0.7-0.6-1.8-0.9-2.7-0.6c-0.3-0.1-0.5-0.2-0.8-0.3c-0.1,0.2-0.2,0.5-0.4,0.7
						c-0.3-0.1-0.6-0.3-0.7-0.6c-0.2,0.1-0.3,0.3-0.5,0.5c1.8,0.5,3.7,0.7,5.6,0.7c2.1,0,4.2-0.3,6.2-0.8C30.8,47,30.5,46.9,30.1,47
						z"/>
				</g>
			</g>
		</g>
	</g>
</g>
</svg>
